<mxfile host="app.diagrams.net" modified="2023-08-14T04:04:37.599Z" agent="Mozilla/5.0 (Windows NT 10.0; Win64; x64) AppleWebKit/537.36 (KHTML, like Gecko) Chrome/114.0.0.0 Safari/537.36 OPR/100.0.0.0" etag="clb5G_rhG01p92kQ8w3V" version="21.6.8" type="github">
  <diagram name="Strona-1" id="XRzsrkLBQ34z8K6_GSZm">
    <mxGraphModel dx="1393" dy="797" grid="1" gridSize="10" guides="1" tooltips="1" connect="1" arrows="1" fold="1" page="1" pageScale="1" pageWidth="1000" pageHeight="3200" background="none" math="0" shadow="0">
      <root>
        <mxCell id="0" />
        <mxCell id="1" parent="0" />
        <mxCell id="8waOTapv8cE7Aeydk_Z_-1" value="" style="ellipse;whiteSpace=wrap;html=1;fillColor=#dae8fc;strokeColor=#6c8ebf;" vertex="1" parent="1">
          <mxGeometry x="10" y="10" width="530" height="560" as="geometry" />
        </mxCell>
        <mxCell id="8waOTapv8cE7Aeydk_Z_-2" value="" style="ellipse;whiteSpace=wrap;html=1;aspect=fixed;fillColor=#d5e8d4;strokeColor=#82b366;" vertex="1" parent="1">
          <mxGeometry x="85" y="100" width="380" height="380" as="geometry" />
        </mxCell>
        <mxCell id="8waOTapv8cE7Aeydk_Z_-4" value="" style="ellipse;whiteSpace=wrap;html=1;aspect=fixed;fillColor=#f8cecc;strokeColor=#b85450;" vertex="1" parent="1">
          <mxGeometry x="180" y="195" width="190" height="190" as="geometry" />
        </mxCell>
        <mxCell id="8waOTapv8cE7Aeydk_Z_-5" value="" style="rounded=0;whiteSpace=wrap;html=1;fillColor=#dae8fc;strokeColor=#6c8ebf;" vertex="1" parent="1">
          <mxGeometry x="10" y="590" width="120" height="60" as="geometry" />
        </mxCell>
        <mxCell id="8waOTapv8cE7Aeydk_Z_-6" value="" style="rounded=0;whiteSpace=wrap;html=1;fillColor=#d5e8d4;strokeColor=#82b366;" vertex="1" parent="1">
          <mxGeometry x="10" y="690" width="120" height="60" as="geometry" />
        </mxCell>
        <mxCell id="8waOTapv8cE7Aeydk_Z_-7" value="" style="rounded=0;whiteSpace=wrap;html=1;fillColor=#f8cecc;strokeColor=#b85450;" vertex="1" parent="1">
          <mxGeometry x="10" y="790" width="120" height="60" as="geometry" />
        </mxCell>
        <mxCell id="8waOTapv8cE7Aeydk_Z_-10" value="&lt;blockquote style=&quot;&quot;&gt;&lt;span style=&quot;font-size: 21px; background-color: initial;&quot;&gt;&lt;b&gt;GyMe.Api&lt;/b&gt;(&lt;font color=&quot;#6c8ebf&quot;&gt;Presentation Layer&lt;/font&gt;) - Responsible for communications with the user and the request pipeline.&lt;/span&gt;&lt;/blockquote&gt;" style="text;html=1;strokeColor=none;fillColor=none;align=left;verticalAlign=middle;whiteSpace=wrap;rounded=0;" vertex="1" parent="1">
          <mxGeometry x="100" y="500" width="670" height="240" as="geometry" />
        </mxCell>
        <mxCell id="8waOTapv8cE7Aeydk_Z_-14" value="&lt;font style=&quot;font-size: 21px;&quot;&gt;&lt;b&gt;GyMe.Infrastructure&lt;/b&gt;(&lt;font color=&quot;#82b366&quot;&gt;Business Logic Layer&lt;/font&gt;) -&amp;nbsp;it contains all application logic with all validations and mapping entities to Dto models&lt;span style=&quot;background-color: initial;&quot;&gt;&amp;nbsp;&lt;/span&gt;&lt;br&gt;&lt;/font&gt;" style="text;html=1;strokeColor=none;fillColor=none;align=left;verticalAlign=middle;whiteSpace=wrap;rounded=0;" vertex="1" parent="1">
          <mxGeometry x="140" y="540" width="630" height="390" as="geometry" />
        </mxCell>
        <mxCell id="8waOTapv8cE7Aeydk_Z_-15" value="&lt;h2&gt;&lt;font color=&quot;#ff6666&quot; face=&quot;Tahoma&quot; style=&quot;font-size: 55px; background-color: rgb(0, 0, 51);&quot;&gt;&lt;u&gt;GyMe&lt;/u&gt;&lt;/font&gt;&lt;/h2&gt;" style="text;html=1;strokeColor=none;fillColor=none;align=center;verticalAlign=middle;whiteSpace=wrap;rounded=0;strokeWidth=9;perimeterSpacing=0;" vertex="1" parent="1">
          <mxGeometry x="550" width="240" height="290" as="geometry" />
        </mxCell>
        <mxCell id="8waOTapv8cE7Aeydk_Z_-16" value="" style="shape=curlyBracket;whiteSpace=wrap;html=1;rounded=1;labelPosition=left;verticalLabelPosition=middle;align=right;verticalAlign=middle;" vertex="1" parent="1">
          <mxGeometry x="570" y="85" width="20" height="120" as="geometry" />
        </mxCell>
        <mxCell id="8waOTapv8cE7Aeydk_Z_-17" value="" style="shape=curlyBracket;whiteSpace=wrap;html=1;rounded=1;flipH=1;labelPosition=right;verticalLabelPosition=middle;align=left;verticalAlign=middle;" vertex="1" parent="1">
          <mxGeometry x="750" y="85" width="20" height="120" as="geometry" />
        </mxCell>
        <mxCell id="8waOTapv8cE7Aeydk_Z_-18" value="&lt;font style=&quot;font-size: 21px;&quot;&gt;GyMe.Core&lt;span style=&quot;font-weight: normal;&quot;&gt;(&lt;font color=&quot;#b85450&quot;&gt;Domain Layer&lt;/font&gt;) - Core of the entire application that&amp;nbsp;&lt;br&gt;does not contain logic, only entities and their configurations&lt;br&gt;&lt;/span&gt;&lt;/font&gt;" style="text;strokeColor=none;fillColor=none;html=1;fontSize=24;fontStyle=1;verticalAlign=middle;align=left;" vertex="1" parent="1">
          <mxGeometry x="140" y="700" width="590" height="240" as="geometry" />
        </mxCell>
        <mxCell id="8waOTapv8cE7Aeydk_Z_-19" value="User" style="shape=umlActor;verticalLabelPosition=bottom;verticalAlign=top;html=1;outlineConnect=0;" vertex="1" parent="1">
          <mxGeometry x="650" y="230" width="75" height="120" as="geometry" />
        </mxCell>
        <mxCell id="8waOTapv8cE7Aeydk_Z_-20" value="" style="shape=flexArrow;endArrow=classic;startArrow=classic;html=1;rounded=0;exitX=1;exitY=0.5;exitDx=0;exitDy=0;entryX=0;entryY=0.3333333333333333;entryDx=0;entryDy=0;entryPerimeter=0;" edge="1" parent="1" source="8waOTapv8cE7Aeydk_Z_-1" target="8waOTapv8cE7Aeydk_Z_-19">
          <mxGeometry width="100" height="100" relative="1" as="geometry">
            <mxPoint x="510" y="310" as="sourcePoint" />
            <mxPoint x="460" y="220" as="targetPoint" />
          </mxGeometry>
        </mxCell>
        <mxCell id="8waOTapv8cE7Aeydk_Z_-22" value="" style="rounded=0;whiteSpace=wrap;html=1;fillColor=#dae8fc;strokeColor=#6c8ebf;" vertex="1" parent="1">
          <mxGeometry x="10" y="1210" width="790" height="550" as="geometry" />
        </mxCell>
        <mxCell id="8waOTapv8cE7Aeydk_Z_-23" value="" style="rounded=0;whiteSpace=wrap;html=1;fillColor=#ffe6cc;strokeColor=#d79b00;" vertex="1" parent="1">
          <mxGeometry x="450" y="1410" width="335" height="150" as="geometry" />
        </mxCell>
        <mxCell id="8waOTapv8cE7Aeydk_Z_-28" value="" style="edgeStyle=orthogonalEdgeStyle;rounded=0;orthogonalLoop=1;jettySize=auto;html=1;entryX=0.528;entryY=0.013;entryDx=0;entryDy=0;entryPerimeter=0;strokeWidth=2;" edge="1" parent="1">
          <mxGeometry relative="1" as="geometry">
            <mxPoint x="85" y="1208.05" as="sourcePoint" />
            <mxPoint x="621.8800000000001" y="1409.9999999999998" as="targetPoint" />
            <Array as="points">
              <mxPoint x="85" y="1178.05" />
              <mxPoint x="86" y="1178.05" />
              <mxPoint x="86" y="1328.05" />
              <mxPoint x="622" y="1328.05" />
            </Array>
          </mxGeometry>
        </mxCell>
        <mxCell id="8waOTapv8cE7Aeydk_Z_-24" value="User" style="shape=umlActor;verticalLabelPosition=bottom;verticalAlign=top;html=1;outlineConnect=0;" vertex="1" parent="1">
          <mxGeometry x="60" y="1050" width="50" height="100" as="geometry" />
        </mxCell>
        <mxCell id="8waOTapv8cE7Aeydk_Z_-33" value="&lt;font style=&quot;font-size: 17px;&quot;&gt;ExceptionHandler&lt;/font&gt;" style="text;html=1;strokeColor=none;fillColor=none;align=center;verticalAlign=middle;whiteSpace=wrap;rounded=0;rotation=25;" vertex="1" parent="1">
          <mxGeometry x="90" y="1250" width="145" height="70" as="geometry" />
        </mxCell>
        <mxCell id="8waOTapv8cE7Aeydk_Z_-35" value="&lt;font style=&quot;font-size: 17px;&quot;&gt;DbTransaction&lt;/font&gt;" style="text;html=1;strokeColor=none;fillColor=none;align=center;verticalAlign=middle;whiteSpace=wrap;rounded=0;rotation=25;" vertex="1" parent="1">
          <mxGeometry x="195" y="1235" width="160" height="100" as="geometry" />
        </mxCell>
        <mxCell id="8waOTapv8cE7Aeydk_Z_-36" value="&lt;font style=&quot;font-size: 17px;&quot;&gt;Authentication&lt;/font&gt;" style="text;html=1;strokeColor=none;fillColor=none;align=center;verticalAlign=middle;whiteSpace=wrap;rounded=0;rotation=25;" vertex="1" parent="1">
          <mxGeometry x="290" y="1235" width="175" height="100" as="geometry" />
        </mxCell>
        <mxCell id="8waOTapv8cE7Aeydk_Z_-37" value="&lt;font style=&quot;font-size: 17px;&quot;&gt;Authorization&lt;/font&gt;" style="text;html=1;strokeColor=none;fillColor=none;align=center;verticalAlign=middle;whiteSpace=wrap;rounded=0;rotation=25;" vertex="1" parent="1">
          <mxGeometry x="402.5" y="1235" width="147.5" height="100" as="geometry" />
        </mxCell>
        <mxCell id="8waOTapv8cE7Aeydk_Z_-38" value="&lt;font style=&quot;font-size: 13px;&quot;&gt;Middlewares&lt;/font&gt;" style="text;html=1;strokeColor=none;fillColor=none;align=center;verticalAlign=middle;whiteSpace=wrap;rounded=0;" vertex="1" parent="1">
          <mxGeometry x="375" y="1330" width="60" height="30" as="geometry" />
        </mxCell>
        <mxCell id="8waOTapv8cE7Aeydk_Z_-39" value="&lt;font style=&quot;font-size: 17px;&quot;&gt;ValidAccount&lt;/font&gt;" style="text;html=1;strokeColor=none;fillColor=none;align=center;verticalAlign=middle;whiteSpace=wrap;rounded=0;rotation=25;" vertex="1" parent="1">
          <mxGeometry x="480" y="1235" width="170" height="100" as="geometry" />
        </mxCell>
        <mxCell id="8waOTapv8cE7Aeydk_Z_-43" value="" style="endArrow=classic;html=1;rounded=0;exitX=0.5;exitY=0;exitDx=0;exitDy=0;fillColor=#fff2cc;strokeColor=#d6b656;" edge="1" parent="1" source="8waOTapv8cE7Aeydk_Z_-33">
          <mxGeometry width="50" height="50" relative="1" as="geometry">
            <mxPoint x="390" y="1360" as="sourcePoint" />
            <mxPoint x="800" y="1160" as="targetPoint" />
            <Array as="points">
              <mxPoint x="400" y="1160" />
            </Array>
          </mxGeometry>
        </mxCell>
        <mxCell id="8waOTapv8cE7Aeydk_Z_-44" value="" style="shape=image;verticalLabelPosition=bottom;labelBackgroundColor=default;verticalAlign=top;aspect=fixed;imageAspect=0;image=data:image/png,iVBORw0KGgoAAAANSUhEUgAAAT0AAAF+CAYAAADwV81fAAAAAXNSR0IArs4c6QAAAARnQU1BAACxjwv8YQUAAAAJcEhZcwAADsMAAA7DAcdvqGQAANJQSURBVHhe7P15jGRHnt8Jfv2O+47IzLgyMyIvMpNFskgmWawq1l3FrupqdfdqNbuzGql7BsIuIGAl7GIxg8WiRyMsFvpjF9jBSFj9M6seQdAsIEFqSdNd99FdVV3Fm0UmySTzjrwz474jPMJ9fz873jOzZ+/584hI5vU+Eeb+ntnPfvYze2a/sOfu4b/ci5/9wzoE6kmQU88J1E35sHZYM4ecOglFo1IusSV2cwFWtmOTRaTI35K22aVuKkhohnqtjvaASDsJDXvZgS1WE+YJ6fKpizXJLdjDcXkIeLx6+3AgZiRdmLw4ixA7kxXRCa0vcnJNloqbDo3aTCER57EawpplqpPjDJLxw79B2hVNKIl0R49fXD/N8jiZBljVTR277nhGxn1Fz2bD6ZkTvDHhEojW29nykHq0S9DJhCXiynZOgqa9b4zgXjQx1lo8UsUs8ArsHqHS0Lun45CRcX9wdnrpF46UTJKn/REtkqQ7Ti+6kkrBroubcprzq46xSdcXxTEyBOuUSf/EtGPpY6yThx6rW49QvzIyPLe3aSY4y1BST5Eq5CXYZzWNqiQcjdIRqGHHpw7TkKNb3dA8ffutcsIC88AhJj/I1gekm9uiwx3fXWtEx530wMAdVIfEbruakXG/iHlNL8WUjohox0Kog+bclCSpRq1exfLGVcytfiQSH3OehWhbGWB5IsM+go/Nc43Od1N4wMgDK+sRI7gOCRfkUe17xqON8e5tHGZxOM31UfziCF2elE1eIrPL76ujeIrFIn7/938fX/jCF8T5L3/5S/zH//C/oK10CPlcSeRpgtYcuyJmakSBp1QoCh2m3acEAlV80FBaQqJ61GQNejSrBjoVrlq3PC2OiXwoVIUPEmMra8v4cAtcYx9tHq/ePjzwy2Tk9P5AzU7/ZeLX00RJ+CDQR5E5b2XIJSxlw7o+2On9i3/xL9RZlH/+z/85xsfHMTZ+EP/j65dE3n91+jCuTl3Bf/j3P0JHZUzkhVDLRs9sOz22CIFQim9Zd0Wgig/S6eKx1oQ16IhPwiIbU3WcjEAXOraINlWepcujzDcmsW26BZ66jzCPV28fHtjp5aNz1s4Ri9+5gmLux11Vq4x3SEnC6fn444/x8ssvC4e39uo/FImPOW9re1lJEbxYReKnAspDg+g5cRBDx0fQNVBBLuiellNJ9Vt0lx7q9SJaD4+gd6gszXe6UM+1ouPoCDp7ZIFHxEDq1tTbetF3dADl0BiCjg0l2iL+s6E/PlMrdmHghUPoaDHqhYIN0MpJ0Oq3AZ/qJNB1dPLgigRi3szHBnMog+H0sNvyjPSIN0OJfDgdzeF1h9qeuIaPiFBuraBYKQWbgrAWUKD8EpV/GtSLbej73LM4+NQ+tPCdb7kDvc89g8PPDaCkF7vulkpyd8eJKaN9YgxDTx9Aq+6sLiIKI2MYPjGG7l75smjCkBBcUZayA2ubmMDgE5MYGC6ofFlmqKdj80xBdeu1WkI7jaCabmV9oSLE5WfcC3Z+TTPSYI6vek0vacjl5BdrI4Xk6OknUGqpYOq1D7C1UQ0qsMM7+NJJVNc2cPX1j2Smgb69/Xt/7++pHJvt7W38zb/5Nxvf3rJjoNTyxLMYH5zB1K+nsLFFLoR3by37MPblQ8BHb+Pa5U1yjEXksYXaFtsu+1nPF1Ao1rC93oKhb3wGva01LL79Jm7f5L2WpF4rofeLn8VQdw6rH76Ba5dIARdyG7U68q0tKG5vorpZUwMXUkc39n9rAri9ju6WaZz79W36C6Tapj9FuRZyouukr1hBqVTD5iqNoVGeF+XbEb2NUdabF1DrMPOSSNNkWl2PGXFDZ10O9Wyiy5u92hk2YhzVIFrv3uoB5medmoHlb/z2vDgef/EkCmX55oJ2eIwuD+BdF6cG5PN5/Pt//+8xdeUy/rv/1RdF4uP/8Gf/CW3l/UqKEAu5D32H85g/c1U4PIZdVm79Nm69M0U+g+yiJvP7JzH5xXFUVPPsLNufehaHjnfKDFSxdHMFHQcH6bbYsLF7H3raZ7A4LfNEF/igfRAHvnoaE194EqNfex6HXjyAinkLS4e5oQF0Vqcx+/40VvoH0UUbX12/nuvHyLeOY2DyBA5//RRGX3kOR79+DJ0dsjq4/NUT6Gm4WRba5KF1bOBzmpyVlLQqM5m45xkZDyCW0+N5bT5L5OwOFrZGOAEzSbZpd3flNx+IY3Z0LV1tgcPjfC4PMB2JAzsg3t1x2traCo7/7b/9t/iH//AfisTHm9V1bG2vqlqKtlaU88tYmzf0KzO3bt/E9DWSpxv72g1yPC396OyWIsj1oGt/DUtXF+iYdm2UtX31NlZ7yMm10Qll8E6ubXwIueu3sEwbLk2dboL7XziEwpX3cP5Hb+HiD36L+cIo9h9rVxIkQzu1joP9qF67gw1yfIsznegaVR5M2UceFV39s7j6g7dJx5u4er0F+58fQZnGw74uO4SdXZzDaxphsMQ4DNGd8hZmZNwXlNPjGW8nfSSmLD3oF9MDuDCQEidakBzbJjm4MyLr8CufEc98zvlKo5SNgdtinvlfP4O/+c/+Jv743/wx/tb/529h7Hl5C/vqf/sqDpw6EDzn80WRL6G6Fbpt3SZHqZqo1/PoOEm7r5efwOjnKD07hBI5L2zPYuFWEZ0j7bJv+wfQsXEX83NGX6szmLtRRvehTmlXoQ/do1tYvLSkJSQ9vGubI33bKLSWUaLt4/L1BZT29SCv+1rsR9fQGhavrpHfYec6h9aDZIs1FhtY/OQOtvhWFzWsf3IDK+3kmNuMcd5rdqOWTbcGgvFmZmQ8EFg7PRvtyOSTwJrHyStF7vjOYPHGrHJ4vMPTC5dSQnV2Lk/9wVPC6c1cnsGP/8mPceY/naHbZX7hH7R7bMH64nrwvLh2UeQHrKyjWmph36eoYePmTcxevIW5hTzaOuVtN294VqamkR8eELe4HcN92Lx2G5tsnOprvV7DysU7qI8NoTVfR350HzoW72Bu2VnU7OgK3Rig2/rxz50k50pOdrKNdqE56E8QFsbIqeZK6PjMCYy+dBwjB1tQ6xxCd48SEGxie52e1DChRjvZjTIK4YbxAcJ3EZ1xych4wAidnl5kLr68VOTI0W3h+tufiOeoonjF7PQmX5nE4s1F/Pz/+XNcfesqPvyLD3HpV5fwu/+P30XveC9+///1++KZz3M5x3dXF7C22IUucioMO7fq7ByWb82hlq+gtrSKTd389DSWMIDugT7aha3SLow9jsPCLcyvDKCPdoS9tONbuXwb2+4t4hq/cTGNmz99B5d+9i6l3+Iyp19dxwbJ1usldI13Y+PKVcxencY8p8vXMXu3SPld5CrIWQiVFRTbDd35VpRaNrC1os5TwfW1DsfOe0rm8DIefKS3aLQuqJzXuLvOG8J15FMkCWIUstNr62sTTq9Wq6lcyZ//3/4cta0a/qf/zf8knv/V3/lXpE/uACX8Tu0mZj+4hdKxJ7H/YCcKJVqMxRLaDh3F/rEq5i7MkQy1zb+5ZSxer6HzMwfRvnAXC2tKjQHrm788j7YTT6KnMo2569vR9T1/F4tbgxg40ibe9KijSDu6Uxg73iH6w29ydPUsYeHjO3TbO4sV2gGv3JjB7PkZ2mkOop3skS8qlNF1/ABKOdJRL6DtyWG0Lc5ime3yD1cKuGKTlbl/btJqzBTAAhkZDz55e+ISzrmc23qGG4W8kIOJTs/i3EZIG1VMHG2CP/7jPxZvWjCrs6voPdgr3rU1+dv/8m8jX8zj7/7//q54/s7//TvI58zX9CS16Uu49OZdFCZO4Mi3Pofjrz6HkUM5LLxxFjMLtq3rU3ex3VHB6tW7qMU44hrd9i4XSqhN3cSap1M5yp1+/RK2xk5h8tXnceTVpzHQuYS5qSXhYCtjg2ihXeXCBska1et372KZd5pDOpMc4+0OjH7reUx++3mM0O7z9ls3UI2xqzn2QoeP6LXP2D3ZqN4bci8+p/73ttkRNpycPrKXlDxLs8yspknvysZ1PPH7B/Hsf/YsrrxxBed+cg6d+zqxRtuw+avz+NI/+BL+8r//S/H8Z//nP0O50InOlkNKgcS0jj+PVxCfx/NYQ4L11mEc/FI7Zn/4MZZrjkzQOc63LI2cBpTKyG9vou7qakCdnN/o7w1h5fsfYH6rRJvTGrbSfiZP2eITDS4VH3gF1HNz5krixiBSsBPljw5xvY8dPofHe/R2T90YwIQ3MhrAi0ckeUEMnbskh9bSIN7/dx/g3X/zLvoP9ePr/83Xceq7p7C9uR15E6NU6EBHy0FV1wftU7e2ow6PZlu9VkTrwWHs++x+4MJV6yMoAUHnPNMzKNMHKlWrdFsuCnZObQtbG9EPN0dgswzTEhdRI5MSK2dkPBrsfKcXgRRYOsIVZq61VM3QjqRW38La5m1s1VaxXdsQt7A5Sts1+42GcqGbnJ77ZQPcZtiqt01hbgf6nx1CYX4Gs5fmsO31CjovyXKjniHm08awiK+sjk70n+7B+ltTWN2Oq20QZxJVNWuHm/KYlk09KZq1iLMhUtCs4keLuN7HDp/D4z16u0eMsxrEBl8tZRaFw85H3krh6iK0VLrLFauTEQWxpV7SOD0mbNcnFWoJPrcXi5I0xEILQnSxr0zCEp5Ss3kuNs5janhIqbsZzLoWbkGzih8t4nofO3wOj/fo7R4xzmoQ83Ix+4Ze5oUlPhkHfcsbXKLmLpWu6SbjITW6V7FWB8odUnTTj6qo/u2sOWs16mrQHw+dOEMcyxIhpZ8YK1+gz828jIwMjf2aXrBS5YIRj/TgLp+GyyniUMwafGxraOQghLrwQaVG6HbMFKK12LlEjGotL/y6+PHB/ypGP4GwzAuR/0oWV1dIOgapXIE8cgQsksoyMjKYxm9kWCu08aLSi1qkFHUtkQbYss3U3AkexyYy6IGfqXNueUQ+gPveaOyUvnglgt25tQbKMzIeZdTiUd+nR4/Weghyg5SGeLl0Wppb0M0uf7t9rm1r0OVir+ZIEyLDyaVTztFJojVTsl7jTINqWzhU+ePDb3ezbWVkPJ7QTk8tmsiasZdylMaLrJGEqV3L8vPuNbsk9MPqpiOny4Js1W6cfOTcg6UvASUX5/g0UiyNwhTskZoo90xxRkbTkNMz3Aw/yVVkzFN3wmp5/0TWpZzkg4ul3MCsab6S5UPrkHp82lyZOHSpfK1OPjeqZhWZFZw64gORVjIEzPz7zT2140HoYEaGghxLuNPjMytmA51SUbCmI0jnZCcpGiR60MchoXyya5OlbhKw3iDJA3FLaKQ6qlhen8Lsyoci8XG9XnVskQR5vkIN6ZTJsMNFvMvKSmTiH30sU7P4x0h+01+YpIzb1k7ac4m2nZ69suHhJc2VMGWSUsbuMMcwjIYmcsMi/0CrJZiwFuRCd1Dy8smtLGv4FndghadIlPiNFLFwlzYu4vd///escJF/9mf/EZ3lCfJd4f/qeu2NQxoaxZeXlkhdzghtEh9bMbDtNct8+U30zYttSyy2iRmK3Y5+xt6ip2lh9MAT/0gciSvED3KiWxeMT1S5+OEdj8yQGGvMqdmAqGyprYKRZ45hZWYB9e1a4oISZnhYXr+O3//D74iQkf/0n/5T/OIXv8Arr7yC4eEDeP/Mb1Eu6q9KjtrLUdDaDh9A10AXWvsodVWQz9exvVYlU2IaTNllY5g8mB2NSnBOdGzD83q5Ez2HW7E9s2Z8aUJUT3NE69dp7AafO4D87Bw29b/27baZR5RsWB5MPCEgGSeXT4Msfw2Nd8dmXX0+0SlKjRxdqa0FB186JWJrJBJjSnV7WYSG/Jf/8l9idnZWJD7mPC4Tjlv9ROEoaKPo6iuh2FJCqa8ffZ85hYkvTaKz029znB3yxjP8EYLBB43lqSTIiaDvquUBPxtJIE/q5W70Hu0D72FVSylILxnA9tc89gb2ZGQ82MR+Ts+e1nJxiB86DG+5nJmuss2aJnHrQubLxctfOGrG2Gjo+DRxje6IOtauXMKdM5dx++2PMfXzd3D9bhv2fXaEXGLYEI9DrsJRy8j2YEz4kM4r/B4R5RVLKLcU+J6b1SoBmUT9Flk/DDzEXzhK5xWqQ3n1PDneNg5kpMtDOCdPO+Oi+XWCBjWuw/rLUftC/UXST67Sp5/yhH1m/a0lzJ65hlXjewcDuQrJcT9ddBu+soyMTxnP7a2JPOcdUXS6urIKQ49PIqaWBd/WLt6aQc/oEHrGhrBwc4Z2gOorUMgQeXutoMPgTB1sba+hvaMsbmnPnTuH1tZW/J2/83fwwQcf4JOPr6Ji3N661FGind4Q8revY3lFa97G5t01FCcn0b56FUvL1FTnEA68fBL7Dvajc3IUPX01rN1cFF9aUM8NYPTb4yhv9WP/c7RrHB/DwKE2VO/OYpPDhBC5Dqr/Bap/iOofGUNPPznaG8vySw+o/sh3DqJS68O+Z0bRe2wc/SMFrF2dF7EzRP2eAxh55SQGx3vRPbkfle0q7UpzWD43hy0aH6H/i1q/su/GUqj/d5X+Z8ek/mFHf8cg9lP9/RMD6KLyngFZfwuybv7SXaxvcztSLminP2ynXiOfO3kM4y8fQtf+QfQdH0RpZRYry/YXwz6q6NmTcf8x/VdhdJicnvfqqMkvHvlZ/QT3W4znL3dQxHLqmDAOU8GOb212EQPHaHfV2oJFcnwa2bzSyM1oM1RWsdCK9878NU6eOim+mPQb3/gGLl68iP/5X//P6CiPUX29NeIKTmXt9O6w01NZTH0D+b4xdOIu5mfLGHj5OMpT7+HyW1OYvTiN3NgxDLTPY36GvwS1Dd3Hh9Feu44rf3UeM+dvYqUyjJFjJSxdJseYa8PA56n+lfdw5c2rmOP640ep/gIWZjiWSBu6ju9Hy/xFTL12BbOXl1A8PIFuanthbpss7sDgFyZRuPBbqn8Ns5cWUDkxga7KKhbJ6VVZ/xdY//u4/Abpv2Don1b6T5D+OaX/IumfIP050j/L+lvR/4VjqEydweXXuX+zKBw8hv7WWcxPl6luO7bOs9Pjdo6hRO1c8bVTGCCH2I/Vv3wbN87ewtzdAjpHSli/uRr7Za2PEo9+Dx9OrA8nh3c4yZcr9cVkfSoZh6ng29rhzx7DxtI6bp6Rwb01UkeoSW1OFLRj2ryDickJnDx5Ev/kn/wTkfiY81apLKybZI1dxs5+e3MLhRLdajqRz4o68tkQRz7jXQzXlVHNeMfDkc/WP7mOlfY+dHIoSVV/8VYNRQ4o1GLW1+2ukoNcor5R56qL1NYmSp2tsqiH9OTvYObiOhuGXG0ds59M0y6MB4KS0D9PfyicyGxx+rdI/01TP+3uStOYObcq9dPOefoXr+HyWSfUJstRO8vUjuiHGQGOb2W31lFdK6F1tB8iBPLiTdx6bwZb6v+AMjLuB+o1vfhJyEskTOpHLBxOCq4eUWHXbAYzOPiVXzuxcr3UsbJ5CzPLH2J66QwOTgzi7//9v49/9s/+GS5fvIPLF+6IY847NDlEch9gduUjcoC3Rd008OtglfYSNlfWwshnp09inOzkJCKf1cLIZxzVbMuMtyGimlVQZKen6ve/+KSMmvaSipxm1d+mW3p1SNS3yKVpZ0H1i+tVcnKEMr9OYxR8BV9bhfR3oZ/0jr/MoS8pHWH9tI8NrpVHPztAhutvbMAcdVmiG1CI1xO70Mv2W+3IfuTyy7j75hQ2e0cw+q0XMfGlCfQOUEn22l7GfUTe3hrIea8ntzE56dCcqs70l3iqhfhqaMGwzHV4W8LhOQpJPKhBBq9u3MLREwfwX//X/xd85zvfEe/S/g//w/8gHF5HhW6Pi124M30L585/iH/wD/4BvvWtb9Et79dw9dp53L51C6ViByuS+oLb22vGa3pExwj2nyhi5cObWKt3onvfGm7+5CNMX7mN+cu3ZLq6pKKk8e1tP3DrBlbWlI58F3qeaMPGx7exlpP1b/3krKqvklG/63g7quIWUtYvDOxDd3kBszdpd0f2dh8qYe3CnNrdkfW9gxg4ACydp9vbIunfT/p/dBZ3Se/CJdJ9ieybSqm/0E76K5b+ei6PAn8RWZ1vjVVdutnvUu1Ms/2iHUpXdDvE2gpWrt7G7LlbWMMAhp7pwsaFWXKoqvwR5tHv4cNJGBhIT1LrUvGxTiHyTLzCJ3YHIqlc3gSyi4r6PZ1rJsbWnS/kUV1dx2W1w4u2bqAKNqpz+KM/+iP09fWhq6sL29vb+PjjT8jhjSqhnHB+nMdlLMOyXGdja45KjRaEWbpVKmlpQcvIGMZeHkXu0iXaIVK2L/LZ009h/LgKCC7qclSzYZTFXrqI9idH0L40i5V10jk/LevT7i5Hux7+bGDHU6cwdqzD+TgIH5vnivlZLFcH0U/tC5lCG/qP9Ydvxc9J+/qP2vaNnSD7eJcVUejA9m0OYOBYp6xP+ge/9ALt4ipKQKqo63Gw2qF+nFD9aN+H0a8dRSfdvmN7C9WVKurFEjlPqeNRxphRiTS6FBl7T94c9eD2JgbtCtKSfEH92qqrG7j6xlnUNmmHR8W8lAI9wqE0nibVahV58WaF2UZO5HGZl0A1P+Tolu1lnPjuSzj2pZPYf5h2aB++iysfLVIRu8g1TL9xCVujpzD5redx5FvPYLCdI58tUhv678gSFu50YPSbz2Pyd+yoZjpyWnXsJCZefQ6TKnLaLNWXlY0+KpuMHBJZxvRbU6gdfArHqP6RbxxF4dot2nnp8jXMvHaZ7DtJbZP+3yH9HWQf7cAaXWNG1H/9IqojT2Dy26T/26fQsXoFt8/ZX9Wv26lSOxNuO3wrvjSDuTtF9H/lBSo7jSOnu7D23mUsNnq1IiPjHpI7/dwf1K2dThzC4ZjIOrqmLKXF6YhFNTs5dMo5EfUCU58poCxWD6sbN8XtLe/cmD/90z/FuY9uoq1C93sCWVfcBj/hkSvbckox4TXKplQyIp/JeiKq2XeHsPKD+KhmckdIqPqRQEJu06LYvlKsgt+owMYGaua7OUZdsbOqefSnQHz+rlJBkezb8gVNMqF2vP0geGwK7QXU12mnZ7/r9MiStpd8qR6PEbm/mMtJOT1xKEffXWwaka8Lw8ukj2TJDpwe423XzjD1Cg2OmtWN21ivzorjllIf2iv7qJL5+UI+qos3L9bpdphhubYSye0YaYTbI8vpbbql0pLIQPkwRZTDjGrzYNTjw1R1YrGMUM8GKbrxOJJ2zHd/fTLSIKapGujci+T01KF8iiNhcnNNWUyP8jcgXqtdojdBwQ6oKWRlrZE1iGPLFldv0KB8ToBFfHeFcTtkEdXshR6svzuFVf7/VKcJcRppNsYOziYVqXbjGkOVqr4LTLs8mmLMftxJO+a7vz4ZaRDTVA10Xq5mTpydMIO1mE4GYS0q4F/5JFJUqy4xDtWpwMgTb5DkKfGzKLRaMpD5QVt2gwpDMcOebEcOlu3iZFsgUFk5LGH2javS4TnIFum2UegIqsTTUMCDUWcn1TMyHmXk+2hqZSS6AC5M5SNYGSXfitZ5KhmHhGxAn+dJNk/W8Tt9/JzjpCTlo4Fpl2NjRFZg5volzHw2WyOPVUZcVU2KMZPFDYTuK406mZHxEGBMY+n0FHHTm2859Y9Yn6nXKO/S6FE+qJwwmYiNlzrWArqacHjiQBanMqGRgLBHKYxYE5e/VzSr917ZkRZuP8aG+21aRkaTyI+sCAfhn9jua2zC8cWg/JqDzPRp102HGpV2lRncgfIz5wvCoyS0VKK0ZZDXeMLNj5NLR7O1eXe7uxY/BdhAnTIyHnDsYN/OpI1zGF7Hp+q6jk+sBc9iEBpE06QtcKxSkE/5a5FqNU50TEl82DWQS8BoK4W0g7BWHlr48naOqW1vNcchBlqle4wewk+nYxkZTZOXL8irGUprQi4N5WDSOBkmrC6SSXDuk3EXhllIz8L5CcfH9nCmYWtwTMnjaTnLztaKNaoBp6qGs31F4lY/SFJrkNR5ElTL0sE5MSbsEGWN+OoZnZphJ3VMjHbZhiCJwgyHbFg+HczlYL2mF9LEpfCJ7uBKGjZFkg0rb9yAXTeqReiIUWNmx7fU2AY//no71Wbj9JOVuikYGTP5cMtjZIVOjac8I+MBIVgGLz73h5GZKjPoMWEOez+y4YN0BKJxKnnXow7jCFtL226osVbfwtL6ZWzX7H+j0vS1PaWODO18YBglD3VGYxu0BNdwpUVvlSqfJt0KY5c3ate0z9Ri4M1uZAUT07bVVEybAhJMKn7EiBmtjAcAr9OTULYqMQWCi9nA6flKDT9kI/LjHZ+tK+V0Uo1ph/d3v9SD//Ir+0WeyRf+5F30tZPTU40L7Z4mYm2PwIKmAlnRfDsi6KnZZirSS9oYxhuHIT69rmBM2zo7EPc1oIS8bT+a7PRKZdx77DcyBPqYLpt4YUxeQJ0k4ZEPX2mi01AV+KncVsH4C08EsTFsXfHtzi6/b6eVMyLNr56NdXg++BtPWg+NoO+IShP70DHQglzw5aDuePkw5JQoj7POZfS7spx0nkTn6r66z3GQ/lI3Bp4/hA7+VhOLxnUb45EhtYFm68BszzzOyLj/GP97S/CBmNs6J24xJE9ktzTVLknI1NX36Z0SWVd+c0Z9gWioMTCR0YrJObOj++U/fkaeNwHv9Pp5p8eQOv6+uMGvP4WOpdtYXaWMYhnl3h6UN67j2l9fw0akd5HeqmcFnwYi0tGx+wt2ftQHXUPk8B+aQIVVOUJ54hgG89dw/Tx/ozHpKXRh4Ok+rH94GSsbph4Fj5feoYsyVyAJww469FnVUGUzzT3k+MYn48GA//FBXiFxlfSl4tnJybx0lmAi5txO4/BCjW40NA4DWRbHUe7lCqpj7fIl3D5zBbffPYepn32ApcoYBsYK1B9yVyqSGMoVlFtC6/nd2FxLGQX19cTCsdEv18lXirRbpDqlEsqtCdHHqL/8jfRmubfNQhGljg5UOltId0Hq5khlH6hIZaq6tKkiIq5FobyEaGjyyugUHqqzjIyHBnN25158Xn/hgCIy98Mp7pvsvqViIQT4ocFScRRZ36BMTjD6lfFUQdcxdnpf/sdnVGZjfv4np+ydHiF2el8jZ/v+a7h1J7S5/dnTGFr/EBc/asHYd4eweT6HrkOt2Lz4IaY+XkWuawgHPnsQ7aUt1Aol1Gev4ebb17G+xd/0Ir91ZeODLXQeaadGSihszeL2m+extETK2eF0DGH/C4fQXqD6xSLVv4qbb9zEhvimGKr/e0Oonsuh8zC1eeFD3MVhHJjoQLm+iY2NBUz/knRVB0luH1a+L7/dhSOV7YvTSXfrLbRTHH6yG1jbQq64heX3PsSdWzHfIaWGIukqisvhXEeLpLJHjAazPeNThqeeviYxH1kxkTPV2hEaiZ8sWNxMAeFJUMe7u5Cwk7vxzidiJ7P/5GGVqzHqKYfHsAPb2trypkZELBH/+iZtrddb0Nqdw9bamro77ERr7hqu/OAN4fDqaMMAObzC1fdx/odv4fz338V0/QCGT5JDCfrYha7+OVz94du4+MM3cfVGC/Y9O4ISlYvoY+ScClfew/kfvYULP3gXc4VR7D9GDjKgEy3c5vffwFVqc/3jD3Dzyiaq18/h8s8uYLlqXwnW2Sd0vo8LP6I2f/BbzGudbFJhAANPtWHpl6/j0k/fwcXXppEf7EEx7pqobF8p54l8q1DnWpkZGfcNPRNTOL0m8M7vaKaV411k/NpeEcPPymhotz64pPIdpAcSjP+PnwTJd55E1IIcWoZH5RsZJw6K+LK9uIHpKe08V7F0aR5V/YWZPf3oLN3F9AVygGRTDptY/Pg2agcGyDlKEREd7dwdEXNCRke7EUZH641GV1vRUcXE+HBawdLFOWqTddn4RlBHKlsknVakMh0RbVtFKhvuR5lfQVi4iVvvz4iYuRLdrqFdnXJ1M9li1onCPc/IuH/wfoaedIqDdiNihqvTpvDpZ12GMvOY4NfxwjczfLEy5Jmrded4Oka3g8VyEQVyU2uXaDf1l1NYIycnTd1Gne8CdeOtFZTWN7EpylTm0gaqpQpIhWIT2250tM0yOTlqXUVHG3jxJMY/J5OIjkZt0E2psq4mbkkZ21oeBz0SxmiwTRwRTUdc42REXMvldKSyUYx+40VMvHIYvf1UElwLQ6ejOhmjnplsozMyPlX0TGTI6fFs1CkZXn6B8+MndSgIDhphVorS+LW8kNRNNkQPh6aO9anLuP3BFdw5ex1z1xZQFY3FtLi6gc0WcnDGzrNOt+WlKuUH5ldQNO9W8620+9rAFr/xuka3qZvTuEm3mZd+9m6YfnUdG4ZOPzHlSuetn75Lt7+/DdMvQ531udu4/de/xYW/eAPXp0roPT2ONt/en7sd6bo300MamYyMe4s5C6NTnNeDSPogSmS6N5zXkRoh3I6xsHU0NJ/D82nQeVP/1bEg+c7TYFkZ3EbG2M3oooVpLFUHMHCUXy+jPwy5CnpPDCF3bRrh5q6MrmMHUMrxH44C2p4YRtvSLJZJIIiOZkZX+4yMrsZtyJ0cY1+T2vYWit3tYjcYwRex7TMqUhmfc6Syr6pIZTWOVLZ5DyKVabs89mVk3Cec21szacxjDU1ivc0T8zk4SEDroWft6Axnp4t1NLQ0Ds/EfQ3PPU+P2VKjViU6Olp1+CSOvvocpafRW7uOG2cXjD42iI7G0dXGTmHy1edx5NVnMNjJ0dVUVDEHnbNx5QYWCsOY+O4p9FZsW2VEs8uRiGscqYxtqi9Py0hlXz5NZS/iyAvdMlJZ4/d8FGyFaRu376aMjAcHPStzLz4f929oRFASFWGf5xLuSFxEU/LQA5dY6jy6YyFD+D8vTOfGuzv3PO6Dy/ojK2GTdFR3FzOT1DcJ76Dy5Qry9U1sb4WjkSY6mqZeKqKwXaVdHJX5zDDgLPE5vAK1tU1nHn0CHXGNdEo18pGla9TXYhtHKtsiXTH1E/EY5iJEdqL74eXx6u2DjzlLo04vMof5dkwdNiDe6UXxSQbNpGxPkNLpJWE7Pds2nc954tiyLWooj4Fbh50ef7YvLjoaw3L+EoVSGm2RoVyPw/Lp4xtdFymX2HpzeCfMHup/CHi8evvgY87IhC8cCBFvXmj0oXFVd7JofNJBKw0tMlBOrxH9neGXClhQnpud1BMhG1RIrqnPguho76joaB5YU1K7LOC2JlG5/kKFuesMHzWyLLH1nRPMnXuk/wHl8ertg485C8X/3spTiVgeXGKvC9vxGTSzu4tDaxAt+JtpDNsX3N65SuxFb1ps90uWmOU+wir6IFojToevRtQCByVgyoUkFgaY10mK2hVkaZzVu6SBbY8i92gkM3YIT0F9Tfzv1XkmKX9/XuSHnQxrMtMO4OZEk7tZHO7rWZYuvqmTP/q4GUzpaE3Zruh+g/7LutIGja0v3jZf3d1hGEsqQ/0aaYvvp2kajEtGxqeJ4/T4w7c0rTmpHAuxso3kw8qPWyCcrxJvm6zdlsaXlwbWpw5dOF8kn/H+DgnTvPo4U9YRzs5fPZZQrT6SZ0x4RAQnZq4loWjSAFOHqipzdL7xx41+zJyMjIcWmr6W07Oms3J+ETjLkx0lSYhbUknsFikF3oWSLrbQ5Ywha9YTydDJmEVBmTyX3eMTuZR1MtHngYoAVeJUcOuHNfnrpLjc4zpc5XTMtgn7ZCUyO6wpf3SR+kmIQyGGQiX554xTHH4lssUdIgf6sUKP8l6ljN0hZq+awpbT8+7vvCOecBl2e4WEYUqJDiqTpDRxLVKhueK1LKlL0OhHm8HJUMlIBxW3Q3aEAyUGqjh0LLrckIsqdtDOTyiKxXRethifJVTMyHhE8L+mZyCWsbUGva7RQ5OLKElc5EuBtBotObdSWiUMyUpx7nXYc84L1ZgjYsvZgnLsdKkskoWxPXPUxWJUdzVZGy0qFLtG4Ry5Vf0TrZeR8SgiPu8vU/zE56UqdzFy0caSZnGmIrQosMowTua5GAKEZYo+Uc++2omm+yoQok5ixXT4+yMV61Hns6SmhIZAja1PbHbjSCrLyHgE8XxOT53SU9wikwvMWC1JqzE1rCTU6VuLgUSCbRZqi1Orb2Np/VJ8NDT1JaK+NjXWbolhYZEXb0ngzALZxgj3Fisr9SXZqQn0kLDfqTqktG9HiMFLY3VGHNno7QFqEO3/yIhMfJVh5YtVZBOptzsaXWDRnNMm1wmz1BE9pY6GRqRvN2wpiVCfoVkfxqhIdnomUlEjm6WyBlLpurNzMqe3a7LR2wPUINqv6UVGljMoqdd/ZJIlFpzny7/H6GY5zegoaCKdkWkH0dA09Xoe5X2D6D1+EEMnhtE9UJZxKGKJDgJLyxqNvYq8hW0sF0LS9Ra0Hx1AOV8j5y6PK3RsY9tkERqYkfHYIHd6eznxd6Gr1FpBrVbzfocef89ePp/H1tqGbMJoRzu9nUZD0zu9gEIrep87gYHOKpZvL2IbFbTu70Vh9iKuvnUXvm/4S3pdTmKXi0hmuWu4dmFF5Shix0/XDwXqGMTY7w2JmBizmwN0zPExyNFvNnx/KqGde0C209s12ejtAWoQ8+EbFOFPsCJ2NdKGnlTUsf+pCRx88aRwcCbii0Upn8sD7tEs4PFomTyKgfI0rv7l+7h1Zgp3z5zDlb88i5XuSew7JL53WCReyxxpTEY/U9AhfyIv11IQp/V8CaU2/kbiGuWrn2IBxXaOZFZBvlxArkZ5NapDx0KpEWVNOFPKyosoazJH5oqSgPAszOW+BJHQWK8iKaJbcnS0jIyHn8j/3jJyCdAjHzQ79wN5fWAsqERUzNsX1dfEvya/RJRjZbh5AaoJbkHv9HYaDU1bW6/34MDvTKD22tu4O6cyCfYB+YH96GtZwPQ1jn62zx/9THx90wBGf3cIG2e30DHWThvHCnLL13HtV1ewtpVDy7FTIpJZxYhktljlXds+bJ7LoUtEPPtABB3KUzv7n3PaedNoR+305jY5Epo8bhgJzRNdbeqjVU90tI9w51bqL9iLRzjQtPMgw0c2enuAGsTIfZDcMajSZv/aW+KGnpSImLfk2Bje2bV0tsY7PIbUizeRm2smCuuRT0BrG8r5JazO8Z7M7lJt5hamr/NXHber6GdncP5Hb8dEP+tEe/EGrvz0bVz44YdYLIxg8GBFlKx/ckZEMtu8fg6XfnYBS/zNK6LxTrTmr4qIZ1Mfr1Hb7egnh1eYOoMLPyA93/O1EyWMhPYeLvzoLTsSWoAdXQ1FFR3tV28Y0dG646OjNYP5Tn9Gxn1AzGI1lT0v/nCJTox+TsAU3xV14di04zv8ytPiWTs8d+no8z1pWkO3fYXtbWyrxR60aTRe71bRzy6G0c8WzsroZy1Uj28rRcS0y4viW+fr1QUs3NpEmZx4gNZndYojns2jqv832Bdl7UNqZ2SA3FoCQSS0GoocIEhHQguiqzFkH7XFgYIEDaOj7YK9cJwZGXuE9xVvnqI6NWTP57N2fGeweHM24vD4WR+ntrEZljmKWQsq6nU6bxs6+pnwaEpimZxGqUL1hASxjZoRN7u2RbeMDR1IGPFMoNrZMg1YcaOseeB6vkhodEscvlq6bbWV4+hob01hs2dERUebQO8AS0d6n5HxUJPndSgSneglqY/lOT2aGTIzBcoZBCkJt5wd3xauv/2JcHgNaaQ+BYGVW/NYW+hE13gLn4VQYeupZ3H4ZJdwPDL6mdGwin7WyFw5hHIQ9XMsq+Tg+I0IU0xHWUt6qS0uElpSdDXqSn2Wo6PRLfFfvInrU8X46GjNkO3yMh4waErLZSg9ny9JQfUkMU/42CrcK3ix6KQfJXu9jEx9udwmZj68heKxE9h/sAOFAt2u5kpomziKA6NVLEwtAIt3PdHP9onoZ+sxAxLmyCPe+RW7O2QMWvUTQUVZ6zfa6XnCjbLmIS4S2nEZCS0CZUWjo1VRL5RQ8JiVkfEwk/rveENHE1kcnLFXK0a2zo+WHTpjt81YSonpy7jy5jSKh07gyKsv4cS3P4vhcfJBr5/F7CK7Jx397BSOvvo8pWc80c9sdBPsgvhnc0pFMvvdaCQzjWjndRll7cjvPEdJRVn7ML4dxhsJrUNGQovcYuuml2dUdLQXSP40jrzQ1WR0tBgS7MzIuB/kXjL+Dc2/9DwkCUbKdEbS5HdlfA0YZUEx5ans2aXdfDhZvkOslemWGP64RwFbqKvFLzdK0gDxObhyGQUR/Swfrm/LfHZxElMvn4n6HGh2u0anslRK07GqxLm6nXxNRjQzUZYo3XaZoFREbovqqTcsLKdn2SlP+TN8Mjoa7fScL1vVPWl4W+7DaSujOXYw4hkGPP3EGNKD+I8Mc0BTzc0kIatMn+zkkrmNKB3W7Rn3QB6x09spodNjkpe0aN2yQSJquRWjYqmQbYhDQbI9UjCxaUuXKakL+LN7LuxIba27cnpMtJGMlOxwxDMUPPXEGNJD8IUDOsOznv345Kw888S4ZHyYqg1XSOkIDKRzQ22AKI5rwKxAMl6xnTg9qmOZF3UYzRI2Ea9LisjHUCbcWYYHjeC6trCvTdvB+m3aNaltfry4R6P92MDTSowhPQSv6XHm3s03U5N9ufwXz9eyKWkc86FOClMyiqeCJpIVXereMfG8ThXKySN2EOGPzPXqulc4jcmeecZA4FoWJxfnfjMyHhJoqueDtWDNZr1Ek5IJnYutia+MMHTrnZCd4ogYRqg8o3q0aV3PrGsKcVLl7MCEE1Oy+lCl2JfAdD2RZJYo17romV8/kykUMy1IRH1VvvvGg+lC+aZUlwrnSgMh9aoGg1Lz9tXMZ/Q5OzT940fma3lFMPghjkQUXSValXAL41JGRnrM+Ri+exvMpfgJZYoEi48nvfx1MKZ+pDBmWcRk7w1acXzbjn8JYPPDLugzOzeE8pQeV5JTiHBT9g87LZXo1FPJ1qCRzekOhJ0QjjauU0LOkFXPTnY8MbalqRrB362MjHuCdHrGpNNzOc08NNfmztArjJK5Wna0ctJgK1YtB8kH91ES11M3L05TCnZcVe7O3KSRzk+dKEw5p2g3F3TnxA1vRsYek3cnmr0Q/GfqVDzrvCA/SKTY/I8FlR9sRjiZuBPeLdewnCu7A+LUm4TNNGqwsUGiPaPR8FbS+aEBMpNLGrt9hM67ATse29AyVpGoZqedyMjYA/L25OQznpE6hU9ufnAkDuhBLFAzGahTnRtI0UNQjUlcLVSQeuXeP4K+OYkRx/QQGSozuVh5rrBOzRM3komXwMVqWtZ68K9QxuMO3d7K15Nip6s3m2a7tXJjEHXpQengJ1edFrFKjcPgRJ+naDYkUBJBafUmRj9LUjXmxdbTgDjh1P1tRNjArtXtiT0M26RTRsa9J3f6efklovYcbm5Ga2l7I0Yn8leVKylTtSsfgYVVvnpyb/mSN3+60K7TDLUaBxZqHElNo1uKmOVkON3wVPCQRiYBPVaRtpkd6zYrNjHOotpuOrTza/ow8nj19t4S4/QkekqGZf6hD3Kpgj2N3YykS2fXDGV1vjw3NTS+22WBpDaTEZHU1i6liqTGuBYLYmzckdNj0srtFQ3bcwVSjreotpvO7Py6Pow8Xr29t9DtrTuc8tycjo2mJpcLGd+V4TyR7xTqfKvcylDY57otn8MrtZUx9sIJ8RXzElNPPGEUNTvNr3zUMJKato5TvV5E66FhtLeZxsnjyvAIevpk3AwL3SEDHdmMo5xZiE67up3KKQjUUKq39qKP2zLfdDLRnUtNHfViNwZeOISOFv74DY3J4f1oa23ezoyMvcKcfeIjK/yuoY2dEy1NC0uqZByK5OLL88Er1lr88jVJ/qlt1cjxteDgS6ciwYVYf1IT/GUFvtQwdKTuj0hltE+MorOTCxRqS1ceGUOP+FJOSfB5PLLb7AP/AO3oOTGENo+PlISS0dr6R2Mc0aFoUpXX6KR1cgKDT0xiYDjaGEdsGznSps4k5cloXgTuGwc7Eic0JpMj6GhQJYny5HGMHN2FgowMg/DDycHK5akqpyu7Pun+5MLVZeaSClaS/A1F08KVRAoOVEqLtjKH7c0tXPmNirHxkhFVjWwSZvGzk3ZL0H2VvHjb4W9ZoaeWCopOtLJAnp7Jd9A2kd9vol1fqYRSq4pipuFDSuxkcpWKEflMynD83iDyWaWMcvDdqCSf70H3SA3zU4voGBsQ370XUCii1NGBSkeLjNjGZZwXRHEjvds1pZ+jp1EdUl5uIVu3ljB75hpW3S/948hwrUWqp9uhMeAocGQfR4TT1KmdvPbB2o5OssOV4z7raG9GfoCO7OYry3hsyZ12vmWlMTyBjBrmQjHz1aKz8zwE1X0T01M3tr0QEVWNnB7DTnB7MxpfI4DU7SaSmvmaXr3ehqGv0S7zg9dw+7b9zSWdz7+E/oV3cfkT+YZIrnMQ+5+zo5XdePNGEK1s7Lv7sPKDM5jdHKTjIWx8sI3OI/xloiUUtmZx6/VzWFoWqpDrGMJ+J/LZjTduYFPpGv29fUbksw8wdXaVayG3bxJHTm1i6hcbGPrmIJZ/fAbzG3KkWo6fFBHbyiJi2yKm/+o8to6cwoHDlAcVxe0vz2Npewijf8OJrHa2TeStfO8DzG20Y/AbT6B4dRqVQ/3I1woo5Vcw8+bHmJneJvv6Mfr71Nc/p7arqu2Tn8Vw4RwuvreElhMycpzZ5vIW2U593vei0eeZq7j5uor2Rn8fWo44kd1+u0eR3e4TsfM3IxW8FvUYGju9tDjDb52yap007nkcrMi9tKa+tHo4qloVN975ROwO9p86LPLS194tORQ7u9E60GUl2mQFcLSyfnJ4han3cP7Hb+HCD9/FXGEUB6xoZRI5It3o6p/F1R+Q7A/ewNXr1K/nRlCiPwBCl4p8dv5HXB7qCvvLkc84ytrruPrxGu1w5Vh3HOxH9fpdbGxOY2GmA52jMlobs/7xByJiW/X6eVz+6QXhaNbPUt4U553D5Z/IPNmIiqz2PbJNOFSXEroO1HCbI7ORDRc/qKL7+YNodT4l6mP9rIwcV70WtimivZHDK1x+Hxe+/zYufk9Fezuuxk9HdvurN3DpJ+/g4q+nkR/qRjHb8WUQO3B6DjSPeCrFpRD7LMD9zw3H8Qk99KBTiOsgQ3inN/zsMWwsrePWB5dUrkToM9Juke7DJIeW0TEMnBjDoJGs1/lUtLKFW9sotJZRJF+zwtHKhnpQoE66+oANLJ67gyo5q1yuhvVPrmOlvQ9dbVTaM0i65gxddanLinwmo6xt1YzLXexH19AaFq+yE6xh+eocWseHhCNtnlUsnSf9/AWnMdWXz18TsXpz+RyqV65hoUrt96vCZhF9nsfizW0U28oy2ts11Wd2bFsqsttoP8r8CsfiTdx6bwZb1HZGhsfp8azVKY6ksmbZ24lo39qewfb6JplL9gZJFIXstvlIfXIgH53B1C/pNtJI0zOqmCHnxNHKBk6fxDjZOv6SilZWM6OVmWxie40cBh/yQ20dWxsVFNropI0jn3Vj4EXS8zmZdOSzcHPJUdZsQwtjA+jIldDx1HGMvEi3ggdbUKNb7i66IxSkvsQsSLep4nU6lbTjDN583iI/ZL4TvUHXpUD27/Bvrhq/fo7y9nmVjobjl8sv4+6bU9jsHcHot17ExJdUZLdsp5dBRGZdummhF1BUmkvMZMPyvhZcyfBc6KEHkWRWLBGH5w1NFrbfSF/zxIyem62ild382Tu49PN3w/SrG1jP8SXRlunnCortrEQ5vkIrSi0b2OI7SR357Gfv4vLPzchnN2Ijn9XrdLs51o2NqauYuzaDBU5XbmDubhFd413iDYIA8Yovnzt5ftUKt5DfADHfHW5BsXUb26vkCKkttqcQ3lkj3+KLb2no1H3+EfX5J9RXnX5xHRtqNyciu/3qPVz48zdx/YqK7BZ9gzrjMSTi9OSU4Ud34toEcuKWi5M4lA9mItw170WKGnCGk5S+OPKFPKqr6/LNi6RYjMogZynvDFLQtA4zWhnXzhXR+fRTGD/eQcpcbXxeRtexYZRy7CCKaHtiBG1Ls1jmd0cTI59xfc+YtdOOrmcJC2fvYPn6jErTmDk/g/zwAFrFyw38EaAtFHvaUQxeftB5HUZeOtonx9FaIvvIz1UmxtBdmMHiNJesYHO5FZ3HB1EuFlDeN47+IXta1rZl5LigTd3nY9Rndprc56epzyeoz3zOkd2+piK7UV0R2a1IjnWHG8uMRwvPNHAWSYKfsYv4LCrc1NJIaCskXqi6uoGrb5xNESuXrGLDdNoFdvUY25zsHNYx/dZlbI2ewuQ3n6f0DAbalzB31ROtTEAO6k4HRln2d57HyNAqbr91Q77Gx5HP3riM6uhJTHxLRT7rJF1TcbrI6YwNomV6GgsbKkNRv3MXyxhAz5Cst0G7PxGx7btPBRHbfHkhXM/X5gbmL21j8GsvYPLbp3HoeB5zb1zBGu0Yc/l1zL53HbV9R3H4289heGIbi9c3VT1J0ObvyTZFn19T0d6+Q33+HdVnjvbGO70lFdntK9Te75zGkdMqsluKEMoZjz6ej6zwRPZNXBstIae9nvxGPbVjMZeFrbVBG2ZFk7h8L6FwvB38HxlnxEdWmsWOpMbE98ktCewpFYMoZ1LGlqzX+zEqPr7yAea3SiiWatha3yYxLUeatLJSCfntahD5rCnMARLIDP4AdSRim86rUl7w5oCnTTOLzcwVUKLb2K3VLaOeaofVF+k4xnbxmbwitbml21RytIMT4+epx69jFui22hfZ7WHj4bb+/sOzTI9hxOnxzUJ4nmao5aQNUKdObkOdnGvVCU78+hvapos9zpcxa7PT2ylu+EgfvpLQnvBIu70AKhKfY9NObzNGk/w1aie1aJaFdSXKAn5Q4ybRdcw8IsmRuEVOVZvEwhgS2n4Eebx6u/fwDNNjmDv9wh+Sn4tOOilAj+Zox85NKpC/XiKLOQ2WMnnCj0JTpCGfkZzHLjzEtkKe2RISWWJLxxKtHiFOk6jqGBjIqvx6rhP9z/dg/Z0prPLn4mKQ/9IWRdaIqUdVwv4rSS3qVycJ2oq3J+PB5nG8cjxrud90vxA3u9WwcLFO9KB/jEyCZPn1JZH4zP7ZK4Qm1aRuWaLP7FxtiazppijxJbvENUsTl6/g4hyWMPvG1ViHxzKh47JJ6ousx4S9DhxeI4RgWuGMjAcHnvPylZVU89e3tHwVKY+zdboHaDtse6LWaZJM0Y456hx3hk+LsIwfVOKNksgLCM/0kVWewhxfL5JwyyMOr1kFGRkPCbTTC5cL/6QnKuuvrXeG4jA+mbjnJtSIbidojw/cVSvyVHoAiOuqj5g7VYtQlxIO+pm+02JXrtKO2Gm9jIz7CDk9BU9gaxK7K890jc5sj9Ql1Kp0tcSi5P0VXOVGjjhQZ74VnGSAIxpP6l4IYrvhRUsm1HCKwlN1pDOs/qTunJ8EczIyHmZCp9cUnlVIKcilrYr+sRykOlTiTeLoEUkfeEjTSGojYtrwYKoUO7a4NkS+U+iRjd4Ka4xc07z0psbjbzCEy3XKyHjIiDg98WaEWDl69YQOLPyxc22iK8HdGZraQ9KsILNmVIOLtDNMnyqBx4u2nGh5jKE621/ceCxSE9N+QKPyjIwHnAY7vahLExlOEt8CHJzQEyFdZ7OLUVXeDcLZsCZlz67YoQ5lQxzNaQxtCOuZGowxDkXpKRwBedQMzcpnZDw85F7kz+m5BDkJy8VTIJZf+CBJWj9WmXnSyFlqWbOdsH5ck1Ja1dFVhbBdw9QugwNdTh0NLcByfIadFq6lPjnTGo2tm0tsP+vqZWT9OEsCRFV+aCjpbybjoSDF1X3k0NOVnB5HQ6MhMCYwu7pwlxY6PnOgfJsZUR4+SDxyFkG5K2i2ZuJRaGQlNWftPPWh6oivXl05vLTR0Czui9Nz9ZnI+uILDtRRhKTqceykTsZ9xzfTHnX0VBUfWRHwk0r2bSmfyZ9QyIDl+XXA4J1Tp9wgvoRJrhuBeiAWOifVdqmtgvEXnhBfMWUS2m+g61I+/xvanCfNr5xtGA1NopXRHwgyKvrfEUZ5Sye6jnLEtJooaYxvXHRemC+GPiIXYkoLS5SdVjJ+vITdCFNGxsOCWgDR29vgzMx2F1NSmYMhai66AOtEw5lJeqlc/oZStOoL5aKIhMbI79NLEROBFMwuyRgZzRLu9FQnlE2Maz0H0KmMH8KBEwMol/JYfvvXuHnLlUrqs0a3wDjyosgs17guX8nUed9n/q+1iSfXpzrjoSTNTHvUEP8qTnPYfiODMsy/9eEcN2e7PmYNzQ+dqWkvCPTRToW/UoqdHSPCQLbQjk+bGZf2CjKkXixy8C5LbT1fQL5MOT2jGD4MzP3mI8y5UcJ2zE5HM+y8dIemxYx7npHx6GDv9HjhehaSuQR0qbl34DryzFksadakV4YzkxYelctfgSspv0FZ7fhea/CFooTe6e08GpoyZvQ4jh5dxZWfTmGTdp58y9j+zGkcqH2M8x8soVCrYbvehsGvPo3SR+5OL6m/JrrXGnfM3XImcnMf4hOPoxnZjAeatLPtUcK/04shfq6Tu+NFxr8sZC44kW2c7zFJmtnJBdHQTspoaMw9vdCkvH79LpZbBsI4E7ledO2vYenqInI1oCaG27WCz5uxTMunrZdGRlw8I2VkPLqETo/mejNOimXdTYU4VU5QPdwXkqKh3RuUY6nPYuFmEZ0jHSIvt38AnRt3MT8ni20Mp6UP1WkcplgDUYUtJa8IP6prE3udfHkZGY8G5PTkbq2Rw+NSSyJOXLyTKg7Ez6dN0q3tPVnKQRept9T31avTIs4Ex7npGOnD5vU74lbXC2erIkONF1+2X1TnhqVeObk1vzdjkpHxACN2etJP+ZdQaliHubj5cJcqk9C+VTQhTnIotJTTv5YndqQq7SH1mWksYQDdA33oGuS4suGHmrW90mZ+kOhDI2uXJGmyy/auzYyMhwNyejztKfEvOQ6RmlkKul4zdRrSSBeXi4ZlUohoaGscDS0u/KNijx1dSJ3MWcb8tS10PjWO9oW7WCCfp6w1DiTOaSI+i9P0wq+fcsW4xbWe1qqMjIcIWjA8s8PX9Ex4TcinIEVQBUnOTpTEF6dbtQ4+dZzHaUtHQ9tM+HzeXju8QF2od+PaNLY6Kli9dhc14Zgp02f4LrB74e+T8fdA4DdBG2emjIxHDz2zPf97K1/nkSFGpZh+5Uee8aOuknKBOC0ERPI5I6XOZlHOzm2SW9tVNLSOpwLdktB+tydCSomaDsnMl+gT/1j4coPqWr98SsZqMwVN2JjxePEwzYLci6c5MJA6ExiTOXFRcGGKribqIBqV7xijH4zhmMwmeac6u/y+OmueqNNj7HHhs0BCHWinZ1d19TBmbXtfLXPDskC3fEqHr8kkmpXPeCxoas7dZ6TTY+Imc+wk1wUNupt2kaSVcxCfE1SYb6RwvjjTWV79pu3K9xtyUp0pE4NbMYKhg8XsZhVJ9TWu01N1xFPUzhSWh6Rp3qRZ+YxHmqbm2n3G/5qeCfdGp2bgRUGJF6b+4d8ISi4tphmmw2PkeZgnjvRpxP5oh9wcqc7W6SVubHRV1qFVkGwg7lFrVYmUhxnBEcvpg08T7oSZMjIeEkKndy8nLq9HsTjpRzsAnRJpKBBBOouwnjhKpUatXnccUo9LOsHU6mJQfz7EUbp+NQer1C00xW47lpHxKdF4p7cr5PfyBR+FUcmHu9D04pbPYZkl1cxCo4pSn9YRHplIe+lZJG5ApwSEk43qCmFlthZxbKmVJ/woEj3EDBUR11aSDQmoajusnZHxUBE6vU9zxgcrW5wFmM6NnU8jpIOSSYg7VUSWzqfkFCegK6Ugeg8aotVQ8mkTeVZBnJQvP8QubfJCkjjX0LVka8nteWmy2YyM+8Uud3o7WBwJuIutmcXHskLerOJWV8VhtivQJI7DS1r36X2CtlAm29bwTOCc+khslwrN8hTq/KTvXEbGfUc6vTSTNpDhA047XiKNMVQHzqwZSNy+NeQTlcSuUCe7aCfo0dB3uMGdrk4GIoseRFLnrowP20w9HqHBga4AeabzdLktY0oZ73TbqjMyHjnS7fRoXbivre0JMerEutuzhdeEIku0QV+dXV4iLKqTPgjOd4bbqz0brmbZRR8yMu4Hng8nxyDWqdwRxIkHC08J8FPqXZqpVFfxNtSw9Qgc0Wx57RK2tmMimnWq4D5p24szQWCMkCVH+XH9couMcp2fhKuOseqRgJRxJCMV014tVZGf+K+T+AOQrmbGo8nDdPWV09OTNmHyUpF2eupUEhxEa0ptTm5cE1qPT8kukCEcL+HvvpIQ0awpp+cx3tr16XLKs7I946ChIqOWVeZprSFc3apHGeFfNi5Rx0Y7UdI4QKOlRF0Zjzo7maf3i3y4YJNnrenwGF8nWYOpJSKT1AQLU+KIZmPPnwgjmrlKfA0T/JXvvjS//FGsw4tAuuv1IloPDaO91e1NAnH34pwtUkz5HhNnsczTNqTsE8lJR5kkb/Tr0+liRsauUXFvTTyzlyRCp8ePsop49KwJW4NxxrIe9SbiS0BfPCmO08S3EJBednA7/tIAvdMj6vVWDH3lKRQ++A1u3XGNDc/1UdD9YDDMOvLc1RKIarwCErcoDlOdhusG+ZFGCV8lB9l+SiuCP6Bprc54VHiYrnjjNzKshaG7ZiyF2N56CmJlQ9jJsbNj2PkFO74kUuhNT6isXieHVSnIxVwsoVCW+UKiUEKptYCcdWtL0Gm+rQWlEkvZhrFonnayHDGN/4TkyzT8nMkq+KlGuZWKrOvqZfJF2glzZU+ZhSyPStn2uKe75lPa0WZk7IbcaWen53sNTr8e5NuziBJDQyixuwXg3fFxOzFqZxd3EdHM2um10U7vFAof/gY3bw9i7Dv7sPFJHV0H25ArF1C98DHu1kdxYKxC5yXUpy/h8uu3sUWGVcYmMfxkP4rVKupk//bVc5h6fxZ1cgb5nmEceG4MLdig8zpWL86jfLSAO9+7gDUqz3UOYv9zh9Be2EKtWER99ipuvHkTmxyblvrdcvgYhp/oBtaopdIWlt//CHduhd8baFwCQp/ZV0P6SlvSREqrOvFijQmccszFynjkeJiudPJOj+audnh+2A1Sd7nH6sl4SAer9zTBTk5ENOtowf4nD3tl7i26D13oKF/DxR+/ifO/uoXckSewv+U6Lv3kLVz42RSqg6Po6yGxXBs69hew8uZbOP+Tt3Hhx5dQHRtDbyeb3omB50aA8+/i/I/fofQxNvYNoVU2QOWt6CeHV5h6n8qo7g9/i7kCOdZj7VKgMICBU21Y+us3cOnn7+Di69PID3Sj6N3xxQ8Ub8Sif7gkMtcoc8X81TIyHjrSfU6PiFssjHR9VC5ub/hZ5jeE1ic7VeFYnbXKOz0R0WzZiWjGcvHrem8Ro7OKhcsL1CTtuObnsL5Zxcq1OXm+NoPlJb7NZdFVzL75Ce5O0+6rpQWVLroN3W5DmZweenrRkbuLmcv8kRkaqfoaZs/PYJvVMz0D6KrMY+HWNgqtZRQrdaxcX0BpqAd5dmzb66iuldB6oB9lvsVeuIlbZ2aw1fB2Ug6UK+W7lt4hZTGdvMRciED+07pQGRnpSXR6iQuhEY1kSHlkF8mnlIJbWzq+8hv9ZoYstJykme4ZW6hvqkOCv8GlVtPN0qP8Ra1eRNuxoxj/yvOY/NxR7JtoR578n/BL7Mg2NkkTI42tr1fVOdFaQanQhYHTT2L8JZlGJ9uwVcuBX9HM5ZZx9+0pbPaMYPRrL2LiixPo7aeSyE7PPY/Hd3lEf5rQkXiRuUgUN6szI+PektdzUyYxS0OsU5q45rkjmh7SI36NhSAO5blweKeVw0t499aq/yDQN4IDEyUsvU63pz8/gyuvT2FFmV5f2cBmWyv4fQtNrpPOdR/WNlHdnMbNn71Lt6+/DdOvrmND7ebqc7dx+zfv4cL33sT1qSJ6XxhHW+p9epTI6HEGJfkUKc3IeGTIy+lNC0u+4GPBp+G3mDiFjBAwkgVpFvnqOYBuC2UAjhAq55w6PeeLKqLZ6+Tw6FZS6uBED44NjpZ7gGpPtB2eSoTF8pCf6c9HrlbF5ta22A0WBg6gq0uW5hbuYH6lH4PP7ENrZwXl/v04MNkF2jBKnfN3sbg1iIEjrTRcNdJWQMfTpzB+vEPuLNv2YeTLR9HZQu3Ut1Alb1rnd5P5jWWqzk5KmmYYKArkubaSkfIM/4njcpWC8dWpEaEmG84z9HiuW8ajh54NjdKDQD6Y55qdzk9vj4zMoB21QN126JyzqhzR7M2zsTu8kMi+9D5Clkxfx+277Rj++mlMfu2zODhZw9qiLEJ+A7OvfYiF+gCGnj+J4WNtWD4n3/EVtXNrmH7rErZGT2HyW8/jyLeewWD7EmanFqmMZFZmMHe3iP5XXsDkN0/jyPNdWHv/MhaNIZIjTY98EAw7n6s8hfZBsmX5rI9tDEXGoXPiR7RpJpWfkfEAkDt9+g/kfoAfzdnfzESNyPoqa+VyEfjVs0y0UCx8jb/inn04OTUeO3hXli+XUUQVVddnF/LIVWkXqLpS7zuMI8/UcO0nV4JbWAHt4PLbG6jVOC907Nwcf26w2FoQrweKN1JkEUFHMeMSQrqMZgRGHbd6qF0bLJ98kiGqzBURuI1nPI48CLNAOD1xpCZqGgdjEZGJq2TqjcoEOTHVLbs0hiw7vZ2yI6enieuuQb1eRt/Ln0Hn8hSmryyj3t6F7skxtM2cxYUP1G5O4+gze81F+jwUoyOnjnka1k92eoy/nkEgECep8h29Eq/GjMeMB2EWRD+crFeGd+IaxJb7CnxdJTlHVJy61alq4o2sR17A+aKujcff7g5Ln2rUgM84t17uQv/x/ejoKgO1TWzeuYOZ83O0JzQM1ttADZ3qlz/NZrROCddTh4SVT5Jao76u3P/A+Rn1GH2qJMWjPhM48jLDKNcCETnGlMt4XHkQZoHl9ORiUGYF81e/SC4Jprm5QPWhqOOb8VLAEnMJvJGt1zgTeJ2WmWc2krZ+k5hN6Ad97NuRck4oK7F06IKg3NBhC3oI67oipiXenTIhnCA/y1Mi1KcJXGcTtkTxt5/xePEgzAL5oQeyRK8JXgQi8bEze/WZeGZ5nSzMglBAPiYgDFBS6rBhHY2u6lZQ/dDshcPbFY59ljm+E5J3u2Qj5XS/9BDoFBDj8BguUVqCI/2k4Xkg5oIhkgi356aMjAeEvJyQMon5LO6n7NltnyWgVXmIq2+Ji4+3+FsTuWJ1R8skMfmUrR35XsGqAnWiA7wXop80fTdkYsSpgEpiC1PC9UVqoChVO7J/jdGNZmQ8uIiPrJjTVEzbICNpAid4kaRqDvFa5D5TJOW1QtmgxEhM0rnOu5c00XEx0PJQHOjjOCcVkx2B5QLZdJVkk7oiJeOQC0W5mzIyHlI8n+mXM5pfAwoXQ0h41mDmc7ErklBFFrkCoaMSR834LaHK02CCDTumSZ1yXCVWVbOASKM2zZBoPSwr/n7oY5UYbjpMcmcnf2KILcjIeLCxnB5P8XAxyMec+98TQqrJGc/iqkr4/kfYEqewFUe3ui8VufSgazRE38/yAg6SzNpzUhjETetkQRlsl29MI32NisgsftDJwM0Sx3w91c5ZJ95Jy5cODBxdTqnEkcnI2Ak8t9y015h6Y/57M342m+4pFUpV4/WhzYrXzzp0aoySInWWZkf9rh2hoy8OywYXykyjRphqDYA88XfBn9sUaVTsQTMZGZ8WvM5yp1/8w8i/wupTns+WkzMO45ZaElKffmAMhXE0FDHtMISNj9To4EDbMdHQ+rvkh5PdzU4qdlLHpIn6kZ566+rMUDo6QvToqev9WIsh6imVeHRFSCOT8cjjm0O+qRE713aI2YZweuIgZlLKbFVoyGinZ9+YNmFqpL1IhsSbHdeOKUwydFqrV8nhXU6MhnZfnN5O6xHe3it9oVo+CiX1kSynx1BQQgLeW2xDLqndhqSVy3ik8c0h39TwzrVdYLZh3956WpJZ/EjJWy5/7gne0VB2mIngr4ufXTxjJB0N7WyqaGh6cYtoaAdH0DfE32THmTpJ6vk2dE6OoLNbNlwvd2Pws4fQwd+A4qFe7kTXRA8KYQMyKcxyDkrUcWQAlYJfVyJqLPTwBAOjYI2WVruYiGTY8kTkPI2ZkYYzMu4vgdML7gb5WSdFmEU/YlVxsgr8t0ZJeMRLrRUUyvzlmHJBybUiGyhUylTeInICnAXFXzjgS2kdnqSMjsNjGDo1jJbQiIDCgVEMHx9DT29BZrCzqkXlAird6D/SR1p9UKVKF/qP9srv1su1o+fEkP09eazX0a2znGwPrpRTI7iW0T9bcbq1RjlmvM+XP8k0Ks/I+PQIlpfHB8lMT4FXlomRT8v+k5M4+OIp5CthBDReUPqblPefmlC59xK5rOuVIfTutzfC9XoJ3Qd76Z5ZZTDVJcycvYYV4+VCdgh5duBFleEgykVUtKQBU3bUa8i1kMNnWXaummJRRlWjLCmZR75E9pKMOKe/YiKSmyplOE9GastTq8rRcZ6O+FauoNwS2sPv6OZa4qKz2eeqVZUU4tCWy8i438g3MtSJl53M2bR1LDl2bmX5rcnE5dfOiO/UY4d3iBwhk/RNynsWDa3WiqGvPoHSwjraS9O48JtbqKnvl653jmLipRasz/ejePctXLu8hVpuAGO/M4SVH32AuU1yJD0HMPLZcRX1DFiZmkfr4Txu/UBFPXPLr1D5BJV//zxWc0MY+13S9YMzmKuSbMeQN0LaBjuq8RM4OjqPc7+6STbkUDr6FCaPV3H9+x9haYts7R7D5Eslavc8Vki+Mn4EwyeNSG1T53D1/Vls5wYx+t0hVM/n0HmoFZsXP8TVj1cBX3S2N2TbcqCiFzmcR1omeCDC0ozHF98s8LmLvZ4tZhtiOcfis6YJ5F9/DR27+oLGuSAnHJqOecuOrqWzLZXD21OUTVvXbmO1Zwg9bfKcdz1tB4eQu34Ly0FEH/vi1PMdGHx2FLj4Ls7/5B2c/9lZbA4MoaLLYZRzVLSfUPlgWG4SRkh7D+d+/BbO//BdK0La9q05rPV2o0OEyiiifbCC6kYnyE+K2uWhHhSm57AqhrYdHQcKWH6D9Pz4bVz80SVUx+kWvYNlmU605K7hyg/eEA7Pis72o7dx4QdOdDaPw8vIeFiw798Yns86GXiyErEdHp3TDkHkmdnq2Mza2qyKXR4z8cWnxbPe9X06KDdWncbszQp6DsmvbEexDz0HtrAwtRTa6/7F6O5DZ/4Opi/RvS7v6mrrmL0wHQYA6jHK+evlQeXndDkrM0aiexBdlTkrQtqSiJDWLSOkbcxiebEH7UNUr0TPHbO4c34JbYPdwgl27GvDCjlG+XrdKmZfDyO1lbuLyHGktm7VFpUvXZwXgYgEcdHZ9qnobE3BOt2Bysj49HBnrOP02C35J7X+X43ghyY/z3+xBnQVdSxPnckuTpUWXVcUcJHWLqltbuHy62eweHM2cHiqVSo1JfcWMs9i9cod1Ef3o62QQ2F4HzqW7mB+SRUSZh8ELRz1rAq6MxW6hLr1ahjqUZerU6ZOTl6WO31qK6NU6MYA3e4ffEmmcREhLQ9+iS2Xr2Lp1io5PfJcA91onVvA0k1yXAM9aCn1or1rHsu3+cVHtoJ2gseP4tBXn8fkyzJSW478n7BPsE239eqQMaOzfU4mEZ2NDC05drIOnQRcrBNjFWY87pjTw5wmLj65nSaX6E6PkM7FJJpjzmShnB7Es8gJsfKCA1nXXAt6bei82sYWrr/7iQwOpGDnaEvtIUqlpXnhNuZXB9B3oB29BzuxQk5w2/WMJhzVrKViRz0j5xW8n6HLDRVWudn6qoqQ9vN3cOkv3w3TX18Lvl5+8zY5OdrZ9e/rxvqdOdTX5ujWuwcdh3vJCZLTo6ETon0j2K8jtf3sfVx57UoYqU0+CfRxPYjORm3/nNrkKG2cfnUdm4E3T4k1ATIy7j+O0/PP5l3NWT3phRKpiVsJWrJOorCjk/83S0INZHeMUu2Sy21i/soC2o49gZ7KNObodi+RRbrl5KhmE23UVfpDUWhD/0R/OMgLVF6lcto1RcsdCxZUhLRJ2pXRsNXJNXZ85imMH+ukqnIcsTiD1dp+9A9vYuX2Ftm7jpU7BfQd7cX6rRnU8qplvpWuV7FZrYk/TmakNhfWnFPR2QaPqLZzJdn2cdl2/CW4FxcnI2NvUSEgo+h8b7lYGfKwMSysE2MeP/jUbt7GcqGE2tVbWBNmm/0wn2lI6su4+84UaqNP4djXn8ORrxxF4cYt6E+z5KDKx57C8W88h6NOuUkOOkLaSUx+k3R9U0VIu7ok/wCwTG4VS+TsCrTDW1kTWVjjHV9hlZxg+EX0HKntzt12HPjGC5j8Okdqq2NtgQvY9tB+hutw2zNvXEaV2/4Wtf2tpzHYuYS5qbDtKKknREbGfUX+GxrNe3PK6mXAefLYXhhCnic/PYclfOSZ+HpX4iAllXzYUDoMWTaed4P6IyvNIj6y0vWUtkQg1Efs8RloGq400KnYTbWUkavKqGZuTV0OVe5VbeotlZCvbaK2LdswWw3Q42w4pfCIi2WktgJHattUmZYWHkWF2QC3vU1tB3bKgqA5+UQYrZlqMzIeMHKnT8v/vdUYU9eZu/aZWCKUFeba5UpCLDYfkcViNqzxV5WIMvlao3Z6O4WdnkWk3SRDNDwe0pqm0ep1VXEuM7lvbuuWWAKJQ2odOA6PcZSLPy7iM3qyINHpMVQuNWdkPFgEOz1NzJyPIOSUUCirj4xFxAQC2km5UE40UxIqtxH5YXt7gretRm2o8qDuDmzxNSHy5C42UK3QYm6+i2uJJW+cWHKGclt/WqfHBWSzUdnSn5Fxn4m8hs5z1ZivXoS4M6ll0j8OWsBX5skJSDJE6Uus3wyNOn1f2KO+xRAZPX3iGYvwysnnSF2nkr7LFs+2YEbGfSXhPzJ4Eutk41kT6RCN6VWgk8JsTqe0OKp2jq/hPVGcCt0N0eIeNyt6pbunu2g2qNszuu8WWQexb2iEpBDJyPjUcT6ywpirQuOec46Wi5Yl4i4EPhd5Wo+pl1uRP3y/JF8flMfW/ZPKllgnewYvYDPtOYZO0/q4njTTQ1s2oaZZFNdHMz/zahkPIZ6PrPBE9k1mllRJOZwwRzkm6yw8DxyW66y4GSUSnoRZ8oygA/M4xJJSxNkfg7LNtDjUG+b44br0mCQSi6Nb6YnqsjN0zyI99BjBOSLbOmDksei3mYISSvRgngeYJyzET0FydHCiByWWkfFA4NnpaRKchyfbJ6knvJ7zjee+bDOiizKCHZaZBMHBDpAWhSrlj5mjU9AXldze2GfN4KnJWc0q9O26Ah3NKfNoCnEK02lutjMZGfeOBKen0Quf0ceUaJGZP2FZMsH016KNq3hEVFvCE4anNtySmVw4T+vQSWZ5k0WozyySub62fOiaEeUG8boSWwk8s05pkHb4rIm1MMF0LhLF4UNGxgNB6PT4/41EUucRZAE/yiO6ldHyYWa4xKyD4ESiZC0MHXygT32iEX2RRa7Lk7T4NSdj6laQGruFZvQq2UgVTzsKf64iGIdmkQaIR36gxH8DGiOvk000L5WqjIxPidzpF//AWSV6ivICUoc6j57YzzG6yJzQcr0FlaxDjVxMZi2C5SxFwUMDqFLsInfa0Kdp1BqISGqr8ZHUgi8gDexw2m0Gb7+j+jjH240dOTzGcFROc1qllW02QwL61OcCA3ZqWkbGHuNxegZmibEqxKGnlsgKHyxk9YRFYRJUN/Xouk5eo4UuqjntNqii0Q4vMZKacnpCpbAlZR99SCXiMKQJfffQ6TFBkdlMA6cXlO3UtIyMPSZwenq6Np6bxtRuJGyWm+vBqqdPDIGgPE6Bn1JrGfufnMCN989Hv3SUq+uvOndI+hc2dnZxgYW009NW8pd3th3ah1Y3NsbWEhYuLSR/LZV3TJjG/Q5owunVS90YeroPa2cuYnmd21DX1WnOVSmKzTxxzA9+O4MSR09Gxv1COD05XfWklbMzaY4Gbm+nE9mqxyfGgomUaQyZGEQAIRVj44r325b9Onb1ZQVmfI16G4a+8hQ6lm9jdVVlMpuLmP5kJt7pqW5WJo5hMHcN1y5wZWdc0pLS8dWLXRh8qhfrH11WTo+hK2s0KTQ56kSxmRcINbDV0ZORcb/gsFhyvuqkcLPNJFCTmJ/MFEdQTxHWMUuStOj8sGaYJOzkrrwuY2xwVDV2ggLTeDPtCWH7UmUda1cu4fYHl8N0jgPwUGmhgHwQWYxuC/nrikuUx3Fui0UU2zpQ6WgR0cnM20H+DF2uEo1KFkQ8o7x6oYhSm9piclvCe6mUV2WmQ+Qobh9eC76SipHtlFEMg9EJZDt5Ub+Wc3RxE0HPMzIefHKnX3J3egbBLHans/0P5XZ5sA8M0OemOrsGE+ZY6ykVtqS143udd3xBlIoo1NbuIqlx4CLVPu30Br9CzvaD13DrTtT6eut+jH9xEKt//R5mlimjcxSHPteDhV+cwdroKRw4TE4Pm9hYp53hr89jiaOrcVSyzzpRyd7SUckGMPq7Q9g4u4WOsXYUWivILd/Atb++gjWOiEZ9azl0DMNPdCO3toVcaQtL73+IO7e2qNsDGPvuPhl5jdvpGsIBbodkaoUS6nPXqJ3rWGc9Qpba+ZDaORi2c/0X1A5/3RW1o69etNcKLZCRcZ+hP988TfVUdWZmUCQPuFQmfaRLzJ8ovD5ZOiijg/A2irXJ0kCrKtPncSnELtne2MT1dz4Wu6b9T0xQFuXrpOX4SRAc7AKpU/ej2NWN1v4uSp0itbRzh6hs9QZuna+h99Q+FGol9J48gNq5c5hdqWP9kzO4ObWJzevncekv2eFxjRb0kyMqXH0P53/yFi786F3Mc1Syo+3hWKIT7cUbuPLTt6n8QywWhjE0Tk6JTckPYOBUG5b++g1c/Pk7uPD6XRQGZGAhMRwkIp/bMCDaOYMLP+ToZ+9iunYAIye7pYCgE22lG7j8k7dx/oeynYFDHKKcfkJjpE7x4+LPzcjwwVNqp6kR4nN6cqLKFI9d6jYQW1cLqWezjnR8MidSn7N18mIK2IK80xt59jg2ltdx66OLPhH7eE/JoWVkDIMnOI2L1L+vRZZQhzcvXsBsaQz7n51Eb4Gc4MV1kR9ijISOiHZzW3zpaLFcx/INjohmRiVbxdKVJXI8pKO6iIXbmyh1tsqi7XVU10poPdAPumsFFm7h5pkZESdXIw57BtBZuovpC6uiLFffxOLZ26gdGIDSRDjt3NpEWbSjdAUq2S7PHz/KEG2Zn+3MyLgP8As19KQTPxo/lCXXFp85GAvHi29i07mrR6pJ1sVOQTgGI/FTlJy6tVWxcsWtLb+ZwcJuYiK92gNqWD77PqZ+dYbSByJdv2i8cIY1zF1aRsdoD9Yv3aCbWW2Lh9YwIto4R0OjNDrBEdFyCF9220bNuHuvb3GsDLlrzuWWcfftKWz2jGD0ay9i4osT6OsXgXLlMMoqsp31DWyq4RBPyxuolirQL4uKiGlGiJAat+N+R4849Ti8CNzCvRj7jIzGhP+RoeehmdSBODQJymOImfWiiqcsXID8GCb9ozFLBdYJ7/CKMQ7PR1IHdoLZjmOYQJ3nOzEw2YmVW4toOzKGimNH0F/KDqKS6YhoHJmMni//6jo2WM6sysc6GdTnbuP2b+j2+Htv4vpUEb0vHERbeNUlq3RbzfFwzXdPOltQqm4g8ga4hdtHyolmZWQ8UKjX9Ah+SjNh1bpQe0Hxw8RW1QvRTD5IgTZBJx+WCuckl8+jurouYuaGH1dxGzQq8dOerFKtQ1nOT/z9NWYi+F3QliMT6Fm/iptvnsP0xn4cONZO+bK8tr2FYleHjC3LalRUMo6eliOZek5GRBs73oEan4taEj7WSVNv24fRLx8l/0W59S1UV6qoF0v8JrLNwl0sVQcwcLSd5GrUTgU9J4aQuzZN+9KdYdohz9TYWCkj49NH3KCEeyo6S5qP9ky2MeuwnE7NkNS2whJxZKtrG5h66yPD4Wkcg3ZiWyyuwTn0Pv8ynvh2mE58fRKt1GCucwT7D9cwc+YmtnNbmDtzHbWJIxjoJh3kfDembmChMIyJ7zyF3grfguqIaKcw+c3nw4hoIioZt6U7EdOZlRnM3S1i4JUXqO5pHH2+C2vvX8YiRyM3EJHX3riE6vApHH31eUpPo7d2HdfPLgi7mkH5b4F0ywkD3ZzqjIw9IXf6pT8033xTE1Xhm6+RPOEq5QSOVKWFu9OZ7Ws7johsisosohb07MLOP5zc7wQVMhc9Y41tGrNIKFegDfjWtrJPaRAR0TZkRLTgipkKzZZseIdZbC2gtk47Pa+c1CPa5ohp9U1sb7n3wDEEnVJ66ZSPlEajtRj7zC5kZChiZksqGk0p4fTkoUdULC45cd1SGSQmSiinj6Tb82gXeLXECTfCqmecmPlBg2HL7PR2SiOnZ5GiX8FYBQ/eETJ0Jcg0RaAwhjg7zHp0rSNqdEaCjY2aznjs2M2MbjiTpdMzxPiQWxRZ6fdp4dw3dKWsHUipqtqEpjGbNpW5uLdsQsYVtGXS2hNxer7205Km7m70R2ikLGncZJl43IlNe9qPjIedtOvNR6OppO5h2LnJH4FZi7PiUgS7YqyYg6hFD/ysNZiaTEyZAG8mofJ0cShiCItDoyQQNGQInR2b6GFPHV4C1rimHeSAJKOaUhQRt2xqhns0ThkZPoIXbnjecZKfh+MDzo1BCyvCxa4rysqOWIClWgjxK4mhZKjBRrzLqRIf86G3AQFpEH0h58tPMkei64m6hoJYXSYkFNghT2W98ETaFhQ4jTMqPwFRhR7MavrY0LwDLEM8iJZjUhTxGUrxY9CMcTvvSMZjhp73ZtoJkVerA+cjngzHYibjUJQ3SbSKXFTB0goObIRD3hFUL01VLRYrS5ZbxosRUEniHY9IXhpjJD51nyZsqU4+0toXe+nSD0VGxq7h6ZbiLTqe1mHSP2J1m7uZnaImfTD3m1wE6VsnxWLl6aQx8yh5ZRjub3DUfK+brOBro+k295DYtqlA2ypkYgXV0PqIy8/IuAf4nZ4zca1JvWs8Wkwf06Cx4N/RdrpSdlhN4NT1maotM/atipgOfeo0Z4fbPwvPtraR9kTHF1eWkbGH+J1eU5Nvj2aqWi16kSUtHrE+gmYbSe8VYT/dHlvn2ilzpk7KPrFDttg7u0Uze0qcbZxPyXJ4Ok8fx+O9/dckV83I2BMiTs95SVoQrF0TY3HrQ0/V1PB8t+e8uo1OQDanG/00VozqqPwNWpbYOdFyH4aEfrkg0StI4vQ2bk+TdqxcubT1osR2jfN0ysj4FHCcnjHzxArihzCZDtEsaQ5PjdgJ30A7FUsJLZdi9ezJ4goaDlp2sZthKXv8Ioi/GorAAapzD1JjmLRq9ZSCnQyE0aJpb5AvSa15JyZkZOySyE4vze7KnO6auFpx8gHiz78vNainCYRMaVnfIlTbHLH1GvZMIKTSiXrwG7yTbkh2XtOL5fiI4FTv0uPaSyrLyLi3GP+GxvgOE/cngkDUM4/NupFi7/2OTePWCcMAPpQ1jHqi3GzLr3OzOoeN6ryIcVurb6NYaEGl1Cdqrq5fl0IG3e1HUMjLLwhlnW40tNzWBjaWVrA2t0r6ZJu1GskcHgBu3cRaEJBHQy11DqBvqKLOGUNmbRaz11YpS+b5ehEd0kiGg08Lo+vFlStc9Z5ryhrqxR4MPtuL9fd19DXONHTrw0bmEnUewyP70LJyF3O3N1VuSD3Xhs6jvcjduYGleZoTxW7Z9plLWF6L9qde6kTPwQJWPpnDlvsdgYRZXgXpPtGO6vm72KhFZTP2Bt/I+qZGWjkNy6d49zbFLGRSOTDTSFs+suHbK4SucN8hU7SBFXJqLcPr+OL/6TT+t3/6n+F/96f/Ob71330V5X2r2Nicxmf+8DP4xv/1G2jpbMEf/5s/RsdAB9Vyv6OpjI7Do+juLaHUWkKxrx99T53CxBcm0dkhv9hTyoygq12cONDocICfFqrPaWg/hg51h+elMLZk7MX2FTSNOT7RsbKIaa8yeRyjR9rEsby2NfqlJHIMuH7TNpfRPjmGoWcOoMVjX2F0FMNPjqG7T10fMqBeoxTXlUo3eo/1GV/M6mCW59vR/eQQWt1Ln/HQ4Dg9PQPtxE5C/vAS0EeauviuN33spkDWUMkbFfEKlzgQJ3LzYiRRLk4Y0sIT10hiBoukRAS6jq7HWAIB0i5ZtlldQPsw8O1//G2MPzeOqTem8OFffCgWCots1zbQ0tVCuzb5zKwvraO6vSSOpSatr461qUu4feYy7rz7Mab+6h1cn27DvmdH5Zd0mqYVSyjTtlCOHydi/jZufXAZt6j+3RtrtLubw13aoYioauLr2vPItRREe/VyhZyhoZBU5NtaUCpzntRpRUyLREULRziMmFZTGVwiS3m8hV6OxmZCaniMci1kB7cp9NJzgRx+ewcq9AdCRHZjOzaXMPP+NaysSDG2qybqljkQnEWddlDCZnZU2i6+FhZU1jKEngP2FK7XSug63EvyKoOpLmH2zDUrLCd3M99Wod28ynBoVG4SjAGPj2kn/QHLG/X52uU5qpySCfoprpVEtmuPtTkeKFVQNq55bNsxJMrHjvWnD1vgJh9p5UwKI6NP/CN1nAAPsh5o+Wwsl1jCWvSoxN1aQblTYusPjzlflkXr2KjuK7E4ac5b27iFF/7os+g71If3/t17eO3/+xo5nls497NzWF9Yx/BTw+Kr1gvlAiodFew7sQ8LNxdw58JVtFaGpCJBCe2H9yF/9zqWV7WVNVSnV1E8PIn2tWtYWqZdyuFBFLbKGHj6ELpHhzE02YPc4hxW1+RlE3bSQ65nEANda5i5ukwLRlmfG8DoqwfRUtiHA8+OoLU+j4WZKipjkxj73FH0D/eh+xjtciqrWLy9RvVI/tuHUKn1Yd/TY+g9Ok4yBaxdXxBfO88OqOXwMYy/RLbsG0TfsSGUVmewsswOkzY540cw/rJPL/WvYxAHvnAS+ycG0EV6e/prWLuxhNKxJ7F/vBXljk50DLdh69ocNupkx3cPoXDxDtZr5Lg7hzD8yknso1t9WbeO9ZuLwibu48h3D0qb6Y9F73GyeYRsvjqPLb4lrtM4H+nD1t012nHnMH/FGJ+uYRw4WsXKTCvyKzexOEdeROnLX7xLbZPdvQcw8uWTGDzYi+7J/ahsb6LUl5O3t9yvhPJqrh1dfHt7TumiMdgv+tFPt9SjwRhs0wXMHzyGI6eKmLssY4uUj53CkZd6sXlhGpvcj+4xHP5yHzbPzWGTdFUO0jX8Ao31KI31iTF0taxi6SaNdV7a30rXfP8LdM1r81icria27UPLi+tFY9ozIOW3tnNomaQ58PIhdO2nOXB8EKWVWZoD5l+OR4fo7a34a61THOag0rH8DXLlsc6hpAsIn1YhJcRCQVpy6kgi5rSbLEy7I7Xpl1O0Gsttba9h6IR0Xhd+cUE8m4w9R85irBedg504+OJBbFe3cfhzh0llOHwRc4jAmtoSVhfopowcpoR2I/tquPWXb+HCT1/H+Y+r6H6WJzVLsyYeCfoJlNq94chkrbiGKz9+A1c/4df42tC+v4CVN9/C+Z+8jQs/voTq+Dh6+Q5c0Im24jVc/gmVq0hmgweVLQUdMe11XPw51X19mrJ6UOB5QHo7DhSw/MabOP9jjrbGemksSG+dLOh/4RCKV8/g3A9I7/ffw2JpHAeOtWH97AdhZLefXsDSluyThPd9bRg4fRCFK2dw4Qek93sy+trwqW5jl9GJ9tINXOHobLTrFjYfNl/rpB341G2s9u5Dj+on72LaDg8hd/UWlo14HiZ1dGDg+VHg3LvU7jvU/llUh4agNTcqN+Ex6HuRHPnl93Hh+2/j4vd+K6LV7T8uX7vYvj6Htd5u6gfbVkT7vgqqG/SHYL8ci/IBGue781hl31Kga0h/jFZepzlBui58n8b64Bh6uoQo0YmWHF3zv6Brfna1YdsuWr44dQbnv0dt/EV4vVCkOfAUzYG/egOXfvIOLv56GvmhbhQfgB3fvYBWLXesUedSyKh5LReqnuAeklRx/di60hFYJDTDyGZMIdFABH7Tgl+rY9bmo1+Q/tqfvobFW4t4/z+8jw///EPMX5vHj//Jj6mvdCvgV2n1kQPobFe36K6PQ5JJli9dEzFl+RZ/69o1LFT70dVPBV5lLrQDuDRPt9dSOEfnc29+grszW3Tr0oJKF9m13YYy+RDJKpZpN8QXJ2dFMiO2V42IaaRv4aaImMbByVnv7Osf4+40eRDW223o7aHdQmka0+fkGys5+sMx/YvXcPljPpeqmeDQ7FcP7UxU9DWxY+Toax/eRm3Eib52iXZI/MbClrS51BGWCqozmLtWRvfhTuHwUKQd0tgWFqleLL196Mzfwcz5dZr93PY6Zj+ZRhBbqVG5CY9BhXZdN7dRbCvTnWcdy9cWUNrXgzzbs0G7pcUe6eRKPWjvmMPdc0toHexWTrANqzfnVDt0DX9D1/AOtdTaQmNcpDGlse5UbfF4XKCdLu+EmUZtu6jrNcPXh9vj6/VXdL3IgWJLRc0b7UeZX7hcvIlb781439R5FDB2ep6BEsTlm/DgGMk8ZViFTo0Q1XXFFMSIso6oHjLAY0M+VxCv0TFtvfLFd5Ov/zdfR89oD578zpN46m88RbcAXXjxj14U9ZTBflRb/JpMpa2EzeBFpS2aZ+atwwa2NgootqjL0bD726RTHRLiXeNjR3Hwy89jgm5x9020I09rJ+z/Nmrkt3TXdcQ0JpdbURHTRiMR04Te48dw8KvPY5JucUO9RGsFpQ2yW2iRKI3iWSdGPwuoi7l2qru+SbeqKo9ZkdHXxKITeKK8FSxNRB2rdLtcPziENroUhfF96Fi4g7lFVeyDX0PcqFp219eq1JqiUbkJj0GhC/2fexKjn1fpaBitLpev0u3pKtr2dSNHjq5ldh5LNxawRbuollIvOrrp/Ka8kOId6RN0Db9J1/CLNNZH2pHjsQ5WqB2NrlHbEVh+ncZYnTJyNOl65Zdx902aA70jGP0WzYEvTaB3gLT4nOcjgOH0GLeT+tycws3COkK98iz88UJNmQ6robxA26iTiapN1bWGUDKHYqEVd87eEflHv3JUPJtc+vUl2qUVcOW1K1i6u4S5q3O4+tZVchi089G4TWq4wc4D6O5dweqMnrX8grHxCjdaUGrZxrblCDW+/oSw+nrfCPZPlLD4Jt0W/fwMrrw+hZXEKGY29blbTsS0cbSzc+ofwQHSu/Qa6f3ZGUy9ZuhdowVEu78izyBtHq1Q/qb7APMjKSbs4PjFdLO4Q0Zf22zCbsH8bSysDKB3tB09hzqxcukOakk7FI4wxw7AsDNHO6XgSjYqN1HR6m796F1c/slvw/SL69hQNmzemMf2YA/69ndj/fY86qtzWNmm3d+RHuEEg/EcoGt4hMb613Sr+mMa67+msY5+GickRdsWfL1oB2n2S7yxos7rs7dx+1fv4cKf0xy4QnPg9Lj4Q/IoYk5RImGy7ATlZGSSP/IsBbGmeHSwrC8phLSvWd7t0G+53Ivf/rvfYntzG6d+7xRe+T++gmf/1rPi3dyuA1248psr4hb14i8uYm2Obgsu0G3dR3SbUhnUigz9rJNO+KnSgpbhMYydHkXu8mXM0h2mpv3QOFpL0hFXDo6huzCDhRlV2CxkW65WxeZGjfTVURg4gK7gtSAyRBEehdTb9mP0y8f8EdP41pP1VkO93Vrv/DQWNwcweLSTukv9KLRh8JUXMHpEvvolIrv1tKOovj/eanthWkRf6z/G0deoLkdfO8mvxTUffS2X38T8xQW0PfkEelqmMX/DuycLmZ/FcnUQ/bQr4p0M291/rD9cCI3KTXS0umNtNE4kS66x4+lTGDvRIW+3GbqoK7V96BvdxOotjhW8juXbBfQe7cX6zdnQQZvXkOoWhmisg5cnPDRou14roHVihK6X0q+u18Bxul5cztfrS3S9jlZQb99Hu3wVNY+uWzAHvJ1++DG6pQZHOAIjeZZKNMcDr6HQE8TCMiwlnx15aqixhsYIexOMLpe6sXID+Is/+QtceeOKeOPixKsnsEC3IvzurX69b31xHZXOingu0KQpUorC0dA+jxO/8xKOvfIk9h9qxcbZ3+LKWbrnEuPJbNBucRtDHKXs66dxeDKP2XeuYE2/XtMs09dx+247hr/xAia/9lkcnKxhbYHyWV2g0joRiJyYiGkLtAOpa73fJL1f/yzGSS+/ISPrcqS2i9gcfgJHXn0OR3/nFDrWruD2OfkywcYVFdntu6dEZDcTUfc1jr52Eke+/RwlGX3txoek3LdLaUDt2m0s50uoXbmFtbjdpSKHZUzTTrh28Ckc+w61/c2jKFy7BWl143IT7sfMa5dRHTuJCZKd/J2nMdBJdwJXlsQfSSGTX8UyObvC2jyW1asb67fmyKmsYfWmsZW7cx137rTjwLdfwMS3aKyPqGsYQ+O2+QPao+jeL+eulL+I6sgTmPxd6td31PX6hHq2RHPgThH9X6Hr/DunceQ0zYH3OGqeqPrIkTv9uT8UviZuqojp6vE88fJK2FMnHtYmK5i3tQzvhExlbnkiQTXHndKJ0BI+CMR/ZGzK/8jgGuzUykW6ZVonj+jQ3joi/lsjgHcs9BS1Lt7eer7AH9XD1hrvABw5y+DG8F/3fJlvw6qoqskaaTlGJ2dHI6ZJYfEZPaGXdgCeRcDluXIFhe1N8bqhCdskIrtt02174PBDRN1KGXlRV5U32e+dwq+JFui2FRsbtKHz2NagPAJdyHyN+rHTP1yEuIY0HoV6FVvmi4qNiGmbZ2SOXzEx5pa4JpUKiiTPAfdM+LXnQnsBdZ4Dafr8kJJ7kZ2eiW/SUZ4v2zcsYun7hAW6hivA+ZwXdWnS6fnbaojVjDwRj0a+fkE/FUE9fWDUVU6PiWr0t6H7phFS/ODkp8Kny4dHt785X26MViVqlfqVNman9TIyUqJi79twnkj0wH+N5XK2JRPXpr41psRORboyvSR8tbgh9WwQtktJq9Bq0mDJyhPxqPVY5WnRNhr6GNHP5jCGSSSBPQRUoJKJvDAyaRwZV01zxNXmfJ0UzqE+lc/mY8aO8F3/jF3hfQUlzHOnq33ur+vJpawwl490MhCnTh6fC1E3vwmcqrtfgMIgeaQOgybM472CDX7gvEa6XkqzHzjjMx5zvO/PJE9Wzk+eyHpJNF4aO3QRu/AsXNVMuyIyDLvUmrbqbv4I7ApP/2JM4f+7uF9WPnIkL7eMJok4PTm+zY8y1zCTO+HjXxdttDRiV1WYGhHImMIJla3bR05+RCmLyVNCH2ndPv2iljz0YVbzVddox2fe4gY0aKMhSQ17iIhT202qyIhhN5cxwws5PXdUdzbK5hyPm+86n591kthnPhKtiqluZVsHHuEA65XEEHFillilBJ27WYKkthrg1WdgOr5GskwamYCo3Y1GrlF5RsaDgHgjQ7xVQQuHU2Pip3ajSd/MmovKCivVcTpk3xphS4iz1CtXt0BJq0ld10ZXf3ChjqkLbHZRH4d33HZP5Fnz1y4j417hfU0vQE3yMNGDPm4CMd2NOZ80/bmsUblAC6oUvsscgygyKgSJ0c/cNfVus7efCR3XRaGqGLyK7ZyGOtJhqWlGJxnjtZJ1ePQ06E3AHnUrI2NXJDg9Pe11UqiJn3YCx8kpNTtAOjf3RxOeO9pFF4x+EEk2KNcnjmyiYxEocUV3QNo71YDImxpN1Y6g/65FMUc5ieRB2J11GRm7x+P0gr1OkEJ4yurUxAQWt812XRexdimZ7XIK0Wfq2S604CLZitOWqJNQMYIpG7XfyrGLHkoaj4z3z0ksOxqOZi7PowD3V6eMT4WI09POx7wI8vDeXxXRgm5bJZFnILPVT2CskUc/8kzmRhDFpszOFqf78ueOFrgHadneoe3iZ3GcUnl8f+ySODl/PufqlMBeDsDDQoMhydg75P/e8ojrQWeHII7jrkLoLARKjJ/i5mqiOgO3vqxiNMAEQo4dDMmwGOfr54ZovYT5v7dBNLSyioa25omG1jGJQl5/sWUO4oshjWhomvrWEhYuL4gv5kyFYVMq+PXMekl8a3D+znWsrKoRUHoqwyNo3biNhdlt4ayTrIg27TOGxl41USt3oHusgJXz/FXubeg81o7qBRUpLKjq06HtCK0R3983oaKc3VH/jE9VubZoLotylrEHqJ0eXWS+zvpai2czg3HPFZTln9IOnqo24a2TTik1h6g2mqqlurVCTq3lgCca2lCaaGi6cxz/YhRdvSUUORqaSqWy99vY9g7hgcromBhFZ/BNuyHlEY6HUJLjQqJ78b/k4hqxnko3+o/2U+tEvh09TwyBY8tEkX+kzBRFRTl7tkGUs3417uzs+WuS4i54FuUsw4Nxe+tMw+A0fooKUniYQAM98PrUKarWVRYRuCc0jIa2HRMNbcv4grwAGQ3tDkcv43SG0rlZscszI5OJqFYVT56IZCb11Os18S0kBWfV+vTYUL56lEdRxJdvuFG3SC9HL2O90chpIZzFkcLEd+41uEbim1RaqJ0gWppE9kHpL5sRvqjtyhB6huXU1DVqWZSzRBLlH6AoZw8ChZGxE/8onLjhoDOBg+JjIwU4Y2iVeXDLxXlsJaeAT4MKdpl5JpypwpaKZ219L6KhUWscpYtvMVU0tIjHyQ9g9JsqktkzKpLZXLeTNyeim4loYS+dwv7DA+ieoJ1aXx3rd8JoYZGIaNNA+4Rqe0W1p6iMjKFt4xbmZ7aEj6mMT2LciJzWVVnFkoqcNvJtFYXs6VEVOS2Ptes6NgMt0p5hjH7xJAbHetFzeD8qWzJS2PJ5GSms+7i8RVzfJlmOlkay+w71o+vIqOjDKkff4rHitn5XRfh6zujDpIpy1p/D/FQW5SyLcrb3qJ2eXp3hKrWG1z/WAndd32vYFDftlr2IhhaSQ7GzG619XWjtl6mFv3s9oBOtHNXqJ29gioPqWHmvY+qTVdrMtGHg2UMoXHtfRCE7/8N3MVOnBftkNw24HvEwIhrXkQOh2h6gdim1qUSbxbAeRzjbX8Dym2/hghHhTEcUY71txRuQkdM+wGJhhJwE725pV5rrwOBzozRI7+L8j8iuH3+ETTNSmDEZRLS009SHK9QHjmj2/XcxVxjFAXKK4TVTEb6+JyN8aYIoZyqwF+9irChnnkmXRTnLopylxVm1CS7EKeI15A4dn7tp58h/WKe/ueIx0TYHc7eXhlptp9HQOOi2Rh/RX1faWQ0eD1P/kNQtsSOZSZy87gEZLeyiihaGTSycvY3afjdamBkRTT62jFKbJ8ZlekIm8TqfGhSOujX7xie4O70lIpxx1C0d4Uz2gPSKoOIkb0ROE7V7ZKSw6YvrQp+IFHaOI4Xpqx2Oho7WtXBrm26tyihW6li5voDSUI/4enkJtWVG+NJwlLMbKsoZyxb70DO2hQWOjqZEImRRzmR7j3GUs7SQ0+MBiA5CZHhjZ9veQ5dO/Gh8R41IL0mDkN9pNDSawEombLGG5bMc2OWDIF2/FO5iyMPQwlCHATqPdPBvK032jQ26VRKFklUZLaxCk1e25NNDbX9Ebf+S2v2lfv4A00bsjSBy2leex4Qb4UzAUbfChmtG5DSQXcX1qhVRi79lV3wBrzs/VLSugRefxOjnnqRbrJMYPRJG65Livj4wdBt8/g7q40Nooxmqo5zNZ1HOorB8FuWsKfJihCiFkz5E7OZ04nMjNSa9pIlwdsom0yjndE8p7Coa2l5bRrrWNrFZoV2BVsvP7TJaGK3b3eFEOLtiRjhLQFzJVRkpLLCLCCKFOUOQ09G6fvouLv/st2H65Q1saCeaxKKMctY30o5eFeVsO2mH0iiKWaNykxSRxrIoZw8vwVCF7kk7q6TEuOfJ+KSDY7qWYm/Hi8G9rp7rnITbhkbn1YMfOiZvzqlMf52bjoZ21oyGZqL6ICKiGakZlmS0sIEj/EIb2ZivoPfEEHI3p+H5OJoHX3ucx7bQODsRzmTkNFVu4TS2ICOFDdCOjUXr+Tb0H9GRwtT1k4dhtC6SFdHSyL10fEZF6+K/ogHyWrjkcpuYvxRGOZvLopyJ+lmUs90jux/MOmP6+WZiQGIhYZe70nxu5fEicNaXRVKZQajTbtE+UxgLr1zqwsqN+g6jobEeM3E0tJfxxLfDdOLrk2i1FnoyuTo51ncuoXrgJI5+4zkc/bqMFnb97AJ7AyW1A9iE6WtWhLMgclqEaDu5Ot0uvT2F2vhTOP4ttuuYihTGf7Jscrk1zLyuonW9+hwmX1XRuqaWqMxddby4o4goZ4UsylkW5WxvyZ3+3B9E55uZwzsDenLXbJjnm66MnqS+cl1mEspFl5AHj9owq04LVOqQeYawp57u4+bmHN0+0m3LloqGVmwjh0i3VqtJ0dC0QsdmXzuxuMLKdhrgXLmMQm0T29YbFlymDsy6os+hA7EsokzOFxJU2Y2cFsWqbcFtF1plpDD+vJ3Wa6GNIOol2l1wxDP3DQtlk4mv1bCvSVZJ+DXCLMqZylQ8LlHO0uI4PT0gOkueB8NkSAaH5oy0cHWZ+Afen5uAzx59ZF1cxwafSdR6pP0EFdF+e6z3trMLWJ9uJtCtDsQTF5qNGjZZ9rq2mmUaT38suI5fRt/NJ7WocYfRJ9eM08vIaIR8I0NAB/wrnjhTFshHRZhN8EykZAlovJkKf1lSjUbINaHs0YcWjvaYxkIN6khnyEyDMCNSdK+x7PG1zp3TySC4LfZ13iOfCt2+NopS5I+BzDckrJSm2STLMzKaJS+mkvR0IerUzGKCieqihYUet1ZQqNK9wLAqOHQtTdt+uECjOhSUHcrEkFjokHpodKtxrTdotGEbjQzR+s12jGM+NKrLw+RGRYv0kCyVkbF3WK8omxOP5693atNf8jBfTFnjR+XogxgSiprGtNFHYFOQ1JHpnOnYt/DkGMjHELP/GrfmDklSE9lB2YRWGnI+fZznpgjeTILzXTsMWXFID/yssuUTP0bt17m6RFXJyLinWE4vmJbiQE5Hc1IKlIPYDZa+XROvLc5Mzhdloi/SDQrogM/MevLYzLHP7JIQPW7N9FXo8ioMtTSls5nGm4YN5eQ2os7Fk1kW7ZhV09vvqPaMjN3ifnZA4E40cz6GxzGzNAJrux9Tt7F98RLS8fnLKVf+qvKolOhtNLshuxmlJHv2lrClWMSuVP/BlI+pSFB7r3uV8fjgdXoh9q5nd+xmScvFIxdQA5TBYje6E+MjdXxKKI8bSNry7q67UVRT/ORttZE9gkblu0T5N/W0Y3ZbPyMjiQZOLwp/xivp5SVrwkbWWPx01k6NfzS+PD9OQ+Zps+u8UVMuhv5mqwZwRTNFaKITLJokntjOLml2rD3cC7MyMkzI6dkrIHHSBd4uWifMCfPT4q6VdI6OoIrha3B7sOICZOvN96f5vqeH++dLMcQVmflhJx2a6Ydji3GYzL0cq4yMeGJ2euGEDB0QJTGhzVmt8q3EuOcS6aCkk7K18NdIuSVxyUFlmxJSDxE1oSG6txqpooES1ZxuV9hADyKJnFCP/tk7RGvyMBXUtq7ireqzTVrvw66uFDbonpSyr3YijVVmZKTGcHpqYnvvXZ3pac1S68QmxUyVWqWORuKxLamKKZprSOAwmyWumsrfodaQveicoJElXM6JG9SJkfV0qSkVRco2TZN9NK3LyEhLitf04iawnvaMI7OD2dhIvNEy0rsnS0+jSg78v7dLK5cwv3gWcwsfYGn5Ajb4/3EpzS68H0n8jctme4XBA+gdEiFyLOr1AlrHR9AZfFuutNNNtXorOiYHUMlTb0Skr0PoqFAJFzrUy53omuhBwfkjVW/tRd8RqSM1KcdJiKWRbSDYyDL+zr/WwyNiLH1aOCpaxzEazx5ZWqOxGniBxqrVr5mjnnUf6Yn9xmCzvF6ja3CsyfHLeKho+o2MAJ5v1ow0TiL5MskbO55MOjVPXE1zh2aV6+YbsLIaRkP7z41oaJWkaGg5+4vJtgsdGHjyACru4moZxMDJXpS2jHx2Vm5CG7qPD6GVX2ml8xrr4WwfHIXsSJ+MQqbgOm0TExg6Pon+/U1+aVqKMRKmxNnjIsadHqyXQ0JYjU7liWMY4a+rCsTK5PztqGhCjUJHRevpU32kfouvXYqzLYuKlmFgOz1r0kQnqg9byjhTh+GcD5VHmqGkxGOJm88m2vE11hX+MDuNhra1tSSOtW31O3exXOxHN3/5ikFxuB9tc9NYXAkt4zr59hYUjehYIVRaXcTsR1exYnz3ES/qfGuFg3FFESu+G10Hapi/uojO0X7xPXYu4ptbKpVIdDJuUpRxRC23jBCR2VrKyJNn4JIg1WnUKwWrLY6kRr/ymMtbyINQeSTCGj9RZ4rtHah0tIhIbKEekjeiomnqMVHRZh60qGg8hDwjue/iOxVJQOTJ617iCHacR2RR0T5dCiNjT/wjdRxcBOvPqnEYwTt2XEEl0qPPfIhSozBJNlgoyjZLzqgoW/SjnZwLR0M7vZNoaOevorVFBhQSrdbXUGsbQX/nCuZuk7ciW+u1MnpPHgSuncfCErVPTqAydgRjLx3FADnDnqPj6Gpdw+IdvlWmnd6xDlQv3MFajSOecYCYu3RM85WjkH1eRSE7pCJ59eawfEFG+hI27KMdUN8ybr29iPLJQeSvyqhkmlznIA587qSIsNZ1ZFxG2bq1hG12TF1U9rIqI5t6+utYu7moyoYw/LKKzDapIrPdXsAWOx6OzPbtg8JO3VbrE09jbJDGgAN2q3IRYe2ZUdpRjaN/pIC1q2Q3LfaWY09g/3gryh2d6Bhuxda1WWzQmDUbFW30QYyK1jOGw6/0YfP8nDgXUdE+r6KiHVdR6LKoaJ866s8oD6IaSD25jKy0aHFd1awefKtuHEnFxi4iEbfRlGzvUTQ07uPy1WlgP+3sdFE7TcCOOSzcUF+klpfRyFbeegvnf/o2Lvz0ErZGxtDXSfX5W3aFkNuJTgw+OwpcfAfnf/I2zv/sLDYH7EhedbqUnWMDqN64i43qDBZnO9E1EkqI6GSfPYTitTM49yNq+0fvYbE4jgOTbWHZVSr7IUdBUxG1jrZTWTsGqKxAZRzV7Pz3VWS2kz3prwtHWCvdwGWO7PaDD7FYGMbgIWnb+tkPcHNqE5vXz+PSTy9geSvseyQqGv1YUdE8PDBR0WhoyvtUVDS2NdeG9gNZVLQHAVqa5gJzFxvR5Lh4NIQ4hUJ1on4ujAoktsHECvgLdh4NTQYGMrXmFu5gsUqOblDmVkYGULozjSXl83JYxexbn+DuDGW0tKDSRbcbVnQskqGq2v2J3usoZJd495hHrraOWdpNWN9HWeqnNmnHeG2N6tewdG0OrWNDKGnH1E02laYxfZ7uAamB3NYapn/1Gi5z+Ehf2S+pjCNs9dAugyOzXXAisx3QkdkSL6CCdjRqNxRGWONvnfYTjKcbFa1AO6SxLSxmUdGkjEkWFS019laF4GFIPRRaOC75sPLlDSfPZ5FEjiY8MnXGqW1IQsWdR0OLviDEX5O+cHMDnSP8ulMLuofL5IhmxURkRHSsI0dx8MvPY5JucfcdbkeedgIR84IrQ2PUUhKRvOiGR+VRro5CpigMD6AjV0LHqeMYfeEYRsZbUKPb2SAeQ1tFRFgzF7fURo+6jDNUE0FLHJlt3YnMthxGZvOiZYMLakf8EhHWeDyM9vw4UdHGZFS0uSwqWhSWz6KipSLi9DSJczENnvGk4VdHJsHKuG/sLhpalI3r09gcHKA720F0FKexOG30r09FI3uTbnH+6gyuvBEfjUz6BPqhRVltiYlCRtTrJdoBdWP92lXMXp/BPKepG5idLqJrtEvukjiEJO0si4YO8cI7+21vWU5G1FqlW0+Ojyu+Dln1o5MWmI7MRrpr1H4hvH+kY7ZMy6s6DdBf7x9BRUXrHWlHD+34OCpaEHTHRxYVLSCLiubHGCKbdFPVxpzmOqmVGyAcn+eaRWvqijLpH4G3fjxaY/AumkO53Hw0tLtnl+ju1BcNjVi9i8WlXgydovIb06AbTlVA8C0iR8faVNGx+g+gy7i1NRE2MzoK2STdUNapHkfymjAieXUMoqt7CQsf38HyjRmV6Fbn0gzytAMUry8uyKhZg0c7aRho91hsw+AXXsDYBHkrX9kXT2NsUpaJyGxHO6htKsuV0XtiH3LX7lK/mBVsLrei88gA3ToVUNk3hv593KC8bmmobW+h2NOOkidqnBUVrTKNebrdSySLiiblqV9ZVDQ/yd2OzsFEzCnOL99wcmlSZTwe3XGwqBT3V5LR0NBUNDSOhFai5OtPLleluksot29j6Zr8WEvAzHUZjexrL2DyK5/FwYka1mJu17S1OdDtyTtTqI19Bse/8bzYjRZuhJG8WkYG0TIzjYUNlaEQH6HBAHqG+M8FOeu3L2Jz+Akc4Uhm3zyFzrUruHWeY5k5Zd/SZRuy7I1LqA6fxNFXqe1Xn0Fv7VoQmS2XW8fsmeuo7TuKiW9+FsOHt2mnqbcw6a72xpUbWCgMY+K7p9DLH8Z2yKKiZVHR9pLc6Zf/0JplPJxBRro56yUyNUmXVKeUNqU71BbRm4TTRnL7OVSr/N8XdjS0UqkTq75oaG0jqJT7GvfDU85/qRtHIzPQJtNOq0C3uaBby6ajcxk6cuUKCvVN/qNvYZU5dskyjui1QfWibVOx/Ky2tku0Z3a+gb2sn7ce/DkY319Lje6HfLIwazWKetaoPEIWFe2RIeL0Avy5BiwQP3BcoiV4QYQYJw3biMduucEFVO2Ezflt4I+cMLa9ksQWPPIBSWVMo3JNWjkfO6kbWydBmbWQXDldZuaH8sFRkq1GmU8s8RplZChS3NWnnIWp2ZupyS3r5J5FUE16lphBzuvsUvFprLYUbfBfft6RiRQ3FrvC1MkGmUbRcdpxaMI02Sd6vhfdyXgs8Ts9McN0aoRfTueIZ3d9aOLym0BW14oSlKmiUMIjT6dycfn71DSBrgS0GY4pXhJk2NFZTZmnafUnEtcPR3lwqPOdcsY51biO7d447ozHHY/TSzfRWMqW9Nfzz+90iyAJfmmef0Rl9WSl1KgKuo6nbkN1outyRIIf9YfDHBX7bIcoc232QK9JRN1e6tcdaDiqJCFlkl7iy8hoFsfp0eRucn6nEQ+muTV5g1yVmsGQb7YqYVXxNu9kJLTh9l87Y/n6oKzIMtrhCYeojiMktBMhkFW6mqmbRMS0GFvj8uPEd0jm+DL2mhSv6e0tez55fYssbuEZbfOhaYp7HpzZmRHC4qgGPtWLNjVNiocVRGNW4qd7izPQ4pQfzCTJnFbGg8KOnZ6xtrzElfEy8C6AOEUxhMuJMNeYVbBDDFuCwyT7uCyuXOTvhVFJSNcqdpjGj4U2Ic5OCy0c2i1eMlRpp/B19zVv5iWqDwR3YUTGY4/j9HhWGimAJ1k40WSJLudnnaLomqYG8RypRgdm22ayhDmFWPrpQSa6gRRJFZio6kGRqqSeRKbx9WdKyHhuhGGeuJEVSkP4tld/NCYWo9grySrT2uOSVC9Sxq3LZF0OM59PU6DH12xCazFJpy9tqxkZUSI7PWsihrPcg56+7rOEz8Ic+ywJq/0GWBpj1IuWdfMq8VOA6J+/xUBO1bHqKXS+W+6TtZpJ2UmvnntFYJPPOM7TycbO8cskIcZOdVQcy8OMjHtC7vTLf0BzLJyk7nQVEzB4kKX8yLuYeHxa3DwbUapURjQnNaVJqFSvb2Fp6TK2t33/bAT09j4lnnmHl6YpG65B1quKwocGelSmEmGsvZEq9pJUxjQqN4mRVabaNKOXiOhosn6AqMcP4fgYIxWi9Pua8cpnZDgopycO5aOeOebkCh8IR6Ah6aZiIEVqpWZ+pFyxBYjqcHNEHVnRgG8vpcP7u6/04L/8yn6VH/KFP3k3dHqU9I5DElEoiclmxK0rldsiddId7UOsHpUv/rCoY1mbHrWauLpGnVB4B8Tqt+EWIqIp6wYI+fhKvj8UPuld9DbjMSLi9LzYnoDwTvUYbL36zKeRM2W+Kg2EQh22tpDZ2ffVURR2dj6Hx7hOr8bfe3ZwH9oKqvHaFjZXl7ByZwW12NZDtNNLhU8u6HpwEBAsfn5y6pryoZWN7Y1DNOG00QiztTR1rW6IA3+lzOll7CWG0zNxpo81g3WZp5rOsqqHJ+6kNMW5iVJLRXyL8fam+m93o4lCuYx8IY/qGn/zRxR2er/8x8+os/SYTo/bq9fbMPTKU+hcuSWC8uTyJZS6e9GyfRNXfzOF9Ubf8qG3yobtLpWDxzCYu4Zrl+TXckhRflTLm+3QCgw93t0i4cqGUsm2JsE1Pw2nxwjR8CFC5vQy9pLgjQyeROFEdaYUL2SV9KEXzo8rI0QbRtLo4wNPTODQc6fIwanvhlX6CpUyDj1/UpQzbv09wVJYx+rUZdz+8ApunTmPqV+dwVxhBIOjxcAmdjTiW0ecb58MooNphSzL0cH0FzZy9K+ODlQ6W5AvU2Yt7A1/Qwb4W064+z6vQXVLrdSgUxY4BfV0vwh7kh63JxkZ95pgp6fXkXRo/sln5tofxeCSuOmeciJT9UK5KJwec/mtM2LHxw4wzPsA2xv6O8psvXNqp/flf3xG5TTm539yyt7pEXKnR473w9dwezpso/2p0xhaex8Xz68h3zGEA08fRHtxC7ViCbW5a7jx7jURDayOQYy/OoSVH3+AOfUVTC3HnsVw8TwufriEliPkvA+S08MmNtYXcfc350X8jFw76Xz2kNJZRH32Kq6/cwMbrJPGpuXwcYwc70ZubQu50haWPvgId275vp+IhINLkXLsPXBNn99Nhacez6tEfb466tlCyflU7by3GY8TYqeXNBfjJhLvLvSPztkt25tbwrEx7OhaOtpth6dve+8x3BPh/FWqF7rQ0UO7vwW+HW3DADm8wrUzOP/zt3HuJ+9iunYAoyd0dLDgZjMCl6ydP4MbVzexeZOc4C8vCIcnopGRwytcex/nfvo2zv/kt5gpjGJ4sl3aUBzA4JNtWPrNG7jwV+/gwpvTKPR3o+D1IlQhdiuenvg5Ifu4p3jU7b4HGRl+ws/pxawVcz5ac9OQDQ/5yE3p4LY51apVXHmbHB8dT3zuM6LMdnhRvfZZ82iNoZ482o8+ibHnn8DYi09h8svH0DJ9AdN3qahLRQe7IqOD5Tk62Lnb2N4/QO4wJLqOKYczgwLjpGsQ3S1zWLi9jQIHrinVsXJjAaXBHuTZsW2vobpeQuv+PlTKdL5wEzc/mMH2jpyb0W4SXpGEelptCtUC7pdH3r4OGRl7T57nXHSiuTNXzU6aqPq/HQSqkisdEl/iotcAww7uCjm6xduz4rlm7vCoTe0gNelbaYxUW8fm3duYm7qN2dub5NgWMfvJDOjGEnWOHr9Ot6bCXvkjAuuUKN+MrBOUColkOOJYvhsDzz2Jg6dlGj/Mka/yKFOb+dwq7rwzhc2eUYx99SVMfH4CfX0laqKZnrMsJ7bRtLMZnHrioqnUoJcRU8VF5Gd5KpFj1VhbRsbOMb5omtGz0M4N8sxsNTPDyelO0yanraOeHd/19z9xbmmlTn7kRaSsugfUUZ2fwfKdWSxfuoiZ5V4MHumUja5tYJMcX8VsmEMoVsnxbVE5yXB0MhkdTFpYFNHB1KkifFmAUJGvbvzVu3TL+1tc0uk1I/LV/G3cfv09nP/hm7h+rYje58NoVnJUkmgskR7Zpyi+vBQEpu2ljRkZ8UT+DS0ee1KGexidGPeZMY/9+JaR0EoP4jnI4SeVyYcq7ZqE9cpBfuY+vgWMH0If378uTWOJo05NtAtb6qig5/g+5G/ehfwAyqqIDtY1MYhysYDK4Bj6B3mYw0ZE9K/ODhV2kPIX72JhaxCDE0bkq1OnMH5ERb7iaFZfPIpODppT20J1LYxm5e0/j5HCd5X2DL3lNrfdGRkPOHmvx7Fodrn4ZNPV1y2J22excM1k8CmtMd1qff4a7s60ilCBhfoqpt+9hM39J3Hsq8/j2NeeQR9HB/tYRgfL59Yxc/YGakNHMfnVz2JkfBvzt+Q7zmJ3R78bV29gvjCMI6+eQl+Z/1tjHdPvXMbWyEkc+fpzOPK1pzHYvoTZ6yry1fIM5qaLGPjCC1R2Gkef6cLaGTOalXRs95WdXpNP6VpmZGhypz/vBAYSZzFLKG5l6XzvBG5yVpu7FHUYaBAH6syxRX9kpVn4Iyt9fU/F981FyQnHXCqjUNvA9nbYR3ZsQoQecvxfHZ7oWWL3tU3lRdqqcfQv80UGM/IV66AsoY+p51BoLaC+IaNZhUPFB8YNc1DAtgRCAuu2Ogm7Wiy2feq5WSwFoX1St/EvfIZ+X1Mpe5bxmONxer7ppKAiLo1MrkimPvFKx2O0LY7oIXrnpDK0gGJuNv3n81x24vQYq4o6Yev4MKnXwhE1+M8Oqc+vSbSh2pN4/rdXCOg8U7hBuxpLfzzCFnnoOfC3ZdVhIm3ZGeIPCWWZ2iJViJQ9y3jMaeD09DRypphvxgXsYurZK9lB6uVHIRU+KNSyN0zWpT6LrDJDjalRY9V3BCLyKsPXpsbavSgiXU+jJ6jjcXpMxLgm2Eldwx4b2zY+i6iPrUuoPxCmFo+UbwQyMiJE38jwvjjNx0Yyiyzk0jOLY0V9uJWjGSG+7BhRXiDuItGi7Dh0uZQxz8IcQXAQg1HeSLQhMX0xCS9RjDBnp9CzJyR22C6MiO56sDIy0pP47q3p/0TiPJHoR6w4O/GjRuc2N59VLd2gBWvSr1BprUpe1BEZIe65B1tE6o/FKYpIBye6xH01zSSFcfGVLfR1SSRFcztC/MVQaacEVflgF3oyMlKinJ6ecPaki0xBXjxqAYkyZzEFeVZ+REsiurqjWiJUhfq0b4xb+F4dXpJspFtHKmYJM0nUWcKi95W4dsnqhi6RIVN4lED6ju4BcdYkWuhHVInTx1DHjNc+tWScdEZGGjyf9LKnlnkmEj3ws8QqESko57naxGKMiAslSq96EgTH7BDUjxJx8eUxQgXXCQRk6+6PyGc5pUm+L6uSbpSTQJ4YNYPkQ0izClFfKVFPUYS0J90P4npk4o6AW4dsFx339UHKpxnHRuUZGT7y0dtIA70qzeQuuEh1ljOlWMCQbwI57cXBns1q1xKtWqs3y3mHp0sizUcydkCgI0lZ0tilHNeUYgGJ8qpQzIWdQv0V885MjHzWZ0l2BDIZGU0ib2+DCWhAE47nXFySqDqRGUgSoRDReIpa4kyg2qjLhzoF0Il1nhKu5tSL2GAhS92mdUa4N0nWotFV427NXeJlqL1dOSAHrUob6GOvmrPakAdxTWZk7BXhGxlithmzkJ7STcBQ3katjEQlLKOSb+FyXUraoUinoglz4ppI2sQGRREZ2w6fCp3HzyJpzyUKxIPxHMXTU4J1+OuEvTRTM/hb3Bu0Lc3ZZPZEp4yMT4Pc6S/Yn9PTk0/6IHqIXS/uNHUE9SkvZK+OqHzwVesuhqh8fc12f0mYvjToGyWrvpKRT/Zn3mq1LSwtX4qNpNbXE34BqcBoz4cujthPBUFVw+h0PeXKMXKRPyYN9LniEZRAIJfGvihWLUOlL19jnu6s1YwMmjvJTo+xp2JQHjwkQQJiMTYUJGKWN6uI1G/W6fGDrKM1WfVVpnwKnV5NRFK7lBhJbc+cHmGNOR/THwFvP31t+PIYw+kJlX6NIXF6AlwBQ59RJP5+0XmcOssKQ87NNzFPG/QiIyOWyOf0eGLZDs+PmHT8kDj7djk1qXmfw4uj1FrB2DMnghgbocOTz/KIH+WxLpmde1+kOZHOBOfz8x/FOrxYGoxJvdyF7sPDaG9L6hkdxe16d0HzGl0LGdZiJoUjymPvq63hMjNlZHxaRHZ64Qw0s1Msl6SZa+w2/Ej9ZiuiRqSeknPNUWLs7A4+d1Ic85ePbgXxNDRcUQnzk9pJ7SaSWmSnp3FMr9fzqIwexIFjAygX81h+9ze4cYfadzptVnO76eq0iCuLGcNYWDxOJKl9plG5D6uO8+90jj7ztEEvMjJiiez0dkzSLOSVbSYhbCb9KCe2f+3YchYqc0t94zLDzo/DRobomurZ8ja7R9hdUFHPVAf4qUYZOQ5g1j2CAwfJwb72EebEy4NSKO7vQWPrYipakIyriM/dPFalU1LDjYzSus2UkfGAkbDTS4G5SJqpZyA/C+epbnkDakT+2m2aUL4uyosIanLHp+Nr6CqmWp2nd3o7iaSmd3qi7f3HcHRyDVd+MYUNcqr1eg0dT53GgfrHOPfhEgq1GrZrbRj68tMonf212OmxFWZ3tHlmniCw2+iAQEm64yVQeUYRv1kkToM8OtBvgkQa9WDoYhpVCcxyTAqwzrOdXsa9Z3c7PXPm8bFOCbgiPJHDV9iMpHeFIlFWUBJ9LYzRefzMTu7G+5+g0tGCAycOi8wwtkeY4nTtBDaxdvsullv60dkl85DrRde+GhavLpBzr6Nm9ZyP5bm2xLRFWxkeaHS9sH6USKWAYAg04jhe3sIZP07RHCPxg0ZnmohzNzMj496yd7e3KYnOfX0WXcxxS5pJWir82t7wU8ewsbyOW2cvKUVJ2vaGXI0jmhXRdaBdng8OoHPjLhYWxOkem6BHkpLlXTwktRtbZuhnGrXhYokn1WUDmtSdkbELok6P5+CeLk4TntzuBN9BY2oBam2mRhkcPHwzI7i1DR/2FkMlb0pXr00jv38ALWRUx3AfNm/cEbe6yXB5jIy3yOgxHZr990MK9K45iUAR7eBYL5+LFNdCA32p0Xr2Sl9GRjzxO72m5p9eHYqgrrlYYo6F7A4mu0edz+FZBG2FaQctJ1Kfm8YiBtDV14fugTUsXPN/qHkvEI5JHfvR/WxAIMIKbaV+/Sn0iuJk69KYlpGx19zj29uUs7qZya9lPXXyhTyqa+tOcHAJi4sqzbS1A3K5ZSzc2ELXqXG0c5SzDVWgcYJuhjRwEB70y52765Jfg84Rz36RjIyHkk/pNT13QcetIFPOfmFflnGiuuZtWngPJhze1Ltnozs8A1FTVVfvY+4Z2pL1G9PYaq9g5fpd1ISt2l7Dbgtth9ZASey4dH4cpC/xtlXrM4gTdXVotWa2tx3dhpn4ST0LfPUUCUUZGfeC6EdWTOJLHLSgM4NT1Nc1ouubM4JS9cwYbSQ6BSnnWGSjqu/qw8m9YVAhy5ok05hIOWewtbYy8f/Ilqx5EjcWOl/nOaMQ0eeUe/MM0jjjQCZBj8ZQZ0k7zZinKbRmZHiJd3r+XA8JU7GBDlNaiMbKx7VB+YltSNnEBUL12entFO30ImYk2mWQJEdltu2usFHq1WNmxsnGyMTR0OExpMfrhP2Yn9W0JJ2m0mvMyIhnV07PvAGVk9CZinE6tFhSG5EymcFvPVhFanHpvOhiaPBmRaQdQuUlaQ7OLFmDSIaNpS1OByG/qt6vTOpweheI8gGXuXUpz5IxcXQF5VoP1w3rqBwPtlyClIREvdJmJtFYY0ZGY6Kv6fHMciZbHOxOePLpv9R7Cim2J7ZoSR56iC+Jcxm7gBSKNb1XipXxuodmiqDbDWzQGQpvJY0qDGTUgVE9HpK1HFmzxNd1S+IkE7uWkZES/+f0moIqRF7xVsTp4lntm+luHqtWhxpLxJGPNqdz2PGZP5RDDyJJAYHI5wOuFrQtT7QmgchSelSSUjIJggNTipMHkR1TRlitGw3JYTfKmECNzlfCwbkL5cddv0g9fS5TWGLnCwKd6jx4DglGJFoU5psqCOc0I6Np9ujd25gFy9nNzlC9Eii5TslPXAM6P9kALtVNJhGWm9LhsZmbDP9/qYG1U/NoUMJyV23/pO1jBKuZdFb7MW3w0KA4NbsxMSPDwe/0djRRnZlpnu5q4ifM+EBvowY85TFZVjadhOdsh2FLglnJeBq2MNtRzxHDEkij/tMmsCmhccfutN3NyGiW+J1e6llHE5nnsk5xePWZFeMSo59thMpAbxqDWcaQU4dObpNEawY54mAnmnUdpy6fmmlHuGO7h9CuVX+xg/hyB7GLNdmx0RkZe0by7e0DPEe1aelNjJFspIDKvSKcya9bqUJxKg8FwXn4YDwbWFl84pHRmP7K8ieOc0lQEaUpYT/a0alTjTj3Or8Y9sCUjIxGNH5NL81EZBmRjMndzAROtSZYKBTUZ5zc1/LvPbLDutnY9wGIsMh8NKGcaGaT7ETBDupwlUg1ugKNVOk/Do3kMjI+BfbgjQxzJjuz2jwN/ZXCyNiLxSB08INO6TFN85lp50nduoVULZFQvFykgb0haJCV6wbuVUP0B4Acmy/RgxTTxA+EhWvpvbA84/Ek+d/QTBKldGHCjI7UdzLSWUFE29A5QgU9DHTsx+8++7cx1j+Jvzr7F6LslRPfxtWZC/hf3vlXmF6+JfICnLbNFsI7Mz4ISyJWODoiGOWWJu+tnyzlG0ZyHeJY0KgNFyHvVLJOI71IT7O2uMTUlx/GVsfqmTNc8V1YnvGYk97pabzSkWkaEpHnDC1nFHr1+oi24eb877/yJ7g8/TF++uGfYXNLfs1JuVDBV0/+Pg4NHMc//+k/FnkBTtusL8iyDsKWrB4Y9aPWGSg5qYke5W8igdMzBc1GVD5n8WG91I2hp3qx9uElLK/p3BDtY6UKrciWEafuDi0OVbVe7sbgZ3qwfuYyltd9dXUbRpnTLKOdnmkZH7t/G1Jal5ERYee3t3sy60IlnvmfGrNuIV/Evu5R/PrCj7G5HX6vEx//+tyPRFmRZAI8DaexZTf2Mlw/UYcSCN4JJSqHj2F0ok0cCyhb5wW6WL7GFdWpkUzkebSEm3JlUyHarYn6ftJNGK6uJbWqHdmTkRFD805PzUjxFMxjPghObHRRIOLKyQL5+o/M2Qm8MHRiavVteSDVC2r0EyGmTV68+dYWFItagAP95JAvF2RhsYRyizwOXrqi8lzFKG9Vx4w2jCGnW24tSdOootl1dli5coWqU46uywLFIortHSLuB9uQY8dm5lG7HIcD1SXMfHSNdnl1GgNqStnDkdoK7RyWTerU7TGiX20VkAiZyX2kaaHbZqig1BbWDRCn/EBpcxGzH9zAqvmdqdRPrifsEnCrdMz2kIPMtZRQkCGKJUKOxkONa92sbxqckbELCiPjT/wjdZyeezYBSXFD3ckCHeVOvHTkG/jlx9/D1rb9vXr5XAGfP/otvHHpr+i2V61OvR4VvL4qw5MYf/4oBvb3oWdyDF0tq1i8u0Y+bQCjXzuIylYfDjw9iq6RUQyOtqE6O4tNDrHL5V8/iDKV739Glg+MUfnMLDgEr9B98BgOPn8I3YOD6JscRGl1FisrclHn24cw/NIp7D84gO6JMfT21rF6ewnbVNgy+QT2j7Wi3NGJjn2t2Lo5i/zhJyN5G/V+jHzzIAqX72CtRva8egiVWh/2PTWG/iPjGBjOY+36PLZqchzzvSMY/fyTGByjvh7ej9Z8BX3P9WHz/Bz4i/ZbaCc5/iLZO0T2HlX2LtMfDzFu5JiEFoL7/m1u9y7WtlS9l6jePqp3zKjHol3Uz89TPyeon2RTT38d67cWhE1ijL9DY8w2PzuK3mPj6B8uYP0q2ayjthENp0lGRgw7c3qaYMY3Ac/WxBlLhalmdFTobzz7R3jxyNfx3tVf45Nb76nckK1aFUXaWrxy/DsY65vExzffVSUGuTb0HOnB1scf4OrZ65i9WkXHZ0ZQvH0ba9V2dE8eQHvtBi7/5jymL9/CavkARg6XsHR1Eds5Kj8iy6/8+jxmLt3CSoXKJ0pYmFpArTCAAy8OYPU3b+H6+VuYmymg60AJa3dWUcu1YuD0cZSvvYdLb09h9vI06qPHMNQ6j/nZLWzP3sV6aQhtq+dx6a1bdLuewxbnlVXem5THvojs7z7ageoFdnpkz7EDaJk/jytvXsHMlUWUDk6iC3ewMLdNsl3Y9/IEChd+i8tvX6M2F1A+PoGeyioWzs+iWhzA/pfJ3r8mez++Gdp7e9Vz6and49wuOT0MYv/n+7H6q7ep3i3MG/VqZN/gy8dQnnofl9+Ywsz5u6iNHMH+vlXM3eI/RGTzif2ozJHNr13B7EWyeWIS3bm7WJhl959yemRkxLAHH1nZIXr2qhkc3CIK+EQ+yaQPTMJlp0sW1mfFs7hVFuU6heRysssLa1LWVZvDKmbf/QR3yNGg0oJKF93WbbWh0qkEsIFFcii8/HK5GtYu3sBKex8623RLTvkFWd7NL8Vtr6G6XkLr/n5U+LZu6SZufjhDzpJ2OF2DtKOcx8LtGgotfHsLrNxYQGmwF3m+T22I2nVF7uBplzq1TA6OOlpdxPztTZQ7W2W/e3rRQc5k+jI5GyrP1dfJyZA9siL1m+xdI3sPDKBSpgoLZO8Zaa8eN35ShwqyYntd1aN+limH6t3S9XoG0FmiNi+S46RrkcMmFj68TY5vAGSVrE82L10mm1kz2bxwcxMltjkjYw/YudMTK4wfxIF6Ns/Tw2tBEx7aS0memnlOObX784/+A/71r/7fePnIt9Ba7lD5jLSptdxOZd/Ev/7r/55k/6PIc6nXi2ibOIpDn38eky8cxb6D7ciTFwhb24R6Q1jCC3yjjEJFnTvludo6nVN5CzvBVdx5dwqbPaMY/fKLmPjcBPp6ybvRfW+utYJSvgsDzz2Jg6dlGj/cJm75yG/sAtrRkf/W1La2kBNxOii1lFGk+/LAyRH1tSqkONu7grvvsL10C/xVsvcLZG+/tFfUF4OidBnkcsu4S7tVUe9rVO+LE+gdUPW4n+ub2FQqxMMKjWGpgop4TZEhmw2jhM00Sbg6l0uZjIydkTdeJmkSc+qZx45CPlVZ+tBNFlaGIyEOwzx9FLROB+tb62KBFPlVeQe+teWyDf16no/eEQwfotvVd97GhV+dwRVavMvWS4O0aM1NR74VpcoGpEq2JFpe5PI1ZfXCbdx+4z2c/9GbuH6tiN7PjqON//SsbaK6OY2bv3wXl3752zC9dh0bRjAhckX2cBOcF2SZf8aMYz1WoSZidQObra3g92akUnK+tKMKnSzpnSN7f/NbnP8+2XuV7H1e2Rsg64XIFmQ96uf3qN6UUY/bpJ1sWf+l46fOFpSqG9iw/rgQfGJlME7nMzKaREzfnTs+l3hFYo7HpSZoVE3nC+dgJl3gwywjQ3O1KjY3a7S86ij0H0B3cGvLlNF55ACK/H169QLajg2jfXkWi+TUJFQ+eQAlp3yZnGK9bR9GP38UnWVauLT9qq5WUaf72AJfhcW7WNwexADt7tiF1VFEx6lTGD/SIT+CQtS2t1DsbBe6NTqP7z4tVJdFcst0hxfuYH6lH4Of2YfWjjLKfftwYKJL3SGTDWzvl8heDuJbr6K6ouwVb67m0XpoFF3dlgcUiHpf1vWon7oe/x1amMZSdQADR9tZCc29Cnqf2IfcNX4tkIgaGxIUhf3PyGiW6IxNTcLkbJa0qjxz3coiPVu1Lcwu38Gzh74od3usmxJ/Nu85yptZvi1kImgbZq/j1kw7hr/8Ao588bM4dKiGtSWznSXyTx04+KXnceSrz2O0fxW33ruOLeXV61w+3YGxL1P513T5DVS5fHUGczNFDHyedH/lNI4+04W1Dy5jkczJ0ZKffvsytkZOYvKrz1HdpzHYvkTmLKnbUWDj6g0sFIYx8eop9FakRWZen8pjdHcCIhmUldvA7OsfYgEDGHr+FIaPtWP5HI2PKsfKNObukr1fPI0j33gRR58je98ne8XOt42c/yh6h1pYEZ0bDeh6r1A/v0n9fD6sl8+tYeaNS6gOn8TRV5+j9DR6a9dx/cNFpacBblsZGU2Se+GL8j8yjM1DOix5fUKT0Z2Pjl5R7JuzWo6enSoh6rUkru6XkbkHusfwnWf+C4z0HsbPz/4nkfflE9/F9dlL+PN3/xVuLlwVeV64fWonXy6jQDu+LX5tSTVWJ+cw9s0hrPz0A8xtl1As1ei2lj0WW8QOj8q/ReU/OYO5Gu2cqLy6zvdsdof5c3HFlgJq67QD8g0G7YrytU3U+GMlTkfF5/iK9Ldqi/ZjSi/bG+bJKhGtgR6nhOrlqvxOrtLVexBHnqnh2k+msKFEhb2tbO+WZW+d9oQ5vk2guvXiEMZeHcDy9z/AvHo5IFJP/soy7geNcb6+ie1qqDPA6XdEwinPyEiLdHo0gYJJFcxK9bxbPHo8UzyE5HUVlrOqK6e3Kxx7om2oZxfKt5web4fE6wKhTYHT+zE5vW25iY61Nq4dlwR7fIiLaaDb56ETx+zclEi9Xkbfy59B5/IUpvkd3vYu8fnAttmzuHBmkURjrbeoF9vQfXIS+/oXcfXHl+H9LzRliaWS7Aistc22zr3qXPmMjJTkpSNRMyjdHCd4aYU/sr6bFKzTST5pNkMkOjblLFIuwkSUCtWEQB+LRA/RZrQl61i7s4QNMWaEqqDr5LAhy2WpINIHTaSNGGLkhL/1JHZU5o8uCI9DcrlNzL71CZZzPRg4NYHBg92o3zyHK3SrGR2DBMjptWAet16/Cv53X+6zmcx23fGwS+zEZcKOUCgjY9fkXvjCH4h5KBYFTy5xloQU8InZczNhplqV9QnJG4eiNp1H2olk+Albl25ZYNW17dNnQiR8CBGnLGXmS1diIv0hP/j1WzhNxOLIWRbok4gh6tmE89wuxCE64rU6nkBvOObWCKnDIIeEwirBkYROo6Or4YpN2paRodjRGxk8PX1TLpy2O5yQXI1SUNunpmnVvHR8ldjaMOmjWCJGNWdIRLeR0bDtOMxKcccmaU12HdAO4KaaG6Eoxp8rg93blvF4Ezq9HcxQPbHNpB/3gtjpvaMmUlTiBoNGXXnzXB77NWoF5jMlciTCl+hkHwrM4wBvpobdgvxRpw3kiYbljQSaIXnMY1syCoK+ZWTsEfx/QOJ1oPS4+yY+M1Oz7KSOSeNFISQaLeag3H0m+DA41SdyOQbZRLQJyrCEtIuSdYNCrpjS2eiaaeXj0fUNPUrnjjUHl9IzF4zTht2NnRLKvh0bmJHBH5vyTU4ryzfDtJBTd8fYerjFvZjXto4YW4PGdLn5rFMcsrJ4FDrEQ4hzaqMK46rwQVJ99Qq//rFoZLaP3To8TVy7DRXris0anpHRHCle09vjSdjMqkpc9Oo5Bl1VPAd6dtoXXS/GIOEwPGVcrZkmteOhJ3M/GEfwzqabUpFasHniVMcMk0DU8Vd0qzR1Y5KR4RDv9O73xEpe7wY7NZTrmSmBoLiBXIRmdCscB6rPwhxZoVlLAiIVVcZOPUlomE2T6licTZDVggMHnektzMhIhXhNLxa3jM91ErgzPrpEd04zOhLatbL0SVKnd4scIH3TKZLXoTRrg9z5aZ0PFJ5hd0mzc7WxexnWfOB6n/GQkTv9igoMlDQfdZk53yLyPgWeCZrUjonY8XB9/ezB0hWeiGhoz/wXnmho51U0tNsiT5DaHvUs0CeGfSKLnVKMrYS8e3Xrhk9pSNIfIUmvr0zfXlOSraRsK6xgY7ShHV6c/TpXmSARxzFjasplZDRB6PQ01pmcqvL/K2VOhGYmn5BNU4EbIzmvqCpjYlT9H77y3+LyXRUNTQUHio2Gxjrcvvn0xrSlFQir6DBumAJIRqoyFBqH6ZCt+NqqF41oaP7/B5P42rQ8TsOeWIjvITy8D636G722NrCxsIK12VX+D11qjnWb7ku3ZbTj2BSUeG1Vz4p6rRWdJ9pRPX8XG+qr8B8VOMLd4DM94ksbVpKuaUYqdvThZIumrwFXuHcXLoiGdjFlNDSPKc1ZF0pbbyzEQWWy2BAWL2bJ3ChhfuXQcYwe5q9oliuenyqHjsk8DWWa0dCaItaGFNTL6JgYRXdvEaVKCaW+fvQ/fQqTX55EV6fUKx5VE/4bddtoPrP8cBL5dnQ/OQSOxfSwUZ48hpGjxjV0Edc0KdJcRjPYTk8NqphsKjH1pr+CJQZrjrsT3iSpvUa2SL0iGprThDcaWgw8wUQ0NI5KxvAT7Xh90dA0/K0iObPcjIZmQk63TFsijvJlmUhOJ4iGxlHY+FgWiIhkHPmsRUc+o0WAYgEFEQ2tEkZIU9HQVvj7+9geIxpaENHMMYmz8q07iIamCbLrWLt8GbfPUHrrY1z52Tu4dqcN+54bRdloVHwrTEsFJTPiG0Pt5Mlckzpl5PnLApWcriuuC/c3ATGW/O3Qxt84pk47QTEuXJ+uU4mvk6HLKi/wt+moAobOXXlGtqX6FKNLR3ez6vLYdtA17NTX1dYr2FzC7JkbWAu+s5Hw6VKk6bfXlseEwshBFRhI9T1uCOhSBo8WzY6ZpYJPdNoBnmod5S4ZDe0TFQ3NkLGjoekZZCvhtVU5MIkxHQ1tYgxdFRUNLW9HQ+s2o6Hx1ympaGm+aGhczrpbxo9hnKOhcXQxFQ1tdUU641z7IIZftKOhrd2S0dBaJ8PIZ5372rB1c05EQzsQRENrQZXyNupkA0dDu3IXa+q4Uu/DvlOj6D0yjv4DBazdMKKh9QyraGi96Dm0Dy25SrpoaJrg+pfQPjGE/J3rWF4h3eK3hurdVRQmJ9Gxdk3k5zoHceDlk9THfnRNjqKnr4a1m7KPueGjOPLZNixfWpBxQ2hBtj/7HMb6lzF3m3btnUM48MWT2HeI6h6luv1U94asy9/v18W3t+fuYp0XN8u+QrITA+g6No6egTrWby7KiGp0nUa+K6/jvtN0nQ7SdaLdcvVOGNWOy1tyg9hPDrvniTF0Fpax2X8E458dRs8xujb9VSxNLaNGduY6SI7bOtyPTtcu3ZaO7nacrsEIXQMV3a3l+BM0FuoajrRi6xrZoK5NgNKRv6gizdHOcPzlQ+jaT9fkOF2TFSPSXJp+x9jyuBA6PQceArqc6kdzPwdGWmTbQMfG6d949o+taGhBDRajxE4wGg3NUEDkOBrapIqG9vF1zF6vouOpaDS0K785j5nLt7DiRkPT5U40NFFeoMXxYj9WX3vbEw2tDQMvHkP52vu49PZVzF6+i9zoMQy2LWB+tiojn5nR0GhhmBHSLqpoaBzNjaOhbdICWedoaEf3o7JwUURDm51aQungBLpwV0ZDQ2cYDe2da5i9soDyMR0NjZxekex9mez9axnVzIqGxgNqoZzetHJ6DD/VN5DrG6WW7lL9CgY/JyOhXXprCrMXp5Eboz62Ux9nqqgv1VB54gBKd27yt8pT/R4MPNOLDfH6JI3PF6juFRlFbfb8DHLj9IeJ6i5M81+c0OlxFLiBLx4l2TO48hrJXpjG9vAk9vetYO4mB0FqJ1l5na7+JV2nT25hla7T8DG6Thfldfz/t3ct8FFVZ/4/M3lMksnkHZKQBAjvlyiKCFWxVWpXpQJalNLW58/219q1tbuuWmtXu/XXn6vbutpq13XB1VpbqxYV7freWhXpSk1FFNsAIYGEPMj7nZnZ7zv3Mee+Zu4kgYLcfzhz7z3ne53XN+fcO9yPy4Ndddj71h4cOpiGgpNrkNu7B3vf3E3tGBVjgu3sI7uKziC79r6P+m0N6CBdVrvKEOzcjX1vc3S3HqTV1OjR3UbblIh2Ob3Ur1uVfrVCcujsiM+gPvnf7TjwEfVJawC5k9PJsfULu5PX29mW4wV+/qIWX9bU1nzkJrc2u5yrcuiMhxHCW6nnukIbpapX06Oh+e1/iaOQKTt6PRqaJJN5LNHQcmkLwNHQ9DhDDtHQ9LgYxvJBNRoaR0sTQYQ4GtqkIhEER46GhjCt7jI70dUSQVpWBtIzgL6mLqQX57uMhmaGwhPjyGINPYqT4shiHA0tpBprjoYW1aKhqa03aoxqZoiG5hL8c53o8CjtCmmPmE+rD65jcwQBqmNaZgw9+6mOpXlUR/LY0UOkIo0mcY7CW1qM3KFWcvp0ofE2kSyVt7eReCfZtE8+rbg44tpfyTnz/zmKDaP7g4OIVmoR1xjUT7taxArH56d+2kX9FKJ+UlQTaHVPDpA2iogd6sAALdX7GjqU67529PXQtpeFqXZ1N1G/ZVO/2dpFfbCH+oDfgD1KfdA8TFtaOZBKCtD6pLIIGbzt7m5C85/bMcqyXdV7Am05RmG4p5fCWGbvcIRAitgwYZyWGOYj8PpHz+Cxt+/B8umfNUVDU2CNhhbn1SCeQk5Xo6HRFndStRINLU6qRDvj4SyGtBrtTEwAAVO0NC0aWiaJ4ChhIhraZEs0NBEljKOhLZ6H6iVKqpyqREOTbym5h2Ywreh4waEiHg2NYBcNbVCLhqba6xgNTZ3QLEpLNuD7ipk56RjuG1DqGKA6crS30+aLVD1dqiPJ6N/XCn9FCW3JgVAlbbMbD2KY+z5b5WUe2h5X05a8cqZD+6gR1/hF0jr6hkTENeEoBKje8j0y+kIS/aQ/TxglZ62eEvheIvtlBWScWn2tTkXLyB62ydauCLW7ekqIcR8EHBosCXx+6pP/oz7hIO3nUp+sUCPNsYN1Ve+Js+VYhfXpLdffnAywzTwy0NU663cXDY1HO49abeRKoMFUPoW2Oe9tR91btE2gSd+rDRJBTgNL/mJUo52N6BPIvpyjpQmNbqKhvVkbT3bR0ExQ8rR85WilsoEhGpoCH33ri2hoqgA9qpkhGprWbjbtZ0aoHHkFfehvJdeq1fG197D7dSXt4fQm1ZH6hVXGaLvXA1r1FhciPGkA3fuo4Rj9Ku8rf8KeV4nnFdqSc3rD2D4CPNH5oYI8ukNKxDVx71UgE2n6qo4QyEJ6kPqpX712C7VOzS+9p9iTyK6EcE8bO0R98uafUbeF+qSe+uRU6hPuQ1f19qA3j5iQyqkVqfTdhCKhVbaIm8pnMm9M/DlDLePJx9HQRvgnAjEECsuQpy4aFWtM0dBmuoyGRuVaNLSQTTS0mBwNjfSKaGjzF6B6ZojOiZ6qo0dDE5Yo0PLYHibiWrvuroTR0MimkBwNTYpqxg8AowEEORpaWNYWP/cFgwhOrkLV8kr49uzFIX6I0UV1HKU6zsgW91VEHRctRPXsXKWOzOfrQ2fjKHIXTUEO0XeJdqWyzhaFl1ZRevssWoCqOfFocTq6lYhrRbPIq1EZR1zLX1AKX0ObEnFNIEPctxP9RHXJnl+B7G7qpz612C061TrNIrtYVyK7HCD6ME/rQ6ot2ZNVMxl5hrZVEMuhPjlb7RPi0/uEZ7KrenuwPMhwnDCuZ1ICuBsDKuwnUzI7orEoTqhcCr8/gMZDdeKawb/NO2362TRY8rG17mWRZ4ZwGQN9GM2l1d68Klr0lSE/px8DkTB8nQ3o6eUHFem0BQug9CTa6vHv0jK6cLB2n3iqFotlIzxDKS+h8iK1vFkrHx5CJKcEpfOmopAcRklFGvo+rENrJwezHsVA2zA5yVkoI6daWFOGbHSi/a8tGCFeRmQggnRyJOXzCxHd14LBiI8GPeVVVqGC8xpayFZ+eJGDEX7SF81BWD3nJ5qMADk2tulQM6+IIxho7oK/lPRNK0c4P4Ku3T0ITgqgt66DVjBDiJK9JQumirqUTCZ7P/gr2vh+J0IoWjIDuSPt6BLX/CCjDEXTqskBVKKItqZZOTEM/GUXmnaTJ+EvE6pjfzvVcTbVcTbppHpmx6iOu7iO8eXJ6ECAHFIRhj76GN3dSp6Ptpv9LcQ7dzbK5hLvzDJkUfsc+pB4qR3km/1DtH/rbx1G1pxZ1I9lKJxdgczeRjTVtqn3K5k2HX27qZ+WUj/Opn4KUj9uU/rJ8OCA2y2WidCsIsQam9DPPw7mLzNqr7T2RvTSNmCAdc2dhUnzylGQwC69D4rVPuCHC4RR7sMq6tdF1Id7qQ9HQyhcOh2hUWrbdm5bSQatzqO55GQXUZ/M4F8HUJ/sqEM70Yn2TVrvxLYcD/AtOVN5XbzsTeJnNiBqZjDQpOTMVNjyuBBkerRutpUllIcrHaKh7caW2kfRRA7MALNauuZIXUo0NC5UVlAi8M/KUvSKaGhpENHQRIRqxYpYrBjV505C7ysfoDOajnQqHx6k4UblQoW4F8YHLUqYXTQ0uuZvbi0amgnid2r8tU4rUX4xmMijb3U9GhrlKWpYspVfQDFDIEZ8fjkaWuFUzFgUReOr9WLLKfKI3hi9Tc3nK5al0umQ5NuCydPViG/sGGR6tY0MMPQ5G0O8kRHb9pHB7eLPzIjrUcH9WLm6FH1bqJ+0qHb0haK155jBdjn0WzJY+pD+fPx9zeeBUlStKkbvc2Sv+gXIv7kL5ATEPVgeTzKELJt6e1AgOT0N1kaSc7QxqefZjFHXsPC6ECY6mOniVhnsEx9J5NgVizxFkkUeQWgVv3vjaGg70KEOPhmy0+NyM4Ur2yQuqwYVSURY+sgORJMwGtoHWjQ0VZhFZwLpSezTWHXpMr0bpycOCfRLsKMyOD278JNHEWKBbOQvnI6S0m40/m4vBsfrmD3YPMhwCctgHQu0/uNjyn0ZV56SGU7Eqn6zGUbT1GhnjgqHaAvmXC7kmFdFScCidHGGCwXmLFOxBbp2OkkcDU2jTM1eJwNYikisVz23hWPBRIL6salH+V3j0Y6MbGTQdvng2w2ew5sgJFjpydnq9s7wLUw5dDmx3UACTdZYoK/0nMB2JREiimXLOUNamTmxUz5vO2xhyVakyVo0CFJHG+McfKZTSeSGfBV6nonODCeZyUHEBnqTdFGmtI5SYiwXV2qWc/do3HQ00FCeuJYyx7HS83B8g1Z6PCzkxFAHlzbGaJQaHR5BveZPLbmGIzHpl80YC9gux9WUmi+VK2eOd7+MICKXlASlknZVdZbgTradzHgenykpMd14YGdnXJ9yVGzQIM7ow+rwNDq5gOVryYOHiYVpe2sefATTpQ4xHjV6G75EmOixLJswBtmHb2ql0CYCckWM3GJbyInPlSwBg+0Wj2K+lpCgyB4GTVaQccqfDOOVUSVfpWyEBw/jhu+UFWtikTR+ehdDVmaemm2EPHSVecXP8JJMgvHAzVzQaczEBmvVowYqcyNbgqGWKq9FhMjQcsfRLinaZoCB194WR8uY3Fw4Blusqzh7nQqZvQLDuHKyYQy2eTi+oY0qHjr+TH5dUTCsOrxjaDQ5zmAnyNVOAiZJpSlYtNgyp2zUxMGg2p0tehUnwGw7h8cwZyvXqTSuBw8TCz+v8OJjfgJG/0QgJTMSEXOZllRI9/OSguamPpn5XDk4w6TqiCO1qsWPcqWSVtIKQZ5At1txrncPf8s29nDMQ7+nx+NITk74xI83hxmabOJq7SKOyRrxMEBX56CXs7U6GOpCF3zNzl1z8IZyF9Cqa77vyMmDh6MNjr/Tcxy4lHFY7+e5hT4z5Snq1i7mMSV91nMyQl/tJYGmnY8i0UcqC0tFt5ycYRZroNYMkCCXJzLJrFWzxC45wkaBlUcj4tGk/HnwcCQw5h8nH13gCTPOSXOMzbmETkeDqU62VXSodzLHlrS5EhJohUmlePAwIZDHs2/5+V9yNX8sGBuXe7iRb0Mz2NOGoZ5WjA4PIBodRXpGNjLDpWJ69bTuUYgkFFQuQFpG/B1DsWg+Tl1zFhaqb1aJDvWgqf5jbP3jPnQl+EGsU4kwMZW20peVE+QQJN2aRIs5qdhHSMkyG9lyVkJZiexK0WYPHjQcvSs9NzOLaaTU07obmbldOP2bp2D9f63Dho1fxGe/dxbSszsx0NWME9aegJU3r0QwN4grnrgCoeIQbT/N793Lx7I1F+Kc2XkoLMhH6ZS5WPW1W/DYXaswO5DaTEtGLZuvI/U9sQUGmW5EjU9dYtjI1uw7nGo9eHDCJ2J7y5NnqPcQsgsjOO/281B9cjX20cps5/M7xRsn2Pvwyi8YDtIqcEgcGYM9gxge6BTnRkTw4ZZNuOveTbjzrvvwjWt+hBcLLsI1K0O0EMtAuDCETF8MaXllqCnJFBzs4KIxP0Ilk1DBr5gnmCd1DOkonFyGSdkBxPyZKCjIRhqt7FhmHskMEoUsk8HvZyuomIyqfPFqTwHdBir15xShPBx33P6sQlSVhYRcAcnz8ql+SbbmlJahsjATftNNS39mHior84V8Dx4+aTh6t7cMFzo0x9LVtAvLv3oSpi6bitona7H98e1qiYKKhRU4cd2JiIxE0PpxK05YcwLe+NkbqPv9bpRMO1WlIpXRqbjuv29B3v1X4Qdb427rzBv+A9d2/ghf+M9y3PXCp9H6Gx8+83dlaNx8N65+mFaYNWfhuzetx2k5vegLhhHZsRm33fks3u8lGVSP3HkX4PabV2O+rwt9aRH86ekdmH5xBn560YPYFjgdd/3u02jRZP72bly1qR41512D2646GaWDXYjkh9D+4s/xrZ+8i3Y/0b94Fg48EsWZ51cgh5x445P34cHI53HjuSVID+diePvD+MbNr2G/zaoxWLMCN313PZbl9GMoNw9DtU/h+7c9hx0D6Zh78bX4l8vmINreh6zsAfz+vjvxr2+oL7WTYJWaBGMZL4l4jsT48/CJxCfkQQYwMtiH0jml4rzujTpxlFF1chUKqgqQW5KLKUunCOc3bdk02kkmaAJ1Zsd85Zhbk4GmA61KBmowx/dbXL7+68LhxfxTcNVNl6LwpR9i1frrsfoLN+Ph6Lm4/eoTkMkrubRZ+OpNF8D3m1tx/hep/Mv3YM8pn8IMksRzV5m/qsxLFZlIq8by04J464ffxnkbrseqDY+hbeU6rJ0qiAlzcEp4M9Ffi1XXv4rsS/4B387fjK+s/yYuuPxXaD7l81g7VyWVEPNV4wpyeMUv3YELL/k2Lrz4NrwQWoOb1leRN1yKq6+ZjNf+8RtYd8V3cNGtbyHnlPkoNa0EPXg4ljFxTo8dhJaOILTpyK/c5nt1jIFO68ux39n0Drqbu/H+5vexc8tOdDZ24uUfvQx/wBJWhhBAzYo1uHLDalx95Zfwg3tuxkV4ARtf1FY8DXjlqT+jeUit7KxlODv3HWz6jfLiTV+kFc88/DoGz1yGxWzgrCX4VOBtbHp6P0a4fHg/fvHEu+iTlisxk0xfZA9+8f0f4/7tPcgsLMfs6TmIDVRg6jRRTCD6zR+IhyuDO2tR29mJba/WiuvIwXexbW8BaKdtxezlOIds3fh4PQbJltjAPjx03ddw5aONwFAzDrTnYv6KkzG3MB3Du57HP//4bbSM8x6jBw9HE8bn9DQnZ54TR3iOsOvwB9LEPTpGdoEe0krHOTeeg/zKfMw7fx4WXrgQ4bIwll6+FD6bAEKMjOwQ8sMhhPy9+ODZn+Er33wctfoLJ0cwIgdaKSlEcWsbGuSwYvtbcTCnCGX8YLg4D4WHOtCslAhE2jug3E3UHB/JlKNvIQ/LL78OD266F7+8++u4dvU0ZA/74Nd7rB+9+q4zhihGpeAvUUT4JaZ2/VBKtra1Y3/c38IXI95R7rY6PHTHU2icsRp3PvIANt93DTYsLrTc82NwjjXXg4ejH2N3eskc23gdX4ozKi2Yg5aPWsT5zE/PFEcZe97eg0B6APXv1KOntQcdDR1oeLfBYaUXwUcvPIJ/u/9R/OSh3+JXL3+IZps3JetoOYTWkhJUS1HFMLkUk/ra0cyBZpracLC8AjPizyKQPaUCxeq5LRZeiBvXZuO1W7+D1Vfciq/f8ji22j1zSQbJbHFKtraVlqJK6nlfRhC5QcX5d+14EXfccDMuWPUt3PRSFi753jqcJtlthtZNR9wBjnd8eThu4ee3oBkHrN3w5TwtuUQKpBOBYG4Jap+qRWQ4ggWfX4Az//5MnLTuJPE0N1weRv3WehHvdfcbuzHQMYC2ujZK/cjOK1clJEbCOfaXN/Fy16m48tIaZIl7eGVYe8UKZL7+Jt7l8o9fx7ONi3Ht9Wdj8ZRSTDvxHHJos5SoY9xOdm/wDfgRGOlDa8ew+Ole4eLPYWWNWuYAOxtjsVwsXrMaF8xUngj7dr2Fl7qW4MovT0c225o1Ddf85Ke4b10pYlM+i3s2Xovzi8kjRnrQcKAbozlhFCdweoxEXc1lTsmDh78FXK70/gZfqymqzAwVov9QAM/f+jzq/1gvHlzM+dwcdB3owmDXoH6/b7B7EJm5meKYHswVyQ0STVRftAEb73gUB874JzzzxL3Y8sRtWDf6HG55cIcIVO3zteCRW+/GFizFdf98A27fUI2tv3wdB82VlBX86Tn87I9VuPHx+/H0I3fjpxeNYqfl+YzRIot9IqMSZ1+yChefViIufbF92PiDR9F0xg14+sl78fyT38VnWn+FOx7fD9Rvw9PvhnHZz+/F5l8/gGe+Nxs7/v0X2NLLcpKD5ZtTIrih8eBhouFbdv6G2GH5f48TNZpTlKP/j4yhAVrlxJCeFUJGdj56W/eqFHHklkxDMKw88U1JjwMtr8iCBUUIDbaj3fQsxZ+TjWBvH/rVG22xRZfhueuHccOXH8OHevPTiXZOshR5xSiIdqK5W4s47hKSjTEfrRqjEUTZAfM1J/rIIlvzRrvQ0jsaJ6eTGDJRPCkLA60d6B9DZC9bSPbYwVZLEp6k5R482ODwOL2xDEaNx86U8Q5ut/wTRWcqj8WK8MUf346V9U/g5/9Tj0jFbJx70WqcuPMeXHrvTuhR+uQnD4epzqzBXGTIG5deZrbrQBUJZDtyJbJnXLZ6OF4x9h8nO2Gs0jQ+u9E/ERYmk5GKjrHIKpiLL112LpZNL0TmUCd2b38Fm379Hg7wAxKNXq57KvYQbFltZDBdQtEp6lVgZrJ2otBrkc0ZCq2VQ0Uie8Zkq4fjHb7lFzg4vbEMqPEMQo3XbvRP1OBOJCdVHYdDllz3FGXYsqZqB8MlD+tTSO0YjJ1osM1Arl3EKYychET2JCrz4MEBfp/Tm0McshNiLDwamHc8/EcaE2lrinV3ImcfoPuBsTqElOtlZkgswFiaRJnn1DwcBviH+nrhi/rtB1jKE4AwFp6jAceq3SoM3TdeZ+GyLeJkfKYlK8ZkjufwPBwm+JasWGsYXrbDlvYkrsagDVHShyTEw2xJqKxwZZAKC62q1EmrIz3DJY9+zSdWHs5RSOhTpzXTpRB1TpehQPSYKc8KRbZFQ1K+JFD542JM9dALlBN5y+tgkQJBpxDLFHF+Bz4XGDunh2MN+u/0EnW6NCYTwsdPH8U/5c8tnChZr1vdqYGNZK2ua2Y10tbosVhsK0iHJlGTqkuXCzjZiZGfBqeCMbLpMPCTcWxfSkiZwYMH19CdnjzM+FxJyp8dnOaFcHZcyAfVCerJhLgeeziwKXAssIGPNHCSoS0P7ORoiinFT+mP6iOqxBkyDKLVQnEw6lTkxKFf65lMH+cROtVzA4xi4zATG58aHHEo5tCnbJeNSdowUcBnMoMEka2Vx5PWLx48uIHt/8jQhpMG4bwmGPGxz2fuJmc0MoK+rgZ0tn4oUl93A6JR+X/+J4BQoemipFUpiWqJI560EwE6EQ6Vk9xOOkFSCC5DEyvy3EtwwDHmCZJaO+4G8eCBxtmSs9YaZhcPPOPYchhpttnGlQmT6NcSvYWVvEjnwR3qhTPS0tKwevVqnH766eL6D3/4A5555jlkhafC77d7cQCDtCn/rJPKYojNtLPQEOxWUCLLVHudTMnnTy3LqEnJFZ86jwJuUZmHz82LVgFZOMFA4rjii9tlgROLW6j8ysHpnh5Du6DyZDpFuUJkHGkMGsZOv0RwgbFzejjWoDg9hu2ASzAKbYusQ0fPkehlVq28o/l9bNy4Ub2y4oEHHkB1dTWqqqfgoW1KgJ+rTp2Ghn312PzsS8gJV4k8K3gyqKcqhE7K4+wEFivQedUTkywdlgmnKhBIqkWHYJEMdu30HGCWF0fcAltbUtBhC5VfOSRyeiY4lYn8eKHR6alaPKfnISmA/wfMLEvTryJ/5wAAAABJRU5ErkJggg==;" vertex="1" parent="1">
          <mxGeometry x="85" y="1360" width="317" height="382" as="geometry" />
        </mxCell>
        <mxCell id="8waOTapv8cE7Aeydk_Z_-45" value="&lt;font style=&quot;&quot;&gt;&lt;font style=&quot;font-size: 23px;&quot;&gt;Controller&lt;/font&gt;&lt;br&gt;&lt;/font&gt;" style="text;html=1;strokeColor=none;fillColor=none;align=center;verticalAlign=middle;whiteSpace=wrap;rounded=0;" vertex="1" parent="1">
          <mxGeometry x="470" y="1440" width="300" height="100" as="geometry" />
        </mxCell>
        <mxCell id="8waOTapv8cE7Aeydk_Z_-47" value="" style="rounded=0;whiteSpace=wrap;html=1;fillColor=#d5e8d4;strokeColor=#82b366;" vertex="1" parent="1">
          <mxGeometry x="10" y="1770" width="790" height="800" as="geometry" />
        </mxCell>
        <mxCell id="8waOTapv8cE7Aeydk_Z_-49" value="" style="rounded=0;whiteSpace=wrap;html=1;fillColor=#ffe6cc;strokeColor=#d79b00;" vertex="1" parent="1">
          <mxGeometry x="450" y="1790" width="335" height="150" as="geometry" />
        </mxCell>
        <mxCell id="8waOTapv8cE7Aeydk_Z_-50" value="&lt;font style=&quot;font-size: 23px;&quot;&gt;IService&lt;/font&gt;" style="text;html=1;strokeColor=none;fillColor=none;align=center;verticalAlign=middle;whiteSpace=wrap;rounded=0;" vertex="1" parent="1">
          <mxGeometry x="547.5" y="1815" width="140" height="100" as="geometry" />
        </mxCell>
        <mxCell id="8waOTapv8cE7Aeydk_Z_-51" value="" style="rounded=0;whiteSpace=wrap;html=1;fillColor=#ffe6cc;strokeColor=#d79b00;" vertex="1" parent="1">
          <mxGeometry x="35" y="1790" width="335" height="150" as="geometry" />
        </mxCell>
        <mxCell id="8waOTapv8cE7Aeydk_Z_-52" value="&lt;font style=&quot;font-size: 23px;&quot;&gt;Service :&lt;/font&gt;" style="text;html=1;strokeColor=none;fillColor=none;align=center;verticalAlign=middle;whiteSpace=wrap;rounded=0;" vertex="1" parent="1">
          <mxGeometry x="60" y="1810" width="270" height="110" as="geometry" />
        </mxCell>
        <mxCell id="8waOTapv8cE7Aeydk_Z_-53" value="" style="endArrow=classic;html=1;rounded=0;entryX=1;entryY=0.5;entryDx=0;entryDy=0;exitX=0;exitY=0.5;exitDx=0;exitDy=0;fillColor=#f8cecc;strokeColor=#b85450;strokeWidth=3;" edge="1" parent="1" source="8waOTapv8cE7Aeydk_Z_-49" target="8waOTapv8cE7Aeydk_Z_-51">
          <mxGeometry width="50" height="50" relative="1" as="geometry">
            <mxPoint x="390" y="1930" as="sourcePoint" />
            <mxPoint x="440" y="1880" as="targetPoint" />
          </mxGeometry>
        </mxCell>
        <mxCell id="8waOTapv8cE7Aeydk_Z_-54" value="" style="shape=image;verticalLabelPosition=bottom;labelBackgroundColor=default;verticalAlign=top;aspect=fixed;imageAspect=0;image=data:image/png,iVBORw0KGgoAAAANSUhEUgAAASEAAAFnCAYAAADpHP9qAAAAAXNSR0IArs4c6QAAAARnQU1BAACxjwv8YQUAAAAJcEhZcwAADsMAAA7DAcdvqGQAAKGoSURBVHhe7f0HmCRJlt8H/kNlZEZqrUWJzNKtqrtaTM/06J7emdmdlRBc7GIB7uHuwO/DkiCwIEgsCUIcPorjESC+A8kP3AUIHkBCrd7ZUTuixXRXV5fursqqrNRa68zIiPB7z9zMw9zDPcIjMrMqq8p/VR5u4tkzc3Ozl+YeHv5CL37pZwz4oYBUiDbDQ4bzmJxsF3klm4NNVkU8pD3akYNDp71YVrdnm3QK1emVr6Vb9VCaSM5+SEI2GQubHEtQ2NBarcuKPBlkWT2v5DAF9HQdka61haE0PcWtqKNEwBHhMM5L2LfWfdbuOkZddHqNZTtcsPQGcR3OenLrVVJu0i7ss38KoxmgHEwDam70jwLeLd5HQwt0gy3bbIxEi9iEAgLYCB0Q+cZWseNu3+P00A2CB1a9fAReR1Hs0eU/GOf6TUVDKuBaHesstpPytNuqU+Imyml5VOgU27KAxxsXI6SPFMeoEaMjz0gqefSoEZrVnVML6/arP08TGTdVvM4w1xq5lZjq3JRymtzE8kPFFXpY4X0QojSrycbkZpINOQip1tM/GbbqcVbnqcTErFH7Zx0TKdJ12fSo+vTNAbXLiwIlA44QajQc5OaxElLZLuQZTIJiR5GQtxfKpPewtTiO1clPxLZJYU57GJgt4c9CB+Lon0LihfJ9sG8VHqfUDgk55AoWc22YlmjYzGJAgI3Qi1+WN6atkeYcci5Dp9CozJO/OnZThryJRqP4xje+gddff13E3377bfzu7/0+yhv7EA7HRJqqwnNgF2ojU0Amfx0uhV31aaXd8p1pVpwCjjxzKks8yxFeeVo6r3JCIq7r5FSJVsaqV0vLQU9z5rMOViHTeafVGvCUkzVCjAhloyYuw8Up4iRPPhuh3/zN35SxXP7JP/kn6OnpQXdPL/7pB8Mi7S9eOobxsVH89h98G5UN3Tb1noO5UBsZNxltsvhDE3Ytp7XQLd+ZZsUp4MgzNUl9ep4Wdjcu9r0wNTLsNGyWGVL5Yu+oU+119DRnPsUDIxTghcvlWO7w4BS1HTZ3797Fa6+9JgzQ9ld+TWwc5rTU7oaUYngom6PaMCKI1TejobcXLT0dqKkp40SRlxc6IMOIItHeicZ6KuOCEUqguqsTNVU+jt7S14HKuI/6CSOcQN3AKRy79BzaGvXTkdvj/jQ6cBTS1jpFopfLUZqlVPUBTy0lfztWFo8jGjMvjZxwOuc/DHgSN557DsePt6AiSquAWBUaTz+Hk6eaEPFliMpQ1dWN1v52VGTvCltEmrrQcawb9dURmeJEGQtlMEx9NQkZLUCs4xg6anYx9/EdzC2nZapO1hDZTZI/4j0D6Orz2RiipDqOUx0n/dcREKBjN0IeI5DnpdoU7ceP49jZczmGiOPHzp0T+fn41V/9VddtdXUV7777rrgEq/jm/0dsHOa0aLxKljbhb24quvvRHJ3FyLVbmBwaw+zQIB5cG0Wy8SQ62+XqJhJFxGFujVCEkumAhaGi9UFZC+qb7UKGEUNdRz3CGZmgwXWHYmSII0qHROtDwwgjHCPjRflGKErtj9plqV3xRBypjTXs7O4hk+LsEMJlZhmy5IiVsUJTKSeFK8qpj7VK+KxwNEz6K6L2yyfSH62qQnlludAZ4naw/rjUH42jjPSrOkMZUdgszX1Gzc0eD8vRMfMfnzLqJy7PcL1cRzXVQXr1OjisMEhZWNpxI0MXgdwGro/6sKw8ezwGpYXK6bj5GGV7Ap5sIh0nzvxXMqzBg0Jt7mySsahv5onbgrWlRWQyGdMAkWFixuiyitOc7K7OiZvOv/d7vydT7PBXzHfu3EF7ext++SufxufO9uLmzRvixnRFQxfl0+A2JWlrQOvpemzdG8TaTratofQmNjeoPeE9bG0kEWrsR/+pBNamVpEh/TyZqk5eRE/tBhaXMqjqbEBqZRvVtSEsz22QwSBdrK6yAx2de9hcq0BkexqrpJOmCUIVLeh4hgxtRyNqu7pQX5PB1uI60qJQjFZCrQgvTWB9uxndr/eiPNOAtlNddLnYg+amCLbnVrBHE7XyxAW0tdAkTFSjurkKBvXjTqoJ3W/0IhFpRcfZTlRiBctLeyhvP4meF/rR1NqAuj5aacW3sLawTXUC5d2n0Pt8H+qamtF4vBmxrSVsbmVQfuwM2jsrUFZJ+lsrkJpewq5B+r/YhwrS3/lsFxLGClaWa9H1pV5ERuexI09ZxcBz6GnZoP4wv5UMVTWj49VzaDvWhLr+HtQ1ZrA9vY7oybNo75V1dFAdE2YdXV8jfcOkL22el4qzz6K7dRPLs0nqX2rD16lfqA3tL3WiIrOC1YU9UUf7Z86h9Vgjavq7zDqmVL8GPKnkXo7x+fZxzlN7exj++LYIs+EpTyQsA8TpnO8HNgjpdFpsqVTKCv+bf/Nv8Gu/9mti43Bydwfp3S1ZSjaxvALx8Aa21nL/YqZWpjE/T/JkUDKLC9iIN6JOLaRCdahtymBtdlXkM6m5WWxWt6K+QkRFuyrbWxCen8G6pp7WXmg604fozE0MfvAR7r1/HYuRLnT2VEoJJ9WojE1hmGXf/Rir0Q60tJmXqpv3r2NyJonk3H0MXR7Eyq66TVyN8tAEht++jNHhLWpiAlUtEWzeuoJ773yE++8MI9VBl4iV1LBoE5oHElj/8DKGfnwV968u0CVkrbgU3XlwG1MTpH/mPh68O4T1FOvnGqpRERrH8Pc+wOj9bJ96nXc+5sYX+hCZuIV736Y2fOsG1mI9aO9PYOcu1TFKdUzew4Pv3Rd1+IPbMIHRP7yMsTtbZh0vUx0jN3H/mx9h6I+uY5n6tf2UV78GPCnkGiGF11iiwa3QDdHJZ58R+2INEPPczz+Hn/vHP4df+de/gl/4//4Cul/sFulf+S+/gvbz7dY+JK4PsoSiEbpUSkOtt/jyp4r++vecl9tAC6JcR2YJK4tR1DSbAzpU34Tq5DxW1kXUJLWIpYUy1LdXm+0K04qjOYUV+msvUP1Bf61r47R6WEojUlaGaNTAxtwqYvV18h6UFLT6j1Ysk+vm6iq9Ru1IoqxKWjpPtrA+voIUXbYwodAWlm4MYm4pBSNeTuXpUiadoD1lpraxtxNDRWsj4nxlvDGNqTuLSEvj6g7pH11FilZjvqhtQm3ZAhbYYJHeENU5//b7GL6rGbCioTYM0YpQHiMt42h1RyuiaerXBPVr3MDmBPVrax2d4+yYC3jy8DZCXufdMbiVIVpdXCrKADE82S/89AVhhBZHFvGdf/Ad3Pq9WzS5zZsH5TXl2FnbsfYbcw9EOsPNM3Z2sRctB992MclgZ2EGS1O0bYZRWUGzkpoboqPcnF1AuKkJ5VSwuqWBVh9z2LUdCw36yTkYLS2oJPlISyuqN+ewrM8zFo/HEQvXoPnsWfRdMLferoQwGA4TKfdpGNpVaXovldOHOma328uIb9yO9aPv1Rdxki7J2nqqEGY1lBcKbWLu1hiStZ106fcyTlw6joZ6Om5p4N0h/eIeuKMdVhGVLvcVdMy71NdmTGDm6OUpnO+4pO5sq1QbJFxHpAZNr55Fz6fMrYtWWtyv7l9/BDwpeBshQb6BnIUNz/jgYFEGiGEjdOIzJ7A2vYbv/3ffx/iVcXz8hx9jmC43vvb3v4b6nnp847//hthzPBR2NDe1iq2NatS3lYsoz4HU+jLWF5eRCcWR2dqyJo6xsoA10F/0ugbU1G9hdXZH5mhszmJ5pwkNjZVoaKumRcVc7opiN4m9vQVMXrmGoY+uZ7cbkw6jdoCQgenoiWH9+hW65LqF0Wtj2CAjpDBWZzBDbbj3J5cxORlFwzM9SGhdpS7y7NC5FZaB9xkKxhDRvtCM8E10xTYZIFqB6ffDDbLs+umw1aH0aU89RMrtJjqHberX5AKmv30Nw9+9nt1+RP0aPqR+DTgS5DFCeQyQnzHhQ4aNUKIhIYyQ8yb2H/wXf4BMKoN/9qf/mdj/i1/6F2RkrCWPIBTaxcLILKLdZ9DeWo1ImNociiHR1k/xPSxOLZOM2ZBQaAMrCxnUnOhB1cYCVpIi2UYolMTK1Coq6ZKuPr6A5QWXr8zX57GaakYLrX7Mb4KiqO4/j77eKnE8Fnm6rxhYjUGTMJTZQ3KPJ7eBSEM7auX9LaOiDd2vDKCan0syUkhu78GIxhCVZzaTTiFaXUmrNLNB1GKx550MEZtIblRQ3zShjC5xy1q60ah/U7i6gNVkE1r6q81jjibQ8umX0HPCtFqijtpsHXypJfQNSH2tpK8lz1BjVuaxRv3aNED9SpdfBmmrevY8ek5TvwaXY080BUZGHvbxx+lXfuVXxE1oZmtpC/W99fRX1d6UX/znv4gwzaRf/le/LPZf/btftd0TUtVnVobx4O4CIh2nMPDKKzjz2gvobg9h5eM7mN+wD96dmXmkEnFa8MyLb8ncSC/MYj0cQ3p2hqZSrkwotI35T0aw13IO/a9cxMCrz6K5Yh2L0+uWwVMc2NRZmsTMUiU6Xr+Ek3R8fT0ZbKv7WVsLWFqOovllyvvMyxh4pgZbd0bIUJrZu1NTWAl34OSXzqMhZtARuR3TDhbvTCLT0o8TX7iIrp40VmfYStMRkNEJYRsLHw0h2XEG/W/SMb95HtXbo5i+b64md0epjgjV8XWqg4yh0HdzCplW0vfWC+g6TvomXay+hqjj/RGkus/hxFcv4uRb1K/V61gapX4NVkJPNPafbehYf9XzDIBCs6xA/vbiBM6+1Yvn/9TzGL08invfvYdqWtFsr25jZXwFb/yVN/CD//EHYv/bf/W3ESuvRmVTnyxtoldhRCKI0mogrW52EhxiGX5+xoh34NjzlTTYB7GR96asKGEGnegVRmIIZ5LIuOni+mhny9HLKlzSRFt5T5vI5jhd4oT5RjgdX0peY6pVjZCnNkTLI8jspiiVSppZAvHsDRv5NK02yVCKcjLfah8ncXaUAvJrdYGQY31Uig1SWTkidMy0+DGRegxayYb4Yaw0JUhjzEMoFFH6WDCrV6shF1rJiX7VzmPAk0vpK6EDIF7bgpu/fRvX/vU1NPY14ot/44s4T39N08l0zk3pWHlVjgFyEuKv98XA5QHPm4QumSpaO9B2qg2YmIB43Ccv+uA39Vja9Kz0nrsBIrTaDwReZRl7e7SClAkOQmSJ0soAORArNLYIckXhfo+I0nk05Jn4Qk9SM0AaIo8vm6QBYkSwFENCVjYwQE8P3ishRb5cPzPNIaOGlkrO0IDbXZtFameLwrsI0yUXX3alk/Ybx7FELSobemQsi1sTnMPXQBWa+lsQ2VikK5sVpNREcRvnfo6JKSCnFpK2KtzKONO0OJcV0ewHpVGqlNFXQllkjXqaa5gCIqzLy0xLhlAy6oBUXGHJUsCZpxDp/JHNc5EKeEoJvfgmGSFrILmQL48plK+Qcvrgcyuq8l0nMeNSyJm0rwHu1ig3/Mg5ZdzK5JHh4xBRmcYXUiJVxn0ZIT3PJifJyZcJKl3suU5HutYOC2dcIdL5Q7aNyIYCnnbMy7GHMSK4Djlu1XZQSNXWti/8Ktp3Rf7w05xsX0qpfXWuszavmlUlfs9mviMIeJrJ3hM6ImNkX/PnoCnUJwfeZ4WO3llhgQbo6krq2EIH6FB64P0R8DRgvzHtaxDRwOOludhkkh9YljcfdSi1rqKcqG1KrULF9XQ9v2hUXV7ky/ODrXyusmzbtSMisWw6RcQ9rtyyNtyyvTqGzq2oTezVP5HsQFdKmV76XBD6zGDAU05p347xoNe+BTks/AxSZ1P0VqnwgbS0aCU+p1kRItbeUaak43PWa4s7NDplPfEtaFF8iYAnjSKNkGPIlDq7iyjHNfoaqKxT6tWCj45SZ5dHw5W6AzFABSi16QEBpVDaSqgUnLOlyNljTUK5eXJY1qfYmXlY7fBqSKH6/LZfWblijzcgoEQenhFiDmhi6mrYFdDGwhhWJj4WG4cflnugR8c+LUSe4ubDju4CJV2BB8YsoADmc0I6boPGlsYRx2gsdaDlK6flqWnhnANpMjbb8w/wjZ/6SZt7oN/+nd9FRdNxhCPZl0CUMn90RP1e7XVNp0SRrtUs4vzhJ81MsbJVothlZbVSlkjOntHC2R/aas9OyyQziz40eeu4tTSBiMtWWnkUd8oVwHYMAU8dD3clpBGLx9F75nTOO6oteGRqo9NtoO4sT+Onv/FTwkXQ3/t7f09sHOa07ZVpKeWOeEdPWycaO+XW1oSq6grqkNwZpFKKnFuHghGrQW1PnfmythIoVMrs5xDVU4uWF46hml/AlIM6G25nJSCgOEowQgcz8PgHj2XxcvFSfE9DROS7BNjb3RCugP75P//nWFpaEhuHc90DuVGGqs4u1NbEECunrbYRjSfPo/+5E6hxe/GhnPT6lCzNDOyPUFktmvoaqPUOfDemsCB3OW98joS4Ogdib4sEBOybA1oJFT8d1RsZGd0Q6UPcGua2SBFoZbiFua00sD09jJmhEczcvYuRq1cxvppA+6kuxDWjI349rnnWUHqEVwnxWkdKoUu/mPKS4cBZXqaKoCjP789R3jhc3p0j5MrjpvcLF4R+4YJJ18/BrOcOQ3rj0PMpYn5y+TJH+b11LH0yiU3hQIA3M4s9YTjrseA6Eu7HEBDgRaTjpJu3jVIwB2ox8IvM2FOH8NrR0oK1xUXzry/hqs2RmE5uo7KiDJ/5zGdw7949VFRU4Jd+6Zdw+/ZtDD4YR1miNs9zRDFUdbQgvDyJDempI4QMkitbiHaeQOUue8sIIVTRjM4L59De3oS6ri401GSwYXnWaEL3a72IpxrQcaYLde1daG5PYG9lCbvy3ngo0YKOZ6Vnju4u1Nca2Frg8gyV/4z0xnFaeuNolt44Mub9mlBNO7ovnkNrewPqu9oRzyRp1RbCxugy9ujAQolmdFB+Wxfp7yX9dRlszWbb1/UFah/pbz3fhcbjPWhqC2N7yvT2wUccrqTyL1P5Pjq+Ez2oa8hgm8qnuOybvYiMsAcOqqeajoO9bfRSPSeoHpLbkp4w2B6VHzuF3teOoa6tGY2nmhHbXBIeT/xg9n7A04rdCHn9ASs0Sor82kSXZkO0tb6Glu5OxOjybJUMEePUqJpmVUX7aLwCN668i/O0kuIXpX3pS1/CgwcP8P/7l/8SicYehMLKPZBZTm+m4WKEBMYuTfwu1BjzWF4vQ8uFAZTN3MSDu+NYnF6A0dKPtvJVrKyylUnQxG9HlTGFkev3MT8+g82ydnR1xbA2vUoTNIHmZ04hzuU/ofITVL61H61UflmV72tH+cYDjNwYxeLkOmJdx1FLda+spWl1VIXW508gMn4Nw7eo/OQKTfYTqC3bwgoZoWSI9F8cQHyK9N8cx9IY6W/vR0sFtW9Z6j/RhvLVBxj9iPSPkv5eKo95rK6wgahA08t0fJO3MHxlDIsjS4j2DKAxvoTlpTLU9ldib2ge25kEml4hufGbGP6Q6nlA9XRTPQmqZ5HqiTSj/fVGbP3oCiY+mcHSfAS1nTFsTW+ZL/jfB/srnYvfNdpB1xvgzSO7Ma1OMl+GdfcPYHdrB9PDwzLVGzGIuDD9+d1ZncOJ48dxjozQP/gH/0BsHOa0nbU5IVMs/F6cTCpFl0llQBV7mWC/XGlE4mXUVgMb87pnDWYXq+NztHKg1UKYVhFjU9hINKCG33zKnjm4/ILDM0ejXl564+B3/bA3joUkyirlTalq0hOew8L4DjcMocwOFkYXqC5JDbdvGSvzpL+c9JeR/hnS31SHMOsXnUz6JzT9c6a3D1E7l49JLxriFbLbmH/vfQzrboAY9rZRvoLVGaqHVp7CE8ak9ITB9aR3sLcdQwWt9oTHj7VpTN1YRDp4I2KAD/ZhhHgYq4lUGrqzxHyeOqxaaMBvr8yI54GWx2+hr7MZf/kv/2X843/8jzEyOS82DnPaMcpbmbglZLeojGWQCswLvo/CN6r3tmkisgfUcA1aTp9FH3vXoK23ky636PIke3smidSuDDJkKFJJmqj87n0yXOxBovk8lX2GtmepfLfumYMbY/c6kea3lqnVAxu+5B7VkMXY2ZOXcgR7/ojUopn09j1PunnrdXqoIP3aS8jYwJpn3YDh5kVDnFaqX7+SYjnqh6aXSP8r5tZzgupJm/WEQhuY+3AMyfoudL/5Mk68cRwNTZQT3BsK8IGPe0L6QFIz2GVwWZPbCnjCEpECBohlnLWwATpFly+//tf/Gr761a+Kb8H+0T/6Rxgm45No6ERZeQ3m5mZw785t/JW/8lfw5ptv4ktf/AImRu5jdnZGvB5WQMrZG0SlvBxbp8sxq9WJDnT0RLExOoOtTDXqGrYxceUO5qn88jRtM7NYnluXL0bjy7FG0HUaNpOslJJostYfq8Du2Cy2DSrfuI3JD6j8NJWb4o11rMs3qFbS5Rhd8ozxJY/ZgkhdK+pjq1hcoNVPpAp1dFmzPb5MhsLMD9U0o6XZwBrfE4pSfhPpf+cTzE+S7gnaxrkO1s/t4csx0q95Qg01SP2zZDkjlajrjmNrZFms5Lj9Rpi9aJCBokuw2gF5OQY6jtZtTH2PjmOE9KttTNbDbG9gg+pevDdD8k1ofa4GO0NLVrtLZX+lS+dR1fs0cgCXY3y61OYffrE9e1UtxldZcnMZf/7P/3k0NNBlSk2N8NR6d3BQGCCxeqAtUd8p0jiPZViWy+xS2Vy4DO3YeJSVo6KpG73nuxCaHsHiNqVtzGM13YxWWv3wCkF41jh5Hn09pmcN00iWoaanHVESMIwIEsc6ULm5hLVdUryxkOuZY+BCrmcOL9aWsE7lm3tk+UgCTX2N8qRR+TXp+YNWPyIfEVSfpfYdrxL32lQLqTIR1mvkww6tmV40mk9Umx4uSH/zay+h91hcK0vbqllPM61+zHqiqLpwHr2nZD8kWtH9+QHzmaJ0is6T3eNHQEA+Cg8THoTW6LVFchGGQIY9MXXs0WXA6J070gAV0OvBHpXlm8+iXkJ84cP3NiiN87wQNYkiITScew3nXn8FZ547i/aOCuw8uI7hkTWhU3jWuDOCveZzGLh0EadeeQ4t7FljVvessY7VpSr0XnoR/a+9iO66LUzfmRIrJVH+Yyrfeg79r17EwKekZw5aCYXEC53zIy5zPh5DuuMZnP70ixh4dQCRmRmoF9+yh4r5G8PYaz+P/jco/zPPoTlB+mkllG2fO9wHovzVISp/Bv1fovZ96TxqtkcxNcQWOIvwhHFlBKmuczj55kX0v2l6wliklZCoZ3MRS3NRNH/2Ek6+dYn6qgZbN0Yg7r0HBBTA/rMNNztAf+m88Rjo+YpQpiqlh7I7M40/nWq2l6fF5RivbJjf+q3fwt2RaVTUt4u4wk1ukOXqTDlLr6MCj6MxxZRnDXnZJIQzTej5dAvW37uN5UwMsUgGqWSa8jRNqg4un/b2zGHDEWdvGXzjmSw3MpYnDN5LQd6xhwp+8b5qH0PpVswSpYAMCzhK+vk5oYghX2Kv8i05ebnKcbqMFsdhtUPCemjjZ5EyO7QScjvOEjgYLVmsQyrAQdcb4M3hGCHGs1jpRojbsr06i+TGkoiWVTWgoraVhB3toEnllEs45IRuRwUOLRY2MY6QoGifboRScqI6cR6EM84UktHPgQjqNVGCnkZhWztUUbl3M0LmEpKxhGx7cWR6GcYr7kw/AGzHs0/8Nu8g6wzIz+EZIca16D6MUDHkKWzpdsgIG+VSzk2VEDWq0XSmDtuDY9jkL7Vk2204C7spKyRjOwdUhy2fItKIqObbfmirwnJvN0JSlxVntHy5F9r1lY1NXuIo87DRWpcXv83zqy9g//i4MSH3B0zWAOkcvVOfb9CGsI6FT8axaV2aHNYMzPZLbg9lU7h2qyUUcfv7ESJjkv3nos/lMsrr71CuZEBA8Zg/GvcYsCY01HiJIJYJzq0AriLsuMaZkatPb46PmnLJU0jpdh6S6AMV9wPJKXFxg1YoVMha9CQ3PPtdYuWbiszzxB9yEwnZjaMcyqaZOxGSUSei/WaQyJax7T2wl310cDP9bKq9hTYlH3D4hEWPE3L3aCnQCDVA1JYfGkKFhew45EsfhAc0fPetJntArl2h6RdBK56n45xleK+lPWk8wYd2ZDAvx/xOVr9yOqWU8ckhqt6H8gLD1nbDphQKlT+oaeOvA2y1PcnWKODQsO4J8fBR24FTzIT2kOXk4tror9JimuZKXgUl9KZnEY8MUT9/aA2RooWOjcWyl29ukIacS0wlLffehQMCfGG7Me0Yyo8OHvsyqKPS1P6wx79t/j1WuPeMnlpQQjt2z26wKXTXGBBQCMsI+Z5wpU5MLldEWfEljSavhnjR1bvUq6KsU9dbtO4jBR1J0XbAu4B7X+i95JB4fC12wCOm8HNCbjjlePyVWtYH+W6j6FlGOoXN+WGkk+qHDXZquy+IvZouetl8U8jtj7xN3tYIpzBJ2pIoku+ZG5suuRfIiB95uTe/hCdUUdqrmkWSuBbT2yIFVUnO5phIt+sS6GGFW9oRQjvavOiH4bdMQGmUZoQULK/OkN+yxdbByDLOwaCrUgbolz9Vh7/wuTaZmuX137iG2h4yQlSI9bg1w2uw5dgVwpJ15tmEpZRNhiJFGyEt0Y+83Bc2QiogsRKzRkgQGKGAQ6Tww4r52MfZEd42TrO3DY8XJ+twPbKulbGb1raqbWuTn3gaIBukxzlPjHg9GruawL8dLwYjUouW032ojvPzOVEk2jtJj7k1dbaiuj5BHXyIs9JLtY9LI10ir7SbBc7hEI8x4IlnfyshHb9lpZzfF5rp8GUZG5+3/+vnZIp/rJUQo7WVX0VRefxFHGuPYvXuB5hczD0Qt3nIE9fgF56dqMf28AjWk5VofekCqrZmsMUvOQvHUFZdj/L0NMaujWPHWv2QMs+VkFeeJqTL28oSVpx0UKPzrYQYEVd52ocoJ9OzB2/XJcgW0tL1Go4eflvnOOqAQ8S+EuIet3qdT4M1srzxKWYh62CjY3nbIGPkZ0Wkz8/9IxseqkVtUwbLs2uoaW0yX1cqUd40+Blv4U0jnvWmIT5T61gcnsCm9epD9t4xgpn7tA3ew+iHt7Ac7kRLa/bYhGeLHM8bCkpjjxXlJG9rRxjhMk4jiVgZYuWyHY7+ELr5bYyUrWeK46C283HoXjf04hwORaKIVcTsuuWqSuh29bQhBal/HgdPG9w6Py0U/WEGAw4Z+0pIxxpoBU5FqWNOlit2RbQ6aq6EPvtf35Iphfn+b5x3rIS0RtedwKljZBBv7KDtpWasX7mNlT3zmA2jCT2fasHOcAq1XZUUp4mWXsL0J/exyq/ckb+i33zvNhZTvBI6j8jQ+5g2f7xPhFB16hJadm7iwci28IzRfqYPVZEUMjThjdVxTNyexi4ZCSMDlHcNoOtELUI7KYSiKawPfoKZhZT5a/0vUDvuUTt6K6lhMUS4HdfvYW1T1lTZgo4LpJvKZaIxZJYnMHljErspNj1N6H6zBbuDKVTRcUTJmIQ2pzD+3ii2KJ/PRXnfADpPUd3bVHeM6r79CWanU6Kv2NNG+8U+VHK7o9TupXFMXqZ2Z0g3lz1OZc/Kstzu61R2Rnun7BElMDJHg/3dE9oPPAJoY6Mzfm8Q8UQ52o8dM/M8OLBBY/11D4nVz97CHE3WBayuVqOuid9Qr1ODupplDH/wEe598CFGFqid/Z2I2VYD7vDlWnU1v1Zki+Z5BZrIAEVnbmDwx6TrvetYDHehs4eMChNpREt/AmtXL+P+B1dx7+YCIg212gvxqR11Sxj50RXc+9FljM5SO85TO0izgQSayQBFpm7i3g9J959cw7zRjm4yKryCMakmIzKFkR9Q/vc+xmq4Ay3d5rEa0SY0n6W6f/wB7nP5ywsIN9bQqjCDDLW7kQxQhC6D733nI9z/Y2p3pAsdA6rdVPZCAutvX8bQdyn/PWp3C7X7iK+IAo4O3kYo781NHmByk8Ykm1Yc0bLivG3sB9sRcYQmfm39NlbnaJUSymBtbhkVLS0OA7OL1QnpTYNktsdNbxq1/CL7nC4Ko6rvLHqeOYve555B/8sDiC8PYZ7fLKs8d7BnDKfnDZ6w6W0kd2NINJkeK0Lr05gaXMy+w5nbMaq1Y3jS9OrBjjmqm1ATm8f82DZdsvIdnSRW780iTQY2Qdnm0ZheNzKUb6Sk141qPggitYPkDtXdRnWza9fVKUzdorr5AOuaURtftnna2FaeNliz5WmjIfC0EVAS+VdCeQ2RE5YtbuBZl2JULN+l2GEN50hzM6pDMVQfP42eM6fQ3VaOTGUz6uQfeZMkUrq7iwxNuj2ejDJuw8Du8iyWJmawuLCLcGgNSyOL5kvkhWeMGlo1nBNeN5yeN0LhTfEq12RtJ3pefRknLh5HQ53usYLaoT/+JLx6xE2vHnR5FdtNYk+3nWTU92Jx8K0kkzQMrXuVVw9x1vg1slep7rou9HzuFZx8/TgaG+W9ITI87NGj6ZL0tPHqWbpkND1tsL0SZS1PG68EnjYCisbFCPHgUZsfipHNknMvKEUzxMPaKO3F12JHL8/3d2rpsmFndgyLcwtY5m1mEourUdS21miXMTTB5YJBEKpArGyX37TqgoG9lQVsLC1hffwBFjbr0dxbzZXRQoaMxN4CJi9fxdCH17PbtUnsilUDrVDWZjF9jS7XfvQhJqajaDjfQ5dQpmbRDl7WKMKyHXxvansXSTJycb3/KssRo0YmxcvWsrh1MacZyzOYfv86Br95GRPjMTS82ItKHh3b1O7kAqboEu/Bn1zPbu9MYkdqM8jwzrxzHff+4DImR6ndl3qQsNodEJCfAveE9jvtvQmxt42d4rxtHCgVLaivWsfS+BzWFxetbWFiEeHGJmQXQ2Wo6W5HLMTPApneNKrYm4b7Q9kWodAeloanEWrvQwMbsXXpGYNWP8JjhfC8cd70vEGrBqO8FT0v9aOGLneQSVHfJIXHioh1hqgdfR1Zrx79naZXD27HxjzW9prQ1EdWinWH4qjvb0V4ZgH2V9arM2o/r0Yl1f2ZAdSwtwyDvWXIutmQrEhPGyc1TxvPaJ42qGz35/sDTxsBJeMyVJx/K+0D1hO3P7F5EN427ipvGw8HvYlxuhQrX1vAmn6pRRg06dbRhLp6Jb2O1eUq9L70IgZeeRE9tVuYGjS9aRTCWJnA3HIFmo6zm54tzH88jL2W8+h/zeF5g1dCW4tYWo6i+cWX0P+pSzh1rhZbd3WPFdSOxSr0vU75b7yE7votTN+aNL16SK8bydbzGPgs6f7ss2jITGBicJWtoSyfhw2qe4Hqfv0S+r/0Mk5dpLpvDou6he7Lw6anja9cRP9XpKeN0TVT9caC6Wnjc+xp4+XA00ZA0Xh/Ra+Mjy1XDWi3Itpg92m3suh15Z806iv6YuGv6OvkV/T891wGHJj3SBTqK/rN929jMU1/3WMZpHZNbxq2Vup6+NJLkXM8lMBpkTLTcwc/+CRk+MOUM/geUXkEmSStKKTnDMNoRM8XWrH5w1tYStnbYQrIHa2oQmVliKSSSIuySj8h2sVptLfSOEXpMER7RN3sLcNWlquiuPDooXv8IKSMaDddO2Z2UqRKyz/CPB6tfPIJvfgVMkJqIHGCFZJowexpsyVKHKfUTcQVZ135hwYboVLZlxHi52kkOS3U9ehGiLFNSMoT2TLNEpUBt8nLRXQjJJ9hsrB0ECpsS9PrkhmanG6EdBFrT5hPVWv1qmPUZFx65cjz+LX4yUQYIR5LPNDMMZUdWXySODP3ZIkcEeJPM98hZZuMuRpyyWrKQVflB03eq2ZVW/YGtIjJvYmBajSfqsP2vTHtZfYmtphVnwxYccJhWFR/ipp0OYUzjeLcjqYLddj5eBSbKe0KWu9jFdTLi7A0MzJdmBqHrGqH2Dnz+EM/BpWvcMafMuxnN6AULCMkEAH7qDI72dHVNhGOeJwK2wTfB/YmFUaT91uzPp9dseXzxYqm2cqTAV3WxQgp/BohC1FY6aOwyrPJ6HutlVq6cyWot8NqH+3NsvSp5dvCjDP+lGE/uwGlEM6OIRVydqtLN3OSleznNDzEkVpiVXzLQ91icUXLs1+0Kbwr5hy33H31yr4KF8bPWQ0IOAg8vkj1OQQf1kj1W4/LxCx2rqqqeO8M62lHm2wr92erHEfrVHbIhjDg6cBmhOxDzud0yyvGmWp7dJRqiBhbyx/tYXhjLePUPotnk106Zd82xbOygABvNCNkjiB9HLlfdhQBFz+ogelHTx4ZnmDOjXFLK42DOtD9k9OSAgemsq1yunwxnbK/Dgx4SrFfjslRyDvfU8rPwFPKfCvdB6rxel0e9bo2/WG0sWRU4/J3elG2gIStQy6qYEDAwZB7T4hH5IFORDmylc796C62bR7y+VTknYcFJ2kxjTtgVNtsbcxtsDOl5BYX7IuAAH+ELvLDig6sgel3oLnK6YkeQ30/A9mlrHjZ/Zy3t426XvvrXQs1O6fVXu11puvfwxv8UjET1md7FIDCBetwyFs45RhOU+myInFJrcmayfQh07y/npct0/I9w08xOecvoGjyGyHG72DLkdMTPE5VqQPZpZwyQPm8bVhGSEF6XJsgE7nVHLRaL+VzjsapxMMICbRI8c8Jyb2C4jnnijYhJmVFvgyrvf7AYrYN/JZEJeDyfBHjFX6KyRkLAUWjXY6pAUj/ta10+PSoTZFVaHnbKOM3YfnFwOrITfHTDee2NlHY2wbXbm30oVojvG10NqFMpciZqfIt6FByBl2OEJOVsmVTpeIX8B2daKrnt/HkYoQTqO7pRE11Tk12pGI2KBxUx6PXJzToCYSIammqTNYAmR9yl0UPBwQcILkrIcdgKzAVshQ5SMX7hM4U522DYSNUsrcNfSUk28uTT3jbaItidfAyJhYzIp3tkDokWx84jjPePoCW0ATGJ7dkCiFkTEHbjzmFEUqg9eVn0RyexvB7I9h29HC4ZQD9Zxuwc+9DjE7wO55lBlNMWNsrY2QmWYHcPSPCZptsKzU9zDjjTyn2sxdQCu43pkuhyHJsdIY/0b1tFLMiOkBCdahtzGB5bg01Laa3DetQyIBE2NuGWiUQ7K0iHJFx4bmiCuWJ8lw5CppeNWSCDTJGZS2ob7J3v5GJoa6rHmHTDtpgfeGKcuqnbEcLLxplVAFnsjcQ5YVDovLFe3+ilF9B+S5vPOT8EK1MdU8aXIsorzyMlMVRVl7kSQ4I8IHrPSGBTC1p2FkaVcBbi21FREYplcy/IlIroZK8bbjcE0LdcZzqI4N4axdtF5ux/tGtrLcN9nIhf0W/xD9gJfnyvufRFbmH+0MbqOg5h472KsSRxO7uGuZu3Mc6yYUqWtBxuld4vkiTcTDWJjDx8SR20qRCrITOoGx9B1WxBdy7OouMsEUhGJVdOPFcOXbWGhFbuoLRcX4tBs3/9hPo6qe01B4ZrxhS0/cw+skS0qFm9HyxBTt3U6g9Jr1wpJYwfe0+1jb4kory36T8Tyj/OL+mTeZfuUf5fIBUa1UL2l+QHkCUJ40PpQcQowndP9mCvXsh1ByrQHLoY4zeoRWfOq0Bpc2PABu5KyHFfnrXKltYCa+Ixu8PIk5/5dt783vbOGj4Lz2vfoS3jb0FrK5VuXjb8GZ77DYmZ5NIzt/H0NUhYYDYyDSTAYrM3MLd9z/CvXevYT7Tju4TtbbJm5qdxWZ1K+r5RfUEvwuosqMF4bkZrOsroVCC2hjBxq0rGHyH9L0zjL2ObjRYr36sQV39sulF4/t0CTdD/XiBvYHIbM5vWMLI967g3ncof4rynzO9hQgPIGSAouM3MfhdKv9thycNQTXK6XJz+I8umwYoIOCA8TZCTF4bUuDPoashyi3DK6HukwPY3d7B9OjhetvIQXnbmGdvG+lcbxuFbKhbF1Q1mp4vprboao6/ZUpiZYRWO82m5wuLvUUszpfR5Ve1MECINKCuNYWV8XUpYBLCFhZvDGJuKQXEyxGviiKUTqCsSgqwF44HmheOB5PYqKxHjVUZ5Q/NI02nOkTXedtDnN+AGrYztc2oLV8xPWmUlyFaZmCDPWm01NElIRspZhPrQ8vihfwBAYdBfiNEuM2zLPlzc7EP5JxLMb45/RDHeqSpyfS2cew0ek6fQndrOTIJzduG8/CstuVpJHvV2KXVkV52exd7Ud3zBWNgc2IOaGsRL7OPtLaiemMOy47FBr+LuvJYP4698iJOXuxHW08lwqajDEkSKf2l++yFYzeueQPJeukQRdK7Zj6/95o9aYRr0PTSWfS9Ym697EmD35LIsqIDMmQkRcSk2FMeEFCAgkZoX+SZq64GSJGn3EFheduYc/G20aK8bdAE5Pso2rfpkZjNkgi0p2qAnVzPFyG61IyRpUimZYJifRbL201oaK5EQ2c1rULmND9jkrpOdPTEsHadHQvewsi1MWyQEcqie+GgNrMXjjgZPet5TYeXjojMZ8+t0pPG5PevYegH1zH0fd4o/PYEdrkZgcEJeAgcrhFiPAyK8Laxu5NrgB4W5c1ZbxtLi3JbwPyk8rbBM3ALu1sVqOlsQiwSQayuG0319i5Lp1OIVlbSykHO2M0F4fmiuYuWU3zfhT1fHOd7PQukzU4onMTyxAoqj59FfRkZwXmnlSL4JfiZPST3yCCSvkhDO2qtSzGmDDXH2xGlSzHLC8fGEtbYzYZoEuWfbEckRG3JUP6pDlSuy/xV6QGEVj/Kk0b1sxfQd4ouEdUlKaNWQoFRCjgE9mmEPCyMEyWmiRf0tsGyPtWXQrxF97ahKgvZvG2EwjtYHJ5CuqEf/S+9gJ72NFYW7O45krNTWAl14MTr59EQ5a/3tzH/yTCSTedw+tWLOPUae76YxPiwu+eL9Pws1iIxpKdnsGW4HPDSJGaXKtH5afbC8QL6ejLYst02WsfqQhX6PkP5n38J3Y1bmL7B3kBkNufPU/7n6XLuyy+iu4nyr2teOq6MYK/rHPq/fBEDbz6L5sp1LI6xJw2tLTxKAgMUcEjIr+jVCHNOAs5ymRga+XNdkLWVUo45sIcVGXXYNhyJ3F7awmFaKRg0G7Vs87mgEDK0Z7c9oTQtGeTk5axQ1PSqYXq+YEUii8gevXoo0kpRMpYsBUlZOFaGiLEHdpyq8gwylvwV/eb3+QX40gsHPwcQCgt94iv2r1D+t29jOUP5Uc5PiRvm2XpkzcKTRhIZbqvWhpx2BRwqVn8/RRQwQpICA7Cojit1MMtybIRKpVQjZEMzyuqJYiViXtLIsOoVSrBUCKPFaD1GSVbMEiS8wozUI54DUkYoma3P1MhGk4zUV1pNI8RLI619VkAdj16HDFtPTOt5AYeKNRaeIvwZIabAQPTdeaUO6JxynOBRq986XOX0RNJvGQ6JboT4Q2bzzm6E5Ccl2DTYIlxGBhg/YcYyQjVoerYOOzfZC4dsl8jierkt1Wh6vh471818lrBUWXIipmUQHJZxoVXPCzhU5Fl8qvBvhJg8g9F355U6oIsp51fWU05l8FFRWJcjI2Q7VpnHO90ImZCsozhH3MoL/IQZW5wiHFdpYk81KOOppcujMbHkREzLIDgsystj1fMCDhXb2HhKKO7GtEsPcdJD6bhiKjmQBulKVNhbcb4qD6Q5XggD4VUDp8tNiKi4wq91CaxQwOEh77Q6B2ceSMynpDuqqlKU7KtiFzz1eVeUvwnZVdJBN9XCpz3gb7e4DXwPWuxliw6tXQEBJZJ3JZRvwJoDe5+UosSv/L4bp3Ao8qHXFMkapMNdR5RwoNp9rRxcG1tCHQEBPinuckzCY/iRLtB5TviZF0dk7jib8Uj7jvDXLVkjGhBwmJRkhAQ0QvU/qDyx7JPrIUw1P7PkAGaSqcKvIpbzkBU3e7V+0bvowLpL1q30OfcSs5Xu7cxzBAEBB05eI3Rg8+Ipx/zOLNubRU1w3yfBbjq4TlWru4rAzAQcDUIXv/LT2hgtZmByMfpb6j7CCT3Dp15PXXnQyoiX3c96e9vIeVhRkbdeg44xlBURAf4wjz1b1JTLISsgFkKmJvlp5VHAWVblib0lWEAuu7d0a0V1GWGiRJz05cioPDNo1uhybAEHztPYy/swQib+jBDjU7enPg+kvDJA+bxtHK4R8ugLLU03QmaCuRMB3bhoZcywlpBXLrvPMUIO2WKMEBPcIXo4PI29XPo9IQX3Wk7P6aOaye1a4W1j4LR4pUcxrA7ftG/sfYO2tfHC3jbc4N+DldU1o7G7F209HaitLeNEmVsI/sGqidjnHubRQ9gX7fgKHurjcFABjzPyiWmGd24DTo3S/IPRviowQ2YJZzkzT7xP6PR5ER6+4/I6j6wyG2x4DuoHrEaoAg2nTqO1Yg/rK2tIGWVINDQguvYAw4Pz4pfm3BCvlRAbq5wVgqPd8Y4BtEB649DLqqCAAj5XQvHuU6Z3j1HtXc+WDLeJwxSy5dGO9yKsEsyde718zDIk8l2OM+BQeBp72fy5tcDt8K1R6RvWkh2wbjpNidReioyP+bL6Y6cfvrcN/mV6vLMfrZEFjNy4ickHY5gdvocH1+9go+oEOluz7WHZUFlZjucM4Y0iZnqjMEJRRMujIqwwQhHTG0elmzcO0sneOKLUH7oHjHCEZClNyor3+sSiCLNViFAdCamvTNfHey5jxpyYYvzhJuBRSOF2CgMCDpDQxbfkSqjAWDRRQrkj0/rLK9GX/Pn+iporIvmGReeKyKVNaiW0X28bhlGHzkvHkfnkCmY2ZPtkfeGaNjTGVjG/sIVQZQs6+01vFMJzxvoEJu5MYCcThpFpRO+nW7E7nEJVWyUi5XGEN6cwfmMUW2mgvPs8OruqEDeS2E2uYe4qe+Og/ki0oP2s9HBBhsVYGcfEx9PYzdCKq7wNfS81Y/PDG1jYonYlOnHsxTqsfnAT220X0NGteff4wPTuYVoZ3pvtZ7IrGfXBe3MnUGGxtx+/WPdZsna9AYeLPBNPFfu+J8SdJjrO0Xt+l+9sdMaHPLxtHOYZiScQD61jc51nmH2WZdZmML+4TamVaCYDFJm9hbsffoTBD6TnjGN1VIRWMuJyrRqVsSkMU/69H3+M1UgHWtrMFzxvj93C5Iz0xnFFeuNgDxdkgKLTNzH4LnvjMD1cdPbIF1tvT2NyJIOG022IZGJ0udiODK3QFunqa/sB6ZskfbOk7z1Tnwnv1XGYxyJCImjG8+Mlc5gnICDAxDRCfsapgAel/4HJhqiQMeKVUPeJR+Btg66tIpk0zBeqerSxqhG10XnMT2ueM0ZnkWni178qtrA2vS7ykVrDylISZQl+i7x5/DlUNaO2bAUrC2lE4nSJFzWwMbuKWGMdItKw7Y0+wBK73jl3HA2RKUyN7UiD5xPL+NCmzq1+jvWwhWuib/ZXOuBppsSVEA85l2HnvCYrQN5LMUURc68odneRjJajjO/JeFHGnjNITj+sHM8ZaRiat+b0nuYKw001GZ5YpAbNF86i7zlz6+3RPVxw8W0sjW+gqr0OO2PT2MvXCepSywal+TkVNhm9Dg5r8TzVBwTsl1wjpMafz4GnxjHv+TsU9WWLGc9uTnwZoMMktYKtjWrUN5urFgXP6cSx53HyWI1pqNjXl94XtMoRnjNsHi8Y51FmC9lWRLvSw8Xlaxi6fF1uFL46iV1pvIxwFZr6qrE5t4ZEXxfKHbrtD0Vy2K2H/cLlqYWkwgwR+1EXEFAkphFSo0+MQD/YhZ1j1m0Mc5qebnnb8GOAimpbHjQ9oVASC2MziHafRkdLlemNIhxDZXs/Opv3sEyXSNjKes4QLywLxdHQ14LwvIvnDFsDs+FUSnrjEM67qAfW57GabkZLdwIhdjCYiaB64AL6+qrIAHIcqOg9jvrdcUzeuI+5vTa0H6sUeYzw7lHN3j1IUKTJXlWdq/Y6elqOAaNPZxldhFB158NRJKBEuKcL9/aTRf7LsVJHFpfzKKs6WXjbGDS9bTyqTjdWR/Dg7gKibadx6tIrOPfyC+huAZY+uYPFLTYr25gbHEay4RzlX6RNes4Ydfec4UZyZgor4Q6ceOMCGmJ8z2cb87dGsNdyDv2vX8TAp59Dc2IdizPrlEd1VnaivSeDhTszSIfIGH4yCaPnJJqlm5/klNT3RdJXJntOdaCtI9VJ0NppGSDay7CWG3CEeFRz4lGQ/Yrei/30RgllC02K1Qf7eFixT35F79Iug5/BQQq00MiFn+OJsreLJK1EHJNX1+Wml9J4JRGmlR+ENw5OlaVp5cXeOMRjQspAuOqTAbGjS14qwCtJS5+Sy9nrOulDXwVJGdfbeM40N5mAQ0c7W080j6URKpV8RsjCJY8nqpUsA1Y7dXlnWVnOVZZxK+uWpgJiR9pssvRhi+t7WbMznQNqJWSlaTjT3GQCDh1r3Dzh5DdCBzH4itThu+M99VKGmGAs4KEtX5tc8ko1QrwCst0rcuS7lhV7/qByNnmKiLiWLvYq3Qza97JuZzoHNBmthSaWnMQZD3go5JyXJxRa0/MIU5sfihyR3JNF9KbvluTTK9KLqDQfHo1xTdaq9D4GrxyXdNshcKTYY/JuhRc+7kEHBBwo3jemxWDkD+d21Dkg46PhedTFdIeY3by5tE/psSyA32PwakCB8lZ9cq8QcRedB9+lAQEWZITUCDvkkcbq9e2wOYg6vOa4zPDMthC/wiJcJG1JhTX5hw7cOnZ/naBqz+7NfwEBDwO5Eip2xvIA3ecg5SrV9jji6/DNfuIFjniQU2zOgmbclzpGCbpdN9keGyiuY4tsRUDAgeF9OUZj+FEMycfNLvnpI3VMuceVNVDm7WGHRF7lulaXsnlxkXWpK1gNBTwMvI0QUfhHkzxI9z9QRTVy4y90xEZRX5pV2YPAR4VmVfSp1Wm1VSsvmsUPHwpZTZjRVjH2HEtTEWjyKkh7Ub/c3KGcgueXVFFb/TwxHXDwcK+r7UkmrxHyR+GBvB98nwC3Zhxu00rCvuIxw9lmann7HHmq+JM+gAMefwo/rMjDOK9EdgodKFqdfmswUilszuTxtlHoYUVnuouc2zNDirwP/ul5xYYZFXfuOSDC1EteMl57xpamZ0hkkm4qAx4+T3Lv+zNCihzJQ+wal1blq01425gu4G3jYRshPb6fMKPirnv+cBghW762Z9zCYq9nSGRSYIQeLU+5EWK8RLSu8aFFpyweR0fPMUyMDLn/il7Tx7VwlPf5frbBxsfL24bTCBlGFJVtrUhY7wUiuJLUOpZnVpHm+yUux1SMEeJbKVYP6XlFho1ILVrP1GN7cBjrO1KjyrfkKKA/Ie3Mt+QIt7DY6xkSmRQYoUfLk9z7oYs/IY2Qy/gripzynODddfw+oeOnzPcJPbib53UepEbXclA/YDWMBFqfv4Dq7VlsJs1k0eS9NcyPL5ZshGxJFBFtd8jZ4i7heLf00DFmvjDEiNSg5VQdtu+PYGNH3sZT5cSeP2R7xU1kre1eeyYnrCdIZFJghB4tT3LvZ29M7+MoRdGc8vkVstFh48OwMWKj5Mqh9r6B7dlhzAyPYOYBbbyfWDINUCiCSIT28psh8Q1RRHq9kIjfhimPGVJOYeVpOhjLQwf/dD4SQ6zc9NZhEZUeNao0jxpkGBfvTWBTu9Ul9IvXw6oEucuQfirHOsWbASrtHkAs2BNIwlF3QMAjILsSYkoYj8pGWEWL1OFrRSR1cl1qJVSSt42cldB5REfex9QKGwozS2HE29D3TDO2bt7A/DblJzpx/HwdVq/fwiJdEoUqmtFxqg9V0TQMOobM6hgmb09hm38QynlnNG8aq9KbBuUZRhN6PtuCnXsp1Pbym6pjiKSWMH3zPtY2gYpj59DBHjqUR40rlL5HZb7Yis0f3MJSMiw8gHQ800t1k/4o1b08gclrk9jhF+mz/rdasHs3haquSkQq4ghvTGH83VFspSg/A5QfG0DXmVqEtlNkKFNYv/4JZmb4HSYuJ8/qe3WmAx4FT3Lv27+iF0fKo07fisTWW4V1sNEZe2B62+B7RK4c2hkI0UqhFomaGmurKJddsjONqYkMGk60IWLEUH+sHZnx+1jY5iOqQNPpPkTnbmHwgyu4++MbWI30UPsTZh4ZoMjMDdx9/wru/fg6FsOaNw1BDerqljHC3jbe/hCjc+VoP9uJGK1KtodvY3JaetR4fwjrZDj0DjCQQDMZoMgk1f2DjzD43WuYN9rRfbqWMlVfV6MyOoXh75P+70gPID2mBxBEmtByPoG1dy/j/p9cxb33FxBuqRUv2c/p6BJOf0BAsez7OaHCZobxluKVUM9x09vG1FgebxsHaYgsXSGUN3WjtZu2HnNrqpeeMuiSLDn1QBiQjv7jaApPkXGQXi+qmlAXXcDchPTCkdnG3LUfY4i9onJefNn0plHGl2oGNuay3jRMdrE6Ogdah5C+DLZHp7CRaEBNhcz2hOqubkRNbB7zVJfyALI6OIt0WxOZJ8UW1sbXqcdJni7lVmaTKKsm5Vx9egfJ7RgS7Y38zn1aWk5j+sYiMkIXw5/6FhBwuNiNkJgjBzAIRVE3o2NP83tz2mpJic3xJoON0VsYvn3b2sans2+PFl4vpjdQ3VKH7SnN6wV74UjukhHJti0c5klM/+KUF66l1cY5HHvmLF3SnUVvt/KmwT+E4D6glc6uCtNGhiGVLEPU/s59d+jyKrZL5fWu3NrFXszhAWQvK8DPT/HT0aKtoQ3MfTSGZF0nXeK9jJOfPo6GxhgJmfLiCCmYPX3qCAMeJXw69rMdZfa9EsqL69g1u8T3t2OPECNUheauamwsrqGyW/N6QQZor6wcZdrxGdSVZIdMbxp7C5j88BruX7mOoSvXaKP9tQns8CpKEKfLTxlkIhWIxUknXeopTJPhAhmcJBk64QFEja7KcsT2KF19y6fh1CKKLc1i+r0buPeHH2JyLIqGSz1IqJFAOlUZjxYEPIYcZUN0uEYoD/zOZfa24ccAcQeK7cB7Uk4zVqxvMqmi6zjqkuOYvHMfs3tt6OiWXi82FrCSYi8c1UIwE06g5dmX0NsVN71ppJrR0pWg1UQGGSOKqv7z6OutNssKylDT14EYLTcMI4LEiQ5UbixhTX77lWYPHVXsUUPJa1Dda0mq+1ilqJs9gNQPtCA8zR5AWF6VcTchRqIVPZ/rR005yRkpJDf3YERjiOYZCYExCjhMDtEIyaHrMYKTu7sYuWd623h0hNBw5jWcfy27nbt0Agma3KFEJzraM1h4MG16vRiaRKbjBFpo7rMXjvm7D5BsOoNTr1zE6VfPoyY5iqkJvmdEeZ+MYK/1HAZefRGnXnsOLRXrWBDeNFR3r2N1sQq9r72E/k+/hO66LUx/PIWUXCkJjxqRDpz4/PmsRw1JyCD914eRbDuHU5+/SJvpAWTi7gqdzcLmwthcxNJ8FM1vvISTb17CwEs12LoxQoaTM00ZncAABRw2oRfkV/RisLkMwv2hKbSCJQ5rWX7tIB5WZLyONSedEtSTyIyez14vonGEjSQypj9pC7Ho4eeKMnskRuVFOV75NKH3s61Yf/sWltO0AolmkN6lwmyglG6ukg0he9TIZChB1u/MZw8gmV2k09K4yTqs9kp5cX9Hhi0RkolWRGDs0ErIIc+ooHbkAY85R/VcWkaIcW3kvgempkDgUdop5gbJsBEqlYM0QiLFKavHZdhKEgGHEdoz9VqfSljXwzjTS9mLMH2oNFWrFSdkWE8ypQKeBI7qubQZISanoVquCh7KwdhaUQApy+3gYL42C9x0e9WXk04JpRghhovKvdlW/leN5rP12L4zik3xDBDnSf2qvK7HLVzK3pbGH1SnTNOPRYkpZMsCngCO6rnMuSfEg9C2ybHKm0IPHxjF9BDLynYdGVwao5L4pa4qFsI6Fm6PYVM6USyaAzvorKIDUxkQUAI5RsgVl/lyKAO3wLwscdo+EsQ9IRGQe8VBdZyXnnz1iUa5F/TOCQg4XPwZoUcMGx9lgGyG6BFaJdvclls+DneCO1uT3fnCQ/ZxMvoB+TnK59K/EeKjcBwJj121HRgF6im6rpIaV6g28YMIG864jintJSHTVVV6lV7V5+CmWyvspsclTbVSbQGPP4/DuXwsVkJHEd/2wRW+FW3+E+xPmQteCgPTEnD0CIzQIaCbAPWXSEx/j9WHL7Sy+csU0qjyfdccEHCoFG+EHtbYLVjPgS8f9oV7a7KpD7e19s4LzE3AUSbnOSE/uP5A/jDJVx/lqUmmXnZf0NsG46VTpDsyc54T4g+6mKKdJUkBqx3aR0iWNaP8acbFp0jU9kyhcL4yvLfCHKBaaGe1U+VxwOvZp4AnisfhnJZkhCyo5EM9SLeWyjYU5W2D8Tpqke7IdDNCeSZxVoVphGS2nkGYRkzElS5LkNDDjIrz3ktOz9P2gRF6enkczmnoha+SEbIGZ3G4HqBPXcLbRvcxTIx6eNtwg3SvDR2Atw3CyLh422D22NvGivmeaUURRkhlq0R3I0SStLM0KAFLkNDCRlR627grvW24yeXZ5xghbUUmkOlaSsATwuNwTg/eCDE+9In3CQ3I9wkN+nyfEOllI3QQP2A1Mi7eNpgke9tYKGiEytpPoS00gbHJLZlm9oeZne0ANyPE34opEaFZCWSL2cJGlL1tkBG6x942qEQ+ed470gMj9PTyOJxT88b0w24p1ZdK7Qnjw7AxYqP08NG8bSiPG7q3DfaiwT9iZ0meuMrbRjiGsooqlCfKEYlJjxgS8et2h5cN7l4jnfWykQlFES338ILBHjIqHHnJdSwOTmBTe+mZqKdM87bBloTSuFg4TqeVw6Qrxks9XZcizF49snncxoCAR0HoeV4JcYA/XMZqPooauKzbpUA0WsSKiHSoldC+vG0Q5kpI87YhEs0dB0xvGy053jaWr9/CTst5dLabHjF2dmnldP0+1tjIVDSj3cvLRroJPZ9vwc5QCtUdlYjQ5WhocwoT10axtWeujMq7BtB1ohahHekF484nmJlPUR6V/VILNr9/G0tJWkdVad42IsrbxgR2UiGycU3o/Wordu+kUNVdSQaN6mFvG+9o9bC3jbPS2wbpYG8bs8LbRsCTRlFz9BFhfUXP80+/6vCDKGMGrbDXpnrDlkbwimhsWHrb6PbwtsGoAvtCKrF0eXnboMbuzLh621ii1cj22G1MziaRnL+PB1eHsJ7hgzO9bERnbuLu+x9h8MfXsaB72RA9XY2q2BQevEf573yMtWgHWtrjZn9EmtA8kMDalcu4/+OruHd1HuFG5QUji+VtY+IWBv9E87Zxpo4y+VKPkd42vkf535LeNnrJGHEWe9u4QPW8TfV8z/S2EWFvG+wHLeCJQ4wtj03HLd9tOwwsI6RgQ1RsZX7k7QdhhvhTeNugv8zC28Z4Hm8bB4I5RbNo3jakxw2bt41Jh7eNKeltw42qJtTGV7CylEZUXCa5ednYwtrkOgx+A2J6DcsLSZRVypdNp3ewtxNDoqURcb4y3SAjeGcRaWeba1y8bdx18bYxSvVw/t4aVmeonqoKs9fTW6a3jY4GxPmtjSvTmLpB9fh4K2PAk4UalY+aHCMkoPF4eA3MamYDdKxfXordexQvu9e8bdwyN1/eNtwQXjZq0HzW9LBh97KhSNNlmQwS/C5pqkSEQ+wF4/YYkrWd6Hn9ZZy8dByN9VkvGAK+PxUvQ2xnF0mRLrctMmBObxusWsYyXI80MiFsYu5Dqqe+iy7xXsHJN46joYnqCVZCAY8IdyPE5JlvB4H4dsyvAXpE88PT24aE1yECTlZeNpR3Dd4+pPC1Sex6rZ4knMubsTqL6as36DLrQ0xMRtHwTA8qnWdomy4Dy8shXRmadStvG84u9Og3Y3kG0+9ex+AfXMbEqPS2EZGZAQEPGW8jdMiwt4295M4jWgEplBGh2So2WmrIlQd/+1TR7fC20SO9bRCpdArRSs0jhs3LBn9LFUX1wAX09VZZZfJhVLSi5+V+1MRZNkWXTKYXjIjzDFE9wtvGcc3bxqlWhKfnaY1DaFVxkDf5BZ+IGJVt6Pn8gOltg47Bj7eNgIDD5JENPfa2MXzf9LahzZuHg7Uw0bxtfIq3T0lvG5mst40hp7cNc2onZ6ewEurAidfPoyFmiEs34WWj5Rz6X72IU689K7xsLAovGy4rIe2gRXBrEUvLUTRfYg8cl3DqmRps3ZFeMCz4xjPVc429bZzHqS+8iIEvPoeGzATGP1mlw9GeSdIr0NlYwNIc1fPZS+h/62WcuiS9bTyqvwMBTz3WV/SuUI7L9Nknqjr3ielan9bCg3pY0TZHRVhvF4X1fNUqlWbtySiwR4w0rTV0QxOOIZRJWl42rBxZTuycugjxUCGViZZHkGEvGFzSkpMB+RWmwZ4+6JI2nE4iza+K1fSxHgv9K0+RbmaKehK0juMVly4T8FShzrw+ZPJxGCMlvxFiKPdgK1bVuWj1qktrYb6fbRTCvxEibJdQKs3cqb3VVl2UobiVRAEhJxP0dNuesIyHlpaVkwFlMDjKl2NWmAPmPmuESNYKE3pYYjNYAU8dagz7HQbWmD9AfBkhRWkN8FLvoo1EXevI10K3PGebC8h4GxyVTmk2eXNntZXinOSMCzhAG+eZaZypJDnM+6x+kSPDAhV227sYoawhs1oj0iw5HYpnpQKeRrSR6IvDGC9F3RPihqrtsDhM3cXDXV58t6tjMEuasexxaae96IPlAo5yWjjb0twQ77OpRNF1BwQcDgWNEN/q0Lfc0WziPab1QvrmjnfOAZLTWB+16iIyXGge2xZYAk5Qie512sqIMH3wikdsIpWQcRljTebjAmozcavBknLLDHjq4DFkDatHREEj5NVAXu2LTcaZfR+QQ99Dw21C+pykhdurK+KwFreseh6cFch4gVICIZqngX50BAQcNr4ux9Q4dh3PNJLNdP40N/NvtNdWgMdhZjgOQ4/aVjKSYg4pV9ZM4U8R8qNMa4MVdLbLpZ0BAY+CsN+xmCvHKXJz+YpFy7Vtjw1+G+tTzo/tcJVRiVYmB8xIVl6GnG2Rcd7Zsny2OSDgYVDUjemHyWM5T1wanTUULuzrIEmzKm9bfnGYNmdSQMAR5eCMEM82H5ucIo8fPhptE3GR5y7IhQSlrHcV7iXtcGnWpTpboimVEgEBR4rQc1/9Ge2JkmIocTjrz6/IvRP1XIuVn68qLY9fdr/lx9uGmz5rNSFrdcro8SLD6mpV7GwyegYT0p7zkXtGhOmD96r/RNi8+2Yro+fre4JzVJVW3wYEFMFhjBthhERARItBG93FcEhGSBkgX9423PQdohGywrY0GbGlmXWLT2cZS15rn6sR4gDJ6GmELJVNDwgoAWscHSDW5djDHpvsbePYydOu75bO1xb+2YZte2Bu66OfeBogN/hX7onWDlSKX61z3EC4ogH13T1o7etGY1MVIgfRK5YKDpibeHH9+WOolnVnkXFncm4C4Uzj4eEyRCjpMAZOQMBBYa2EmOIGq9vE8IH8S87G50S+9wmRelt7ZHVsePb9A1bSZRjZd0xPLgGxllM43pfA7soStpMRxGsbkchMY/jWBJLcZv1wfYVlRByvCstd2PSesXN/BOu78iitsmZd1rGrdF2fCNIH7618WY+IKxkTa6XE6OGAgCKxxuUBso8b09ycfJsXNAtoVrDRYePD8MvNbCsiOVEe3nypQVNPNdYHr2P03hjmRocxdv02ltGKhprssfBqKVRm96TB8K/QhScNTovGEYtRfjQq3wWkHUU4QsdpvnJ18f4ENnZlOsFSoXi5mW8ZHLnjX8zTytFWr6ZWeOjgt5JpbbKgJE4VmwwHBJSKNZYOaGNCz32NVkIyls90FI+qwgEni4rMm7D2NyzeIuOUshW12iTT1EpoX942SJd9JVSHjksnEbp3FVMrysePuVOEypvRcboPVWHpSWNtHGN3ppHMsAeLJvR+pgXJ8RBqOyqwO3kboxvdONW3haEfj2EvTDJkSKrPXEKHcReDn5Sh5wutWP/hLSzvUT8kWtBxgXTH0jCoPzJLY5i8PoWdNOVVNqP9WenBgwybsTSOiatT2BX1AuV9p9B1SnrOYA8dNz/GzExatF/0HR+rOAJCBg72PAcElA6PRXMl9DBHpaMuXhGxt43yinJ0dh83EzUZawIdahtXsDC6jsqTz6H3RCdqayuoY6yaKVSBJjJAEfak8eFHGPzA9KTR3S09aQiqURGawNC7lzEysoXMwjzW402oq5bZ4XrUNmWwNr0qE1TnV6CZDFB0+hYGf3gFd79/A6uxHnQcS5j1kgGKTtzE4Pev4N73rmEx0oXOE7LeaBNaziaw9uMPcP8HH+He5XmEm/QX6wcEHH0KXo7xcHZu/vBnNXglxN42drZ3MHno3jbc4Tcf7s0N4t71QaymKlB/7DwGLp5HR1u1eWlUScakbAUry2lE4qYnjc35VcTqHZ40xleQUtHMElbmo6htNQ1GuKEJ1cl5rKyIaJaaZtTGFoT3DP4tWSizjbkP3seDIYrXSA8ec9l6N6ao3mZZ7942kuyho62R338PrE5j6tai3XtsQMARJ2uEaNy6GRgezs7NP/ml7Zdij/Jd05K9DayM3sfw1cu4N7iESNdptNdTuvSk0XL6LPrYm8b5s+jtTGCPLon4/fDmUaZtDivYDmzO0MqkuRkVdIVX3dqA5OwsdijD1s/sPSO5Cz5ylW7qo89y6cHjearzpXPou3QOvbRCUh48QqFNzF0dQ7KuCz2ffwUnXz+BxkaHh46AgCOOfSVE4158yaJtPJydW3HoChUhxNgAsedVSn7UBsiIVaOurR4xOXnZgKTXp7G8EkJFTQWwY3rSmLjK3jOuY+iquT24OYk9p1HRjtNYmccqaDVT34Caxm0sT5sPUeo9Ibx0xMvBCxmFEQqbMtvSg8fbVzH0DtX9Nm0/ou3HWQ8ewnPGj69j8JuXMTEeRcNLLh46AgKOMK7D1WZweKyrTWKfdMWQVSS8bew+am8bklQUld0n0d5Rg0jYoIVEBLG6TjQ2ZLC1ug1s0GVUuhmttPoJ0XJHeNI4eR59PW6eNCguk3ilsjyTQs2pXlSyNw7t2zCLtQWssveMY+alnxFKoPXll2jFE6c86cGDVj8ij9Y/1RcuoK+/WtQrPGd8RnrOMFJIbkgPHQXc95R+/gICDp7i/ma6GKRSEd42hkxvG4+akLGM6btTQOsZnL70Mk6TEegfaEJq/A5mVgwyJtuYvzOCveZzGHj5Ik698iya2ZPGrIcnDY1duiRLJeLYmp5DhmSd0sJ7xq0HSLacwanPXsTpz51HzfYoJod3zLyrVG/nefR//kUMfOE5NFdSvZNrlEea2HPGQhTNn76E/i+9jFMv1mDr5ggZNak8IOAxwPyKfh+ISVWCBttkdCuvpVmylHZQDyvakHH1HFAMaVqlaS5MrQcOaR+OIZxJkqzMpGRLnQqo1ZGVQYgwmQ7XvBAysu4Ie8+Qbn5sP8egFU44vYsMe9ZQaXIvPGdURJFhzxncRpknJDlfxAgrkD20gIBHCY/DfRshxhrQRWiyTQK3cjLNKcdGqFQKGSELKy4DVpxaI8P6MXMSx5V9MWVkhkIaraxhyWaawaxutbcZIRGmDz1N3zOaYWRETCuiy0rJgIBHCo/D0LPSCHkNSm3c5h24rnl6YY0cWaecmJW5ly65+ihBTTwdIafpcJbT41ZYBbgEhW0yMo3zbOlyz6iwlUYBEZbto7DZFimgsh0y+l4YISuNAirMWOlue1OfWV82KxvIImsOCHgk8Piz7gnx+HQZozby5efkuQqbid568tXwEHFtRp7pWqy8hCXYTLpJ5i3ts5ucdisg4CiSc2OaB62+FYMlX0xB10KFJ/CRRz8cFXbuNfQjFmG38r7I7Tuv3nwCejngCaDoJ0p4PqitOFxKeCl5YmaH/UDy9ZnKK3jobkryKSYKZAcEPFKKNkI6nvMh70xiCX7WxowdeYpppw9Z8e2VQpeXYc9+yUknPW73wxQ+2hIQcBTYlxHKh5oDvM+ZDyKBH75zyXtcOJCGF1j3eNahyukCulFyKfjYdnTAk86hGCG38R7MAZ1c41PAHHmgl+IeVr3spc1+FoJzEnAU8O13zIt85bN5mlQw8iWlmZ2AgCeN0DPaw4qlTgvXcpbWrNURcjlGSH1FrTKkNorm6M0pS2hpJXnbsMIqQLXqN2ZEUGuJyvLaK9zSZdj2EKKCwiJKH7kPKfJeBvT7QCKJPiwZ/sj2nw1nXCOnnwMCHhI89mxGiCl1QLqWE5qz6oVMzmRgI6QSpRYZzdGZU5aQaSV727DCHLDXL9DDjIp77RVu6TKcY4RoL4L0Yesj3lthGVBGSKUzIkwfOQZKovIdPcoxJWbPCQh4OPC4s90TKn0gOm4yi4gtRSBiXAltZeXlOHbyjHilh5WooKAWM5GqhIcNfduXt41ONNarl2jIGmU9/Gv2mo5O1FSa6UakFi2n+nI9ZKiG6g0WIg45hcqzjIq5U3srGqX6nqP6KlQKV2Bvo9hbYS1PpTFWONtApckptt8tIKBYeNzIF9eY6H9IS0UMRh96MpkMyuLluS+5JwoV5x+wum2+DJA1W8pQ1d6NtuPtqNAvvySRxi509HWjvlq+F4Nk+D3RkK+gzo/Sp+mlIB+XeWzZkKKsZwA9fQkhJ0rJ+gxf9XmgVc84a7W3YP84qgsI8IW5ElKj8SGOIn6Fx5CXt42HBk3yWAsaGu1fEhpGDLXt9QjrBiC9jsXhCWxor8lg2xUuj4v39/DzP+Eo6RHGQ3rfYKMViyNWZnYwd6/p38z0qmERiaKsqgrlleWIxCN0uUY69qi+OxPY3GYBUVKUDfFrXh1dJbx9UDlRd5g9b0SpvS4nU+Xpr4AMCHjEhJ75urwnpI3L4v9CcuFsKRES+nIHu0MKMZpRzle8ZstryDhfgvGqp2RvG1KP6W3jNMo2dlAVW8Dg7Vnxvh/ONxJdOHm+HDvrjYguXcHoTIoMSxN6P92C9fduYzlNk76yA11nu2kVtYtM2MDm+ArivRHMvj2ETZb9fCuSYyHUdlZgd/xjDA9toqz9JLr7GxFL7cEoiyE1fQ+jHy8hfuI8OnqqEEcSO7trmH//Plb3mtH7lRZsfvs2lvitIlUt6KDLs6oYe/uIIbM8gckrk9hJ8R21JvR8vQW7H6dQ1VuJSEUc4fUpjP9wFFvUVl5NlZ8coPZKrxzRFNavf4JZPi6zOw6M7PkNCPBHdgmgjZ7iB6Z96InyIqnwkGSjk/W2cUymPjxS87PYrGpFfbkZ59VGZVsLwvMzWPe4FDJQjZYzncDYNdx9/yoG37+LZGML6GJKg71vjGPo7Q8w8mCTuiKBmpYINm5+iMG3r+De28PY6+hGQ6WB7Qe3MTmRRHLmPobeGcIaGRYdgzQ3kwGKTNzC4Hc+wuAfX8N8ph3d52q5wbLDq1EZncLwt0n3H93GaqQDLfx2Roa9clxIYP2HlzH03au4/94CIi21iAQrooAjQNYIOcbjfoanfQpxTG25PHJvG6lFLC6Wob7NfGUqwg2ob0phZWbduw+q6lEdmsc8vzOa35Zo7GBhfBHiXWSW4drE2viqeCk9E8IWFq/fxSwva+LliFfTZVcqQZdhlO+syBanSE0TasqoPjJmfNkXohXT6p1ZpNubNMO3hbWRNRi8mkutUfuTpLvCzErtILkdQ0VXI+J8Kbc2jakbi0iH3c9JQMDDJPuwost49JyEJeJ8acXR8LZBl1LTc0Bzi3hBfKS5FdWbc1iixYsnZewhIyk8ZCiM3T2kZdjszAwywiBxmC6JjBgqydgef/UlnHxxAG3dVQhTgQJvhzWpoPp2dpHUT8jmLvZicdBVnSQNQ711kUinyNixx1YiFN7A3IdjSNZ3ovvNl3HijeNoaKKCwUoo4AhgvyPrAg/TkodqngnGBiivL/qHyeYslnea0NhQiQZaEW3MzOX33cUGoaIC5VrvhRIVwg2PJ3Wd6OyNYe36R7j/7i2MXBvDhnyNq8JppE0obYsu1cpp9cTZSqSqHLE9aofPbjOWZjHzzg3c+4MPMTkaRcOlHrDn6ICAR01BI6Q46L+Z7G0jeUS8bYRCSSzPrKKy9wwayhawtJhd07iyMYfl7Ua09rciwauUmlZ0dtfIzCyic1XHsVHL7CGZpBWLkUGkvg21VZTOl4BEKp1CtKqSDJlLT68vYI09cpysFKsXIxRH/ekWhCcW6CJMR5Z1qDAqW9HzhX5Us1cOqie5aXrl4C/zAgIeNbZ5km/lwrAcP0t0EM8THSVvG0x6cRZr4RjSczM0sR0H6JjUodAuFm5+jBU0ofXcOXT3JrAxOmtdnuV2DylYmsDMUiU6P3MJ/a9fRF+fga11mUuGKDk5hZVIB05++Tzqy2wv/EDI2Mb8R8NItp/HqTcv0vYsGjKTmLizIitzNNDJ+iKW5qJo/hxdCr51CQOXarB1YwSrR6PrA55yQhcKfUWfO6MsrJ8fOHAr4iZryTnzKJ6jg9JYbF1+RV8s/BV9Te95CmkXPbZ6ZQWca0sn3OK0kgulaFXDKxyO1/Zh4FQGY++NYpdv+FKaKMYfcrXDDx+Gy8oQTe/RykfmqdZQWHjcIL1I880k2U6lhP9zfiyOiJFEek+WYzQZAe/V5aRKY9hza2UEmR1aCcm/JHr2QaC1KiDAF1kjpKCYbSAVGFV5jYvGQRqhUjGNEOuW2m31ygo4z5ZOOOJGpgwNzz6Duq0xzE1vIBOvQX1PNxKrd3B/cI0MialDFOMPaYSUHqsvxN7RFtqLIH2IHI6o8oxahmpJVliXczlGmWJDL3EQuNUREJCPXCNE2AxGoVFFsk4RtyIizVGTJedsgYtOTjPF7MKhnGtDFtTSdHE5SfdrhIRotAZNfW2oriyjNuxhly7n5seWkdLKWzZB7LmQiBU0Qjl7mxFzabsua0Vy5WSKDV3NQeBWR0BAPtyNkNz7gkq7yTvTRNxRkyXjbIGbTkozxezCh2KEGFs5uWecYdpECZUu92ZV/EG5KizzhBES4Tx1WTJqTx8qzlhhpV+ihxktLmuz4RTfL251BATkw/X7kaIGpmMOHCkOs2EeujnZkJ8CS86cnvpnjhIVdSR7yglyhAMCHis8v6Tlof34DW+9xV7hgydHu6/q2BCxBWfhw21fQMBRJvTiz/9iSTNA/S3PgbR55hG2PJearfw8reIs230rJ255BepS2SLNKZtPn57nFWb8yPkK6xGtN/VkIm//BAQcIUp+xzSXe5rGue14D+rAn6YODAjwgC7HzDsYB4ZtqWMnT5aFn7b40VMK+fRy3mHVWxpHqzUBAaUi7wkdoCE6AEVP3ALBzwH5Pmh3c6hSA9MU8LgRuvjz/4Ec/tqTxEWQU4a0eekR6T4nZMG2uOjJpPawPnIHqR37L6oUjWdfdm2vgoOu91L0NGe+ivuRYXLC/EGt8pJhfObZjs0pFxBwRDl6RshqTR5cdCgD9Euv1nh62/BjhPhDl+E0m2EqNszklaMP57NOPstzKf0+tU2LU0dAwBHF8yv6w6a2KoGf//ynkSiXb/9z4DWHFm++j8VbudvynY88DZAO6+UtY9Th0k98A7/4UouVpmNEe/GVP/UNfO2kfOViCRjVp/GzP/sc2n28t8dAF770517HWac3D5/kGNeAgMeER2aE9lJp1FRV4c98+fOehsgL3cOGvvl19yMgI/TqT/0s/p//j5/A82qpY+0MVH/6p/Hr/8HP4utny3MMVA5eAg1n8bO/8CK6ZdQmZ4Wl+Qj14s1f+izOO21ensr1VZBNLE+ZgICjxiMzQls7u/iX3/qeCJdiiPaFnKQG0kjVvoKfedU+8w2jAT/51gWExasuTGHxSR+GEUZlcys62GuFC/wGxYaONrRVuL8xzCzfhq46/s2Zi7XQkkLxWnR31SGuJ+aBpfxJBgQcHeQ9IfOvcSlL+pwylrZcRLpjlrDxYSPEsFHa2t4VYcZND1+O8aqnFG8bfE9IQG0wjD782v/6n6Dt3hxernoHP/O3vocVWaHR93P4v/5+G+7ceQlt1/4K/u+/syqaXdH7Wfznv/5n8EpiA5vlNUjf/h38V//d7+Hmhlmw6vRX8Xf/s5/GOaxiM5rCld+/g7M/FcH/8HP/Kz4Ih1De9wb+5t/8M3i5nMonqpG68W/xG3//j3FnNwQj9Cn899/6HD742b+D/3MlhjM/9x/h7/3SaWQWN1GR2MYP/qf/Bv/tj9bs/efoSwGlefV/QMBR5JGthBS8IvrdH72LptpqfPnlizL14bHwJ9/DRwOfx091mHHDiODSW28g/oNv48fCHppT2qDLpb/4638aDd/9e/j6L/0n+Kk//TfxzzJv4u/8xWcQpxWNETmJv/TXv47Qv/0N/MSfo/xf/ocYffYV9IrSXL4bv/Kf/VnUf/Nv4+u/+Ffx03/6N/Cvy34Kf+vP9kkJjfKX8au/2onv/bW/jJ//lb+Kn/mNd1H14jm0iJWTtDyWAdIskTMrIOAx4JEbIV4J/eSnX8PC6jq+9f4VmerBQcwup47ND/Bv363D1986SXmUGX8B3/jMJn7/D+/YnK2GTr6KL1S/j9/8t6PYCYUQyszjd/7372Pn9VfxAgv0X8KnYz/Gb/3OJPY4f28S/8e/+wjW+/IHPoUvNdzCN99LoqG5Ce21KfzoB5+g7flzaHJelu3OYHKpGuffuIgzDTEk7/4h/sv/4T3MCYMYrHMCniweqRHKuRSjVdHDZw/v/cHbwOe+gFdjQOPnP49XHvwJ/v2YY7K3NKBpfgETumWanMdMZSPa2O9OUx0aFhcxrdmT1PwSlmUYzVS+7BR++W//Nfy//19y+/kuzO6VoUmKKEIYwj/9+/8O4ye/gf/2f/8n+N3/6f+GX3yhwf0eUkDAY84jM0JHwQApM2MMfQe/O/MifubTx/GNN0/gg2/+EEvOFcfsEuabm9Gt91hXC9o2FzHDz0bOLWOhpQU9Wn5ZWxMaZBjzlL/2Pv7Of/jr+LP/4d/Ibn/1t3FHvYpVY/Xmt/D3//rfxFe//mv4G9+uwC/8rV/Aa8q9j80WBSujgMcbOWXMUc2faiuJIgrGohGsbWzYDZCjfMntKJJQaBH//pt38Pyf+4/xsw3v49+/s63VLX/Scv8dfGf1Ev7iLxxHBXu8iLbhZ37pDZR9/x2Ii8jB9/HDzUv4C3+qD+V8jyh+DH/h556H9Z3fIJXffg2/+gu9SHB+uA6f+4//Nv7pXziFiGOFY/R8Gf/wN/8jfLWJTk96HRNTa0hX1qBJKHtYvRIQ8HDQ/m4/3MG9urGFf/29Hz2iS7Dc9cPaD76DH5U1YP2738HljP70uBkKGeP43/7Bv8Dk67+O3/tX/wh/+C//Nv7U3u/jv/jfbiHJ94CMB/hf/pt/i/Uv/y38IeX/0W/9JdT+4Pt4IEpT+cwY/unf/ReY++yv43f+9f+I3/8//y7+Uucw/tU37+X6OBv9AP/uSg1++X/+R/jd/4sux/7WKdz8h/8Hfn+DM/2sfAJDFfD4oP1sQ8f/TzhsclKTV1mRnm9+uLZEg/L56Wj+ir5YrK/oXdookpzpFJdJtnbzoqW8thFVu4tY3MmmZ/MjqG2qQ2R1EcvKpY6SYSgcq25Azd6Sa3mB0kXrqKbWCmzTpdyW5l3VJqujpdv6LSDgCHO0jBDjyHfqZyNUKroRYpRukSTTrfoorkRzftSqx1XYS2YfZbktIuiRn4OWbus3B0osn0xAwMMia4QcI9OvGbJJSR35ShZ8458j302/J858N3ktTekWSTJdpGkyHNzXD1j1MJOTRx9irx1pvjKMM67Q0r3OgbOol1xAwMNC/67Hhtc498N+ypbMITXY1yT1W7cup8LOsoXiORQUsPAvGRDw8PA0QkXzmI7wh9Zs14oOonZpJgMLE/CYcnBG6GlAn+hek74oY+BYZznLuujiEjmrs6LqDAg4WoTOfe2nc4Zw9hvj/HeGRJ5W2inrvP9TSN51Msk0S5biSiwkIpyjFdSCAsq31aPyc+Qce8aZxnvrmR7SKuJmzNzTh4rL/Nz7SYZUwflmJstw0GqnmSz3WuuljJlNn0rOIfMkoR1ZwBNKgZVQ/hEtcksc/74Gl1Rok6UIx32V9ylV3MSVOvUyVli1TKvXtQlmIptH00RqQkqXMK65hQs2NbdIQMCRxtUImQPdfRLYIEGD/oTzP3/kynmW9KWS2ieaqNqqt9cM6ymWTl23r3qcSK35yso8XuFw0NrT5mwpo8dNOflPFJSFbSgtjpIsK4TV5oGz6BHFeTSlbAFHm/3dE3IZxMWe9ELzwDvfXlOuHOUXaowzX4/ny9sXjpa66S2pLq9CnK62p5On98gfD3LvCck5ou6keBsBiShtWPKMCuXeE6IE+VL3HL3OkSLj3nIqQDXLYCadwtbMMNJJfhQ5l9qeC2ZAFbV0SfQ4hUWUPkQbVB7v9bDbnsmTZ/UL762wDGh5IkgfHj2WlRXIiC1Nx1FeRT3lnyxcei/giBA693VphNRglGfrcIwQoaXZdItJqKVIObuM3AtMeaXTIAO0SQbolz9V5+ltw48RspI0GavdWlrePZMnz26EZMQpp/aMFbb1hl1GRWxpCkc5RiW5yj95uPRAwBHB9XJMNyh+cDNAhSiLx9F38jSiMfV+CkafERzOvdu09uCm3G6J/SpvwxQf+8TTANmQCg0jikRbJxrrymSCuRPtp3AmlEBNVydqqgofkdBFsk1NUpcDg3UdI101Tl3ZoxOhbNSDggIBAY8d2ZUQI0Mh7Vfdhaag62pHoudZ6TKNjc+J/nMi/ODebaSSSRG2JNUKgeJ6WTY8pf6AVayEpFrDSKD14jNoDk/jwQcj2KZaOIvr4qrDzQM4dboB2/c/xOhUyiwnyzrDQtenpK4fmbr0/HD7AAYukK5PPsTYmNQl8rhwNpjtL9UH5ofqCjPV6g2rrImM2NIUWhmFSnKVf/Jw6YGAI0LOSkh/q0S+E8d5It9DPl9ZJr23J4wPc5yMkdeKqJCe/UETPNaChsawrFFN5BjqOuoRVm9R5ORIFBFHbxnhCCIxaqGwEqSrjHS1kFC2+ZQVQ213VpcyKIyRCSGcKKdjzx4le+MIxyOmIPVJrCJq9YGoxaAyKj/K+TLswMjQJXJ53NSt+T0TdaryZXHEyg+3hwMCCpFzT8g0QubA9BqeOemqrLkTiHB27GfzHLJsfNgIMQ8GaUVExilbzn6vidPVSqgUbxu2lVCGVi8vnkbZxg6qogu4e3OWLsGoXTTJjUQXTj5Tjp31RkSXrmB0MoUQr4x6tzH0/ph4h7SRyaDqzCV0GoO4+/EeWl8/g7I10hVbwOCHrIuUUV1GFel6iXStkq75KxgbTZnzv/MEus40IpbaI+MVQ2p8EKM3l5AOtaDnay3YuZ1C7clKUhBDJLWE6Q/uY22DVTah5ycp/xbl92v573M+V0jHUNWC9pf7UBVJIRONwlgcx8QH09jlY+Py32hB8l4ItccqkLz/MUbuuLvNfpLQRlHAESPMJ6eYE5QjKye1nu5HnyyGPTI6Yw8GUV5Rjs7uYzJVYV4iCazAwZKam8VmdSsaKjgWQposRKK9BeH5Gaxp75POzC9gI96IumqKcFtC9ahtzmB1apUjLILUNOmqaUU9v3Oa4Gd8KrtJ1/QM1tNmmoDvEbVFsHHlCga/9xHufW8Ye909aGDdghrUNS5j5FuU9y2+HCxH+8VOxKwVD+U3Uf4fU/43KX+S8l808w1UoIkMUHTkBga/eQX3/ugaFiNd6DxFBsuiGhWhCTz4o8tPhQEKONrk3pjOM9mLMVY6+crFaCXUc3wAO9s7mBwflqlZSq3TFbdj21vE4kIZ6turkaHVDcINdEmVwvLkuimuyqSXsLIQRW0rT2ZaoTU1oTo5j2W2QQp+0dks6eqqFpdDiDSQ3hRWRk1dfCzmfguLVwYxt5gCyssRr6FLrnQCZdaN612s3psDrb9oZZrB9uAUNiobUCONm8gfpHxa2Yj8u1p+XTNq48tYmU4jkihDNA5sTKwi1lqHiHVZtoX1oRWkeOkXEPCIEUbI+gNLiKBM0JI94asO/T5SMUTcLsU0Dm2K2A7MwPrkHIyWFlRTb0RbWlG9MYcla4HAN4apQNjAxvQCws1NKKfJX93agL2ZOfFq1ywGNsfmgI4WVJKuSDvpWiNd0u+P0MP60hFUnuzHsc++iJOv9KPtWCXCZI+yqpJIbcsgk9lBapcMimWEKF9fwGS2zXxezVWUIRapRfOr59D3Kd7Oorc/IQxO1mdsGgbVZ++HJxuz5wOOIrkroVJwO7sFzjivgKxvx1wM0ENlcwZLO01obKpEA62INqbmtPc+Z42MsTyHtVATahsaUNu4heXpndzjXJ/F8jbpaiNd3aRrXNclaehCx/EY1j78CPd/cAsjl8ewYTMKccT0q6dwBWLlu9iznJh55LNh2k5iL7mAyW9fxdB3r9F23dx+NIldcfEdEHC0yDFCXsPUc/g6JqGQc6RZUS09HA7TZNkxv55/lAaICIf2sDK1gspjZ9EYX6DLs7Q4DnXMZpgvfbawNJNB7akeVK4vYNXlwexQKInlsVVU9p9BA+lamtFvBknYKGX2kExmxOoo0tCOWut+EFOGmoF2REMGMkYEFWc6ULm2hFVrdUT5p8x8fqd14mynyF9jI7Uyj9VUM1oGKkFXatTlUVQ/ex59p6vMS8SAgCOG+G5aTTYnXukWbmPadZznJiZ3dzF8/84jN0CK1AKtcsIxpGdmzOd8bKi4gd3peaQScWxNzZvfgLmQnpk1dU3MQFw1Oa53jcUJzM5XovMLL6H/cy+g70QGW2syX7CO1bkq9H35RQy89SJ6WrYwdWUKKas+mf+VF9H/Ey+iu3UL0x9OIkUrnRC1fv59vtF9Dv1fvUjln0Vz9ToWR9cRClZCAUeQ0Hn52zE1TaxhSgNeH7I5w1cWcEvPpimtlCaCZo6XLgunbi1/Xw8rdjt+tsFoYWUrrIcGc/a08oh34vilSiy8fRfrKW0hSTLcXt3emBFKdRghsaNVSaSsDBHsIZUUJem//Ar9ay3Y/OPbWErFEIllkNqm1ZRlgMyv6Df/yMyPcv6Oy2qL643GEM4kkQluQFsEPXH0sIxQDvmMkCyRc0Ip3Z6WVX2QRqhUfBkh2nLqpb2RiSLR0YzatnZULH2C4Qe8xpGSSo6xysiAWx5hGTqGjI+55/+aERLGSRaz5DUjRPmcnHUPbbU8wIOgh44ej8QIMVbIWbsW95bRE0jKlk8RMal5z3FTi/hUcrq8DLNKUUrunbIGEmg63Ybo2gIWx1fB95F142EhwvThKC/Qwt5GqBpNL9Zh5+oYNlMyncjatGo0v0T5Vyg/HRihYgl66OjhboSspb/9pImwJp1zQikv9ySbBZxGiLFNRIUjzVmnQDdCNr0U0WW1PJsex17stDRd1vxandJ4p8mYYVmvni6ggCWjocWzx046VFiXd5S1Dpn2slYBJwdGyD9BDx09wo6xTmfJ5TRpEyAf7ieYV1Sc48gtoCs/zppYmZdCR7pnvVkdSsQSpYCVayUytkgWj+Rc3HvMWd6pzrf6gIDHgMLfl6i/sn5GvkMZR0WSyyxyrdch51XWRNdg1eSNU4+OyNN0UJyTeLViXZS6lqc813Q/FGivhtuKkZN4868lIOBoEhajWGz04VgFmbFsWr75JqSkAIetuLNQjhJKYEMnjJ2+eZBtDolZNZk44z7IUxPlmf+UVrtmRz02RXoJKZeTn0UdcXYz/8mIwKlRbQJ17qyEgIDHh9zLsaLxr0HNkUOZK1YzOKDXQOE8TbS1JUfOfnPeys+jzxUP48hqrNs5NqRsbhH3tICAxxj5oIu/kZ1XyufEzNXhpVVMUTPogZLIlcpfzslBHFdeJVZe3pr8UdyhBQQcecQztkcWvxOO5FhUXsSIzfzIQ6F8ganvoZBT0RE+LwEBB0jo/Nd/xnOeiWmg5TqnhRlnATJlUs4m46LZ7SarxzWJJuuoWaZbt5FkAr/sfntuxNvbRpd8WJFRummvgiKgpatMqx22vWyTa57ENUwB9VwQo5WzUl3LSZxxJ4Xyn3IcIyngCOBphNwmhPMEmnEW8GeEXA0QU4wR0kUpbBalFYs0QHm9bSgjxOVox1qtql339EH/AyP05KD1fMARwfVVHgdyolwmj57E3jaO5Xjb0LCE7a1ZY88aahu5ifVR3m5hY+JOQW8b6nKNEVo5YoRRVt+Mhr4etPW0oba2jNKkFBmLUvrCiNai5dk+VJeb36zZOZDeDQh4YnBdCdmmicx1Tp1sXL4H2inn1OrIF++WHpDvE7p7K/fX9CRvymZrYvb1A1ZtJWTuKtBw9jRaK/ewvriGVKgcicY6hJaGMHpnwXxzIQuzvCxj7VW7KF7WM4C20ATGRrZE3IjUoOVsPXbujGBD/r4rW45wC9Pete+8wl74kXmKsY+mgKOA7/cJ+aGYsmx0+GVmzPFT57UV0cMZJvxzjHhPP1pjC3hw+SYm7o9hZnCQwoPYrjmBznbTh5jwblGmebcod3i3iERRVlmF8spyREhO/IQitY7FwQls7JoifETC+0VZGaLZ1xsKdO8ZBumKJkhA168IRxHxygsIeIzJWQnlmADKdTML2bTsSsgmp2vVwk5duSsi8xWDXveD+DKsZG8b+j0how6drx1H5uZHmFmTTZR1hpr6cfrYDh78eAy7RhN6v9CKncEUavsqqVwM0fQSpq/fx+omUHHsHDp7qhBHEju7a5h/n9JTzeh9swXr37mNlRT1Dnu/eLYX1bEU0pEYjOUJTFybxA7lGaz/qy20akqhursSkYo4whtTGH9nFFucnwHKjw+g60wtsJ0iW5TC+o1PMDMjfkJrx+qzAC+c4y/g0WNbCbmdIF8nrdS/zlQsldS8bfQclxnmJYy50T/WX2IVnpQnEA+tY3Mte59IkV5Zx05FBcqt3qlBXf0Shn90Bfd+eBkjM+VoP9eBGK1uth/cxuREEsmZ+xh6dwhr6WyPcfEM//qeDFB04hbufvcjDH7nKuaNdnSzUbH6rRpV0Sk8YM8b3/4Yq5EOtPTGzaxIE1rOJ7D2zmUM/clV3Huf33Ndi4je56J/DrqDAgIeDq43povCbex7zAc3g8YrIcvbxpjytqFPMLk/aKIRRDJppJV+vZ5UGpkQXf5Yl067WB3RvF8MT5reLYSbIG+Ex6CaRtSWzWNuZAuGeCoriZW7s8i0NZF5UpVuYXV0DQb/9GJvDSszSZRVk3LKNtI7SG7HkOhoRJyvENemMXVzMfe91QEBjyklGaEDGf40wcSl2Cl1KfaQ3jVtzftdJKPl4Ns9Njg/UY5Yage7yjM1GQ7x6JEqm9nB3m4c0QqVoOFMosur2A6VFxZJQnXvxeIos74YJKOnXV2lUxSRRiYU2sDclTEk6zrR88WXcfIzx9HYSAVdVz5uaQEBR5v9rYRoIvg1SE45bwNEEylnLh3CX/30CrbWq1HfXm7Tzq7HKtubEF1Zw47Vjjjilrsdgr1bxHdNtzzSGIj7Ym6wsSun8qKnpcJKMnJ7lG4ZOW9Yq7E8i+n3bmDwDz/ExFgUDZd6hEuhgIAnAftQVpOO99YEdIMyZX6OmEu5nOlJMsLbxu5OgRUQlTykyw72irEwPINo32l0tFUhEjKQiZShumcA3W17WLivv8i+DDXHOhAjGeHdor8TVRvK+0WIrt5SiFZXIup28GvzWEs2ofk4WbEMlQ/FUX+KvbLOmy/Bd+DUYCRa0fO5ftSUU1laLiU392BEYzl+8QMCHldsQ1lMAH0WuMypLGam3UTkLWBDeNu45+Ztw93o+NecB4cSY2UED24vINp5Gqc//Qqe+dTz6GpNY/7ax1jYls/3CNaxulCF3k+/hIHPvoSe+i1M3ZxEKkTdR81NTk1hJdyBk186j/qYvRL2fjF3dRh77edx+ksv4tQXn0NjZgLjd1YpUz9WDlNZ878Z5qTNRSzNR9H8BtX9lUs49WINtm6MYFVevuXeVg8IeLzIfkVv3WOwX1joYYWYnlI8R1b/SQJDcjk6VFUe8Nfz5uSSJbW61Ff0xSK+ou90++2YqEx8dR5N79FihWrhPCu/UXxFv/6DW1jWvVuwAVKwCr40pdUd0nQ9x8bFKm8G1HNCkUwSafUNmsjSw6xIxikszoTUw+2KVoRh7KRIpZLhbP1xBiabF5BL0DtHDxcjxCcqe6pyThqJ6WsEPd/+bA9HSFNW1I5HutBHefmMUKlYRkjVLfaiMhnU6hMJvNeM0J7eHhlmlCxjlZMBPY/JkdV10oeWrxshM1saJonoI/qvtYSwxwLsBL1z9DCNkDnCRQKT3wjxRMhiC1sqOJUniK7JQbY6C0vWag+ZOymn56miVn1qrwLCmMh2WnmEbmSsPX2Y/82PHJkqND9Tj+3bo6b3C5WuWmTFCStMAau83DN6mBFxXQ99aDJuRijbE1lZlaKHAtwJeujoYbsnxCdIP0k5J4wGvftJpFQxIXQNxRkgL3SNCpHmpUOk80fWgJl4tUZf1zmgjBDWsXDD7n7HhEt5lPRUWAi9jmw4V12BCrwONSDgCCJedG9uuSEFT1P+TZTzMsyUUfJ6CZXngIvnmT8im+qxXYrp5Cmbiy5MuoRFok1ZJpXt2ItjUWmUyEG7MVOwTq2NbjJWmtBK/+XetjmwZLxQSkmGZW06Ja7tDWC4aw5yC9g/whe9wjGUBeIHmY7ezspI0+OWX8oZojJmG5ytIHR9Xrop3ZnlLuqlQD8yO1xC3zxRmZaQy7F44Crpv3hAwGOJdTnmPtbt041lcuTyzshS0GooUrdt/ruWVUdgPwr3tZxTKg8H1AcHpCYg4LFCGCGvyeZ536UQbuUOa4bZ9JpH4jwe04tqfpPi2+AQris1G5QvRPxp9aHNRFx6BQQ8WXg6PzQNUDbXVc79ZkkufsTy6fJZzWFPUdbvv44SWyOP1Vn6sI8tIOBRYft2TOFcAeVOAEoRN2WLmRpKqdzzTt/86pLFvVCXVjpWLE9Z9czNvthveb9wPepe3cOqMyDgkAg987XsS83EZHUMatcvsLUS5gTnBDnVZZ5ZTqWpAnYZN6SEiZLT5b3CBL/sfmtuGOk9D28bHW4PK2b33EzdAJuXcRwwd+JotXwvPRbOOONWnnHRYfUFpYlkR3uUhK3PAh4qQd/vH8sIic60BrfeuVqiQibZT4CMOfNEXOmwy3ghpHQZH2FlgH759TzeNvIYIXMlRGbGlpYNWPeBVD6jws69Il/cK8+Rzu2xkgIjdOQI+n7/CCOU//LLkclQUm7nU4oUtfJcigoonb1tdPYew/jwkPuv6FUdug4Kr416/2yDjY+Xtw3TCJ2X+midlomisrMVCfF6Z0o0UkhubWBzYRMZ7Vgs42RGrXSBCjv3CjdZhVeel5wyQIwVNFtltS3goRP0/f4JPfNVMkIqIvd2nLOC5HKTCCot0y09NjmOyBwKivcJnZbvE7qjvc6D8mzt0HVQmI1QyT9g5ZWQ1GdkEmh9+QKqt2axyS8OisRQVl2PivQ0Rj8ax471mlYyQ/mMkDOuU0qeFnZdBTFW0GyVrb8CHipB3+8f241pbZhrcDfTxqZKXK7IuHOjwirmTjaHQ2kyOsNkfBg2RmyUzAbw2kOsP+y4N65IWInaGAPbk8OYvjeC6U/uYfj9m1iKdKKlLesSI02TP0SrtmiMjzHbCCPj8MJR4fDCwXAR5WXDeouiQ0aQTeO+URt/iL0TISAzXQUCAh4fQs/SSkiG3cezzC001l1XR7Y0jphalCzvbCuiT3hFxK8bdFl5yL1aCZXkbaOdLsekZnMldB7Re+9jconSpAGpPvMyWrdv4v6DLYQSLei40IfqSAqZaBTGyjjGrk8jSYZYeMn4suklo/a49MKRWsL0R6YXDiZUSeWfc3rZmMBOimy/Oi5G1C37hj9seTLqNHDZHvJYmQY8DLJnIaBUXL+iF6NebT4ofCI0RQ6dfBk2dl962+g9JlMlPusvGg+9mXANqmsNbK1uIYMKND/Th+jUDdx5+woGf3gdC+EudB+rlNJMDeoaljH8Jx/h3vc+xMh0Odqf7USMDIZhJNBMBijrZeOa9LJRJ96waKEFvfrRTA+Ge8CTSa4REn9xC20+sMQ0eRnUtfBKqOek9LYx+kCmamUOFOdEDqPq+Fn0PXcGfRefwelPnUL54hDmFymrphl1ZStYmU8jUk6XY2UGNmZWEWuqQ8QyIrtYHdK8cAxNmV44+H3UupcNunQKGbualw1G9YKpy2qZ16EHNijgCcVhhNxnQL7x73tuCNV2/fZLMc0VNIvRZknbix0gBnaXZrE4PoPF+V2EQ2tYfLCIFBmNcDyOGLtzfvYcjj1Phoq23t4E9jIhZB10JJHclY3lTXjhKEOUXYa5etmgfJuXjYCAAMsICWPiMtlzjYyL2SnBSESjzntB6mt6Uz+r9G3gSsZAcmUR6wtLWKVV2NxGPVqOVZuXS7tJ7CUXMPHeVdz/8XUM8fYebR9OIil+w8UtjCPOvsfU8SsvHPwGe5uXDYnysuHyRIIrjn49/P4ICHj4aFPEMeJdUZNPbvzfrZhbmg7lW942bAZIkTVEBXUdENQaLA1NI9TZh3p2jLE2h5VUM1po9RMyMkgbEVSdPY++41UUVsubMtScUF44okgMdKBqXXrhWF+QXjYqRScZYfay0YrwZB4vG/TBe7dDDm4+BzypSCPkPsJNU8CfalOouFmu4PxwERDeNu7q3ja0OrSqbEULVrQ/MssTmFmqQMvJRkQyW5i7YXrJOPXGizjzxnNorVjHwuQaXbapBkovHJ97CQNffBE9TVuYujGFlPC0qrxsnMPpL13Metm4q7xs6JuJfnjmy93sHPLhBwQ8EkLPfvWnxdgWU8Exys3pkZ0kJixEaUI2W8D6Ut2hQyTY0lTZAigZuRfaKbw2to+HFduzDyuqvbmSow9HurVnwjGEM0lkMnpf8Ff0rVj/7m0sp2N0eZlBape9cNiPz+5lQyVqeoSsLKDXKcK6nJ7JZPOCVdKjQx8RAaURevYnflpOCXt3encujXhRQh/50gS5TQa/aRo8qSwRCqjaOJ2NUKm4GyEVMHc5e8YtDc3iOSFhhJQXDoVNjrDiMqAbIcarDdZZoASRZvUERywCI/TocJzJgBIIPfcT2YcVmUKdKvK1EtaUcJsIBdK4nE3EKS/jOfr9hBkVp71NB+3FxY4Wt/YqLDEnuChtIvMNVKP5uTps80vw+ScejnJmnD6c6YynEcqth1OUKvPDrMuhIeAR4fc8yNOZl6f1nNq+HbN1Aveao+dEvuOywEwTQTsFep3L2UTc6lL7ArpcUWUcZTnqV12+FYbwwnF13DRA+XDLFor1lnjrsDeB5PK0KeDx5mk9tfoXyFm8ekOkOyaMm2ze8iY2ERd5tnUFpre9nBV2UUawPpGjst3FDoeCBxIQ8PRiN0I8MZ2TU6bt+77DPsrbihbU42fGeyjRihZlN4Q6N52sxW1zwys9IODJRrj8sa4OPPCcHm5l8ugpBq5TNIs+VNiOyM0GBc64D3TZQuU884usUNz7UZsPilEfEPCY4X455oeDmBisw00Pz1MZZDgspqszMQd3c8WWrJhpb8lYzwM5oTqsalwbUgAuU6icW34pdQUEHG08vW0cOl7zySPdc/pZGRygzeUbJk/ToyvVwwI/PZNTqABOeYq7qRBpj+zMBAQ8VAquhFyngtfc85pQerozruNM1+K2e1Ii7NIyL70KlV9I7lAMkBdSz0GpCwh4zAg9/5b9OSEnvo3QftIUzjyKW/XreVaYAtrKR7zsftHb20ZNK7/UjFDlXXSaxk47avFIgoxb8hRQYSuN0cvJvULo4b25sxBxKqenu8owFJDHq9UU8Ajxex6cp9SLp/G85jdClGO7LeIl6ZbumsaJHt3slNfiOd/M6XEZVgYon7cNpxHKXV3x3tE+mxEyf88lYpa83Au0siLdXtbcmzuBFSYZ13SJFadAYISOFH7Pg/OUevE0ntfQ819xMULUE6Iz8vaczHROWsarnEznEuxto6PvGMYfDCHl8m4LNhBKjW4s1sb34W3DMkL8etYoKrtMbxuCTArJzTVsLG4hox+TVTf/Ut4MmX2jZLSG6kNIa7NA0yP+x2rReqEB27cfYH2Hrop1edewDARG6InmaTyvNiPkrwOUOEnrk0XhTHOTIWKxGI6dPSfyH3xsf52HaIdeTguzESr5B6ytmrcNI4HWVy+genMWm7sGQuEYYjXS28blcezkGKKDNEJkBKM1aDlfh52PR7G+S+V0eRXWywiyclpND4X4iQG0hCcwfs/tRSQBB8XDPq9HAevGtP+DZ8nsZLDhTHOTIVgDG53h27dF+DgZI+FtQ6GX8wrvF6HL9LYxc2cU0x/fw+iPpbeNjqy3Df6Bq/K2ERJWyN5TnBSuKEeEnW1QXjjGqxoyWNIbR0h7n7QRiSKsVO+tY/GTSWzssDi/yVF66yiLI1au6mDDl0FIvF6W0tKaLtbPZVh/JEbtkxkMx9n7h1Y3I37Rz7rYc4jeLk2XQQ2MJqiRellqd7SqCuXVdJwkpx8TH1COfEBAEYRecLsc84OzVE6cE3gyqb2JFZLybHzEiohQKyLXezUMhdcm9uFtQ18JsbeN184jOvg+phbYabX5LFHVuZfRunUTQw+2EUo0o+OZPlQpbxvLytsGKyCjVNOO7ud7UGHsIkO2Z3N4mVYMEcx+Zwib/Cv7t1qw/u3bWE6RZipTcfp5dEXv4d7NDYo2oferlP/Ht7G0R7Jfa0Hyfgi1fRXYHbqN4btbpreOS5q3j0Wq/wPT2we/SqTnGy3YvWOgpi8hjEjy3l3MZbrQ0RuneAyZ+WEMvzOLNL/fqKoZ7S9rx0K6JkjXLq/KlK7bKVT1ViKSoPLrUxj/4Si20iFq9zl0HK9CHEns7q5h7gf3sZYMofzkALrO1iK0nUIomsL69U8wM5Pi7g0okexMeXoo+BV9LjSb5ET2R263CvskYaMzdm8Q5YlydPYd89ZdVJ3FYhqgNF0isbeN7bUtSqlAExmgyNRN3P3RRxj8wTUsRLrQzW9KFCWq0PpsFzB8FXe/fxWD3/8Eu62t8iX2+eCa+GDUAal9NSpCExj65mWMkAHKGBVoJgMUHb2BO9+6gsFvyvpP2b19VMe4zIfUvhmEB86go3wSQ39M8t8ew15zFxobuAY6FjJA0ZGbpOcj3Puj61gkXZ02XdWojE1h+FuU/4cfYzXSgZZj/LJsYPvObUyOJpGcuI+h7w5hnY1qtAktFxJY++Fl3P/uVdx7bwHhllrNCUBAgD98GCFtwoigX1vtLscGSM8R3jb6B7CztYPJ4WGRdujD2KogjKoTZ9H7wln0vSS9bSwMYW6BsqqbUBdX3jbKTG8b09LbBpevaUB1eA7zo3Q9FeJLtV0sPliA6zrA1wFtYe3BClLqxWl1zVT/Mlamqf4Kfnk+1T9B9bfq3j62sPJgjdTTamZpGdvJPWyML5vxzUVsrLNTRhKra0ItHwvrSnjrWhtep8sxqj+1hpWZJMqquLAHqR0kt2NIdDWCFl20RJ3G1I1FseoKCCgGaYR4IDpmikqyNke+jksWf7XvNhw5TYnbLsVuu7xrWgnmqboocvQY2F2YxdL4LBbmdqkz1rA4tChc+KBcedsgA8VG6oVz6KXLHsvbBhmm2C6tDoQeE2NnD+rlid5wI9x6Jo2M7pmDjEUsUouWV87h2Gvn0Edbb7/T20cKhtYAvn+V1UH1qONlzx90LM2v0nF8ytxYFxs8zdcsu+O3SKcoEnFrp0kovIG5D8eQrO9Ez5sv4+Qbx9HYRNYoWAkFFAnfRZVBDSvJx4ByERH3dNyKUppKjhQwQG7FDx4De+xtY34J6yMPMLdZj5bj1ZRMte8obxvXTC8bvL1L22XpbYPzaXLHeZ7KuRriFYsZpMmYofkYM93/SCJxvoErI56YRx7elvXTpc7Q96gN36O6efsR1V/sakPqmvw26fku6VAb6dotQpd8f6aFsTSL6XduYPAPPsTEaBQNl3pQmbWQAQG+kCshOZN4/FuzXwVknmMAuiLLq5KWKkaLsCbL24bj63kLTc/DIBTaw/K9aYS6TG8bZJmEt41W4W2Db1tHUc3eNk5UiRUH1hawtteC5mOV4tsiI5xA8/FG1aHEFpIbFag90YRYLEKXPt1oava4+rUOVAWoh1YWzPr7Sb/oC6r/War/NNVf7GpjZR6r7DlkgI6F21qCrnQ6hWhtJaLyWwOjshU9X+hHTTnFKS+5uQcjGkPE4xADArygIePDuHihj19xuZZN0LOyEfMGME8D4W3jzh33BxW1za7oMAnBWJ7E7KLpbSNsbGH+xojwljHw2Ys49cazaEmsY3FynQwWrwk2MXd9DJmuCzjzec7vR2R2FrtKW3gHC3emkG7px8AXXkBvT1rcZzGPSj8ocZQm4n6bGWdvHfPvU/1dVP9bpP8tqr+K6h+l+mn1Uky3WLq6z6H/qxdJ37Nors7q8kNydAorkQ6c+MnzaIhT7euLWJqLovlzL6H/rUs4dakGW9Rfqy5/TwIC8hF64c1D+oqesdLcMuVky1uOUGG5X5vcx8OKLRfMiJt+QjwTJNtlw83bhjC6ZAxoFykrAy3rkE504+QrZZj+1hC2xOQmc0tlwlHaW++hlhVa9ap0QupUqJARkfUXepWshqckrVZyPYf4QzxnFKW/Wym6ppTGi48vStdgmR1aCfn+0iLgYfC4nA2bEeIVCuM6EXWsEho5aZQgBqWbMKVTsmsturhLmI1QqdS2nCc9jlqlXnHs9N/12FU71J5xCRuVXQ4jxInmTiDCStjcqb4Q6LKEaomwTSIg9z5wOYqAp5DHYRwUtxLyknRNp8RijZAu6ixmxSlghU0N1mpKZim95uSVmbQT6SKq1UxxZXxNmZxWyTLannEJG2WNaDsdxfLVmezN4xw5JWzubEZRlyVUe61kR34+XI4i4CnkcRgH4jYiT0JrIjrhZLX5poCwzC5aLWMVyHavPx1K3ryfIsoUXXl+QslFzF6fLfztla1e70awET3gJgYEHDnCzkGe1yC54SUq0l0yPe4bWJccbtjyVHlOpE3mOYs742Yp/fMxw3lAAQFPCGIllL0EkZNa37IBB5RmJSsZuXkYGi+UGrXPBgg9LMhJsMjRI3Bvi0iVWXz8og9sL0+SeFd3uDyqegMCHjLqOxwx6POuRqxZwXtT3grrWOkueCRn0ymgy9jkOc+W4B/dKLrYGUWerICAgEPCfLTMc267ZdBU9Vrp+LIR5rNC+mbBdsafEhNdtIhiAQEBRwfT75j45zQMzlktzUXOZJclXA2TzBP5elxD1K8w81lUPJWsVyb0O8qWAqm0NGvqjzSPSzsDAkrAXAlJPMe6mLX0kSOgjIIQMINuiKysobPQiqg8fVOf3hTKl7iJUd2q1fpmQ0/IyfRBTvlSlAQEPNmEXviy8zkhr2iBCZ8zvziBDI+WbqZo6HkUzv4YgaS0PFtYIdL4I6tRvOx+2dvbRm3zBZsq8zdZGtQINpVCq8gwLw5FDc6Vnro/5Zlu7iz0uAhr5VRejoxED5eIo5UBTwmPw3l3GCH3oEmew3GbJHJCe+Iso8fz5SkcacoA5fW2QUZIJ9cImUcp0kTYywhRqhDioOMYVWFtJ8gJa+VUXl75/eFoZcBTwuNw3rXLMTnSeWcb9HwYeQ7Fc4LkP/yy8jj6zpwW7xQqZpKtTd00t2n7tj73iacBciNjRJHo6kRTr9x6WlHTlKBW+2hMEe11wzAqUH2yCeXi7WgBAU835krImgtuk8KfAVJSnKRfgrlC+Wx8jp+X7xO66Xidh17eoYsNUKk/YNVXQhkjgfbXpLeNHaokHENZbdbbxrb23h9xbPqKR11yMa4rIYkIywS9iNGE3q+1ivdLL++FUHZsAG2hCYzd1zxZ5OjZH3nOYsATzONw3m03pg+CggctJxQbnQe3bovw8Quat40DmHC+EPUY2JoYxvRd9rZxH8Pv3cJS2O5tI8OXlextI0pHphsfcaS0sSeKCpLX8ixPG3qa9LSRc3jRKMoqNU8Weh2BJ4uApwDHSqgIHGVsxsdDH88vp5xYEZERYsSKyPl+IYcutRIqxduGbSWUoZXQp84jcvd9TC2ygTHTq89fEt427g9JbxfPaN4uhLeNKeHtgg1NvGcAPQO1wHaKFlIprH38CWZm90gVrXTeopUOe9rgwyHdFadfQFfkHgZvr1M8uxLaOXYenceqEDeS2Nldw/zb97GaJN20Ouo5K3VHSfc+PVnY+j3gqeFxOO/iOaGHgqgntzJeEY3dHUQ8UY6O48dkquRhtU2Skd42ttY2kUEFmskARSdv4O4Pr2Dw+5q3DW5XpAmtZxJY++Ay7r9zFYNX5inJ6W3CtO9qc2N78DYmx5JITt7H0J8MYY0uz4Ru9mTxNun+Hul+bwGRwJNFwBPKvi/H2NIWY22taSQDvBLqOTWA3a0dTA2Z3jY8OfA5GEb1SX6J/Rn0XbqA068PaN42pLcLV28b1JD0DvZ2Yki0NqKMryTXpzF5ewGpcEi8RpqbWnJzWTd7sugg3WUUXyPdgSeLgCeUfRkh1ynhMfNsyTJiuxS7kefm9KFhettYHKdtNkmdoXnbqJDeLp47h76L5qZ72wiFNsTrXXfrOtH32ZfR/+pxNNa7eJso4TiE7g9Jdz3p/hLpDjxZBDzBkBHige3c8lPw2688qIcAc+4Fub3s/tAxkJTeNlZ1bxu8lFHeLt69iqF3r8ntOoYuTyEZMm13ZnUW0x/S5dq3P8T4eAyNF3tNbxNkLAwjhpjuaaM8e7PbhuxL5zNVmWXS/S7p/kPSPRZFY+DJIuAJhWYTD37npqHskrbxjrElq4AbVrrSHUI4EkZyZ8fjZrSHIkfTDpJwaA9L92aEt40Gdky6bnq7aOkz7wGlEbN52zASrej5VD9qYpRppJDcNr1N8CuYgU3sCk8bzXSpFkWstSfraUN8pa8dCAVTKYcnC9b9eenJIpP1ZGHqLg3W/DC2gKOF2zl6GFsx7GNYa+SrlfLcspM7uxj5+M4jWgEROQbNoNXHBGakt42IsUWXW6a3jVOfu4gzn5XeNiZMbxvYXMTSQhQtn3oJA5+7hNPP1WDr1oh47icc2s162vjiC+jrTWNlSnnayCU5ZnqyOPm186hnTxase450f5Z0f4V0v8SeLIaxslfs6Q0IOPqEXvhSgXdM+xn3UsZtitkWNRR2nYbOOkQh9wl7UA8r5tYp94wKq8ZHykwPFbyKoSS9ZcLbREUEGV4JcQ7lq+J8CycSoVWT7iXDUV4JC08f7LSLPVmwkWM9VF80ETY9WVA9JrbSR46j3bqAh0Ux48DbCLmn5uKQU5XbjI+AZxXnuzTPJmvKuR4GpfNPNEqlpvk8fUq9lqFzqU/Eea8CUo73tNMkNdnsXgUFtghBcdfyjC3sKGhFbaWPHEe7dQEPi2LGgbsRyk3xxk3WliYjcpdjhHRjwIid2yFQhrifIuVUGZHGcFgGFXrcCkv5HCPEqDxzl88IiZjKVsi4WYw+xF7qZGS+lmKlCVRY7PUMworaSh85jnbrAo4aPF5y7wk5xv7+yTMsrUnurNStEUoP79Xv20vEb1HtndO5xlPuC5B79MW2O1dDQMCTxMHcmM6LPunsEyp3OhY74Q5b3g6X1jUUa05MNA0FFUhZa7Wn1x4Q8GRgN0KlzSqf2CdQ0QYop0AxE5JlNXkRVHF/erh6tbmiMmwC7rpddXgqVvhrZ0DA40bWCBWcBC74LmOfQHoxM8z5HCquEXZpvQ4O0yYup/R0L9zkSLvtcpHj2VhhuH4Z3C8HpScg4AhiGiF/syovbtPYhFI1/b4nsA9ypbxb4R9uoVcrD6CjCuFWxUOoNiDgUbG/X9EXNd+5IrUp+HavU8kBGhGxU/Xp9bqhynnU7yjOiyxLMo9qcQNdqRaYAV5kOZIIDqjt8UQ/gsf3KAIeJvu7MS1HmT5tizchaqhSSesGrIOSRrOaBkpnoZZxvl/ZXFybKBKdurJxK2QL6JtECwYEPGmEXvhigSem8yFL2uYIpeUoFAkqVZOmJGdZV1zSOUmU1fIsbxspd28bnk9MO/WLOH24ppst1utWt444zbqNxKiwnqagNNdjd5NlvNKPOLZjDAhwwOPD2wi5paoR5ZJnZbmVE2kqQxuWlGQbpG5lGZd0ThJlZZ6RIQO0NIxf/rRPbxu6Tqd+FXcejFyp8afIseTMjxDl255fEkF5hFqy3m4LFXemM25pjwny6AMCXOHxIS/HeJRrI11MPkeaD7wNkCI7JMvicRw7J71tFIHlXUPu12bMTXjb8DBAOcg28fujw4kG1B/rQdupbjS1VyFiNVhvuGw37awjsLI5YEb0Ek4ysVq0XuxDNf8yvliy3RYQ8MRhXwmJkHOS+JwBXnPLmS4sVch8n9Az54T2oRu3keZf0/vQwYZnXz9glboyRgZlHWdwor8Cu4tL2NqJoLyxEYnMNIYvT2CX5ax6s32gfqphGlwVMXd6OwUibpbNRGrQdqEe2x+PYH3H5Rd0XjoYt7THBJ+jJ+AphcfH/m5M54MnjuvkMYel8LZBxodF2BgVuyIqDb1BNWg+UYX1W9cxcmsMc/eHMfL+bSyFWtHQIEUI3dsGe8JQGvgX9eEy6WUjGkesjI4rGmPnGzYykQginJdcw8LHE9iQt6tYT5p1l5PuGOWbVs1C/Kqe87is2xsVA08cAU8I2ZWQNZadg9o0GgXRi+WbF448fUUkXvHqfMEZo5VRK6FSvG1UN5+XK5kQzd1adL1xEqFbVzG5qDkZ04xBKNGCjmcd3jauTdMqics3oe8rLdh7EEJtD62mhm9jZKsbp09s4f4PxrAXIhkyENXPXkKXMYhPrsfQ93XpayxJBq26GR18eRZLw6A+yCyOYeKDKeykKa+K8i71oUrVu0j1fjAtvXwA8ZMH64njMPE5egKeUnh8uKyEShg2+YxOAYS3jTvS28YJh7eNQ0Ed3woWhtZRee459J3tRG1jhe2hqYxRgWYyQNGJG7jzw49w5/vXsRDuQhd727CoRgUmcP+7lzF8fwvp6XmslzehnuyDIFSPurYMVsdWKZztV+HJgwxQbPwm7v7xFdz95g2sxnrQ2Z+gFlSgiQxQZPQGpX+EwT+ietnLxylZb1R64vjhZao38MQR8PiTNUI221OEIbKNfYo4LitysefzSqjntPK28UCmHhJa1WEyCsnJQQz+eBCryQrUnzqPU58+j87uanHZhRq7t41YmYH16VWUNUtvG4ItrIysICVeOEaXZ+llLM9EUdvOBoPirU2o3p3H0rIQzlLXhLrYPObubZlfuKW3Mfej9zF0Z8vMi69gZYrqTZTRlZ6BjYlVxFqpXjY0KemJo0t6+Qg8cQQ85mS/HbMmFu95MydWNu6BElOIcLaMnpXFzFOXYszQjVvYE5dieeraL26NSW5g+f59PHjnAwzeXELk2Bl0NJNgedz0tvH8ORy7eFZsfcdMbxvZ2z50KaVdyfFiZ3NiAeH2ZlTQYdR0NCA5MQu6+rJTQbp3k+AXvgqo79VlIhJcbw1aXj2Hvk9RnbT10grJ8vIR1jxxvHn0PXFwqw56C3iyOJgb02Jk5A4PNffMvT0/FotaBugBGSB1LyhHy0GOOk1Xpqwadd31iEnjywuJ1PIUlpZCqKipyHrbeOca7r97Pbt9MIld7dJKIVL4Y3EBq2iiy7sG1DZvY2Wc70Q75Ld3sUdGju85KwzSGQ5TW7Zkvd++iqHvXs9uP5pEUq52MkuzmH6HLtf+4EOMjwaeOAIeb3wYIR74jkmkY03sPDICzs9aAfa2scfeNjQDpNjXC8vyYPtifC+KquMn0d5XgwhN/gytM+KNnWhqymBrZRtYn5PeNhLi8ixD6x/2tnHsRBUtOrzbFwrRymoyhdrzZBjW5rGy6+wXKrtC6clmtA5UmbojCbS+cQm9J+OUZ9bbOkD10urG4HqfPY++01W06qJ4ZSt6viA9caQPxhNHQMCjZH9DN2cu0oRzmZ9uU1Z427idx9sGF3IruB80exA2ljF1YwroOIMzn3sZZz97Cf3PNCM19DGmFwzqmG3MXRvGXkfW20ZrYh0Lk+vifpIrsr27kwtIVcWxNTGPDMs6xIXuy0NIku7Tb72Isz9xATVbo5i8t0Oi25h/n+rtPo+Br17EqbeeRUv1OhZH1+lSjBStS08cn3sJA29dwulL7IljBCse3RgQcNSRX9Gb/83Zoma+x0TTUaIiIOW1VYJaeWRTKCQj2bxsWhbKk3psqxfioB5WVIinpmNxxMJp7G2nzMPQZDgYUt42lMcLZ3spLnL0dBkWO1t6NoPrjpTFESHd6ZT9OIVc1FGvhvDyQddgwhOHuLv99PB0He2TDZ/LPM8J+TjVQtQhLyYZhw36VL+lUrooLMSzpqUUI1QqbkbIFhdh+hCTWs+QbciRNbFeeO/IN6Mc0I5BGSHCuhmtk822hwMsHD0W8BjD5/KAjRCFLT0uiDxTr9JuN0JanZYRUp8cp70l60CmW9lqsksDYGl2ltfjKpxVQpssmadcjhGivZVtGZ1cPSJFxvX2ZcvKfYANq68CHnv4XLrcE+LkYk5zPlmlqxQZFXfufSAmb1anVbKESW2u5BzoSTLMO33TQ25tL3g0qmhAwBPOkf1Oxbyf65iqNDHV1FZbIZQGV1k90UVAJQnf8zLshsizhK0PucseA4ds96lVGYKDagsIeJrwaYQKTY3sRHt45G+TalHRk1oUYKMjS1oKzBS1eZM/1xXr0tHcBQQ8Tfg0Qj6NjLj/om+MmllZHdmQf9znZ3byckiXEeFsdm6dmjDbAI7mrHccUXVU+dvvzM2vU6C+8teL5q8kIOCJoYARcpsxeXCdOFqi1/M1efBuAety15ebSlp8HEr28k+GLEUclxE3PUV2kycHpScg4DGigBHKnc6PA8XOZT7K3CM1DY9mforDaoRWupiGBQYp4CnB5Sv6InGW0+KJludRf/JnEKvqwN7GFJbv/TtszV0VeTw1LVGXusXUpXTOUrL8VXhW1MyxpxF6xArzD0QdpsRVjrApk2hpfOlmaVLpYk8fVh0clsGsdParfIUe9woH5OA4kwGPMXwu9/ftWJ7Jwgao7eJ/injtcUy+85+LfduL/6lIZwrOMxJwyuSUKfCtlY5fuXyY94+1m9Y2CkwNnw1Q2tWm41NFQMBjhWmEShndbmW0NF4BKfY2Z2TInu4XoTanvvyT/ij+teRDUFvu8ehJLplEsAIIePIA/v/V37glAP7tGAAAAABJRU5ErkJggg==;" vertex="1" parent="1">
          <mxGeometry x="35" y="1960" width="312" height="387.57" as="geometry" />
        </mxCell>
        <mxCell id="8waOTapv8cE7Aeydk_Z_-55" value="" style="rounded=0;whiteSpace=wrap;html=1;fillColor=#ffe6cc;strokeColor=#d79b00;" vertex="1" parent="1">
          <mxGeometry x="35" y="2390" width="335" height="150" as="geometry" />
        </mxCell>
        <mxCell id="8waOTapv8cE7Aeydk_Z_-56" value="&lt;font style=&quot;font-size: 23px;&quot;&gt;Repo :&lt;/font&gt;" style="text;html=1;strokeColor=none;fillColor=none;align=center;verticalAlign=middle;whiteSpace=wrap;rounded=0;" vertex="1" parent="1">
          <mxGeometry x="67.5" y="2410" width="270" height="110" as="geometry" />
        </mxCell>
        <mxCell id="8waOTapv8cE7Aeydk_Z_-57" value="&lt;font style=&quot;font-size: 17px;&quot;&gt;DB&lt;/font&gt;" style="strokeWidth=2;html=1;shape=mxgraph.flowchart.database;whiteSpace=wrap;" vertex="1" parent="1">
          <mxGeometry x="420" y="2177.57" width="170" height="170" as="geometry" />
        </mxCell>
        <mxCell id="8waOTapv8cE7Aeydk_Z_-58" value="" style="rounded=0;whiteSpace=wrap;html=1;fillColor=#f8cecc;strokeColor=#b85450;" vertex="1" parent="1">
          <mxGeometry x="10" y="2590" width="790" height="390" as="geometry" />
        </mxCell>
        <mxCell id="8waOTapv8cE7Aeydk_Z_-59" value="" style="rounded=0;whiteSpace=wrap;html=1;fillColor=#ffe6cc;strokeColor=#d79b00;" vertex="1" parent="1">
          <mxGeometry x="35" y="2610" width="335" height="150" as="geometry" />
        </mxCell>
        <mxCell id="8waOTapv8cE7Aeydk_Z_-60" value="" style="rounded=0;whiteSpace=wrap;html=1;fillColor=#ffe6cc;strokeColor=#d79b00;" vertex="1" parent="1">
          <mxGeometry x="412.5" y="2800" width="335" height="150" as="geometry" />
        </mxCell>
        <mxCell id="8waOTapv8cE7Aeydk_Z_-61" value="&lt;font style=&quot;font-size: 23px;&quot;&gt;IRepo :&lt;/font&gt;" style="text;html=1;strokeColor=none;fillColor=none;align=center;verticalAlign=middle;whiteSpace=wrap;rounded=0;" vertex="1" parent="1">
          <mxGeometry x="67.5" y="2630" width="270" height="110" as="geometry" />
        </mxCell>
        <mxCell id="8waOTapv8cE7Aeydk_Z_-62" value="&lt;font style=&quot;font-size: 23px;&quot;&gt;ConfigurationEntities&lt;/font&gt;" style="text;html=1;strokeColor=none;fillColor=none;align=center;verticalAlign=middle;whiteSpace=wrap;rounded=0;" vertex="1" parent="1">
          <mxGeometry x="430" y="2820" width="270" height="110" as="geometry" />
        </mxCell>
        <mxCell id="8waOTapv8cE7Aeydk_Z_-63" value="" style="endArrow=classic;html=1;rounded=0;exitX=0.5;exitY=0;exitDx=0;exitDy=0;fillColor=#f8cecc;strokeColor=#b85450;strokeWidth=3;entryX=0.5;entryY=1;entryDx=0;entryDy=0;" edge="1" parent="1" source="8waOTapv8cE7Aeydk_Z_-59" target="8waOTapv8cE7Aeydk_Z_-55">
          <mxGeometry width="50" height="50" relative="1" as="geometry">
            <mxPoint x="390" y="2210" as="sourcePoint" />
            <mxPoint x="440" y="2160" as="targetPoint" />
          </mxGeometry>
        </mxCell>
        <mxCell id="8waOTapv8cE7Aeydk_Z_-66" value="&lt;font style=&quot;font-size: 23px;&quot;&gt;Entities&lt;/font&gt;" style="rounded=0;whiteSpace=wrap;html=1;fillColor=#ffe6cc;strokeColor=#d79b00;" vertex="1" parent="1">
          <mxGeometry x="35" y="2800" width="335" height="150" as="geometry" />
        </mxCell>
        <mxCell id="8waOTapv8cE7Aeydk_Z_-67" value="" style="endArrow=classic;html=1;rounded=0;exitX=0;exitY=0.5;exitDx=0;exitDy=0;entryX=1;entryY=0.5;entryDx=0;entryDy=0;fillColor=#f8cecc;strokeColor=#b85450;startArrow=none;startFill=0;strokeWidth=3;" edge="1" parent="1" source="8waOTapv8cE7Aeydk_Z_-60" target="8waOTapv8cE7Aeydk_Z_-66">
          <mxGeometry width="50" height="50" relative="1" as="geometry">
            <mxPoint x="390" y="2700" as="sourcePoint" />
            <mxPoint x="440" y="2650" as="targetPoint" />
          </mxGeometry>
        </mxCell>
        <mxCell id="8waOTapv8cE7Aeydk_Z_-68" value="" style="endArrow=classic;html=1;rounded=0;strokeWidth=3;fillColor=#f8cecc;strokeColor=#b85450;exitX=0.527;exitY=0;exitDx=0;exitDy=0;exitPerimeter=0;entryX=0.7;entryY=1.003;entryDx=0;entryDy=0;entryPerimeter=0;" edge="1" parent="1" target="8waOTapv8cE7Aeydk_Z_-57">
          <mxGeometry width="50" height="50" relative="1" as="geometry">
            <mxPoint x="543.975" y="2800" as="sourcePoint" />
            <mxPoint x="540" y="2350" as="targetPoint" />
          </mxGeometry>
        </mxCell>
        <mxCell id="8waOTapv8cE7Aeydk_Z_-70" value="" style="endArrow=classic;html=1;rounded=0;entryX=0.335;entryY=1.003;entryDx=0;entryDy=0;entryPerimeter=0;exitX=1;exitY=0.25;exitDx=0;exitDy=0;strokeWidth=2;" edge="1" parent="1" source="8waOTapv8cE7Aeydk_Z_-55" target="8waOTapv8cE7Aeydk_Z_-57">
          <mxGeometry width="50" height="50" relative="1" as="geometry">
            <mxPoint x="390" y="2500" as="sourcePoint" />
            <mxPoint x="440" y="2450" as="targetPoint" />
            <Array as="points">
              <mxPoint x="477" y="2428" />
            </Array>
          </mxGeometry>
        </mxCell>
        <mxCell id="8waOTapv8cE7Aeydk_Z_-71" value="" style="endArrow=classic;html=1;rounded=0;entryX=1;entryY=0.75;entryDx=0;entryDy=0;exitX=0.5;exitY=1;exitDx=0;exitDy=0;exitPerimeter=0;strokeWidth=2;" edge="1" parent="1" source="8waOTapv8cE7Aeydk_Z_-57" target="8waOTapv8cE7Aeydk_Z_-55">
          <mxGeometry width="50" height="50" relative="1" as="geometry">
            <mxPoint x="390" y="2500" as="sourcePoint" />
            <mxPoint x="440" y="2450" as="targetPoint" />
            <Array as="points">
              <mxPoint x="505" y="2503" />
            </Array>
          </mxGeometry>
        </mxCell>
        <mxCell id="8waOTapv8cE7Aeydk_Z_-72" value="" style="endArrow=classic;html=1;rounded=0;exitX=0.5;exitY=1;exitDx=0;exitDy=0;entryX=0.5;entryY=0;entryDx=0;entryDy=0;fillColor=#f8cecc;strokeColor=#b85450;strokeWidth=3;" edge="1" parent="1" source="8waOTapv8cE7Aeydk_Z_-59" target="8waOTapv8cE7Aeydk_Z_-66">
          <mxGeometry width="50" height="50" relative="1" as="geometry">
            <mxPoint x="390" y="2600" as="sourcePoint" />
            <mxPoint x="440" y="2550" as="targetPoint" />
          </mxGeometry>
        </mxCell>
        <mxCell id="8waOTapv8cE7Aeydk_Z_-73" value="" style="endArrow=classic;html=1;rounded=0;entryX=1;entryY=0.25;entryDx=0;entryDy=0;exitX=0.701;exitY=1.007;exitDx=0;exitDy=0;exitPerimeter=0;strokeWidth=2;" edge="1" parent="1" source="8waOTapv8cE7Aeydk_Z_-49" target="8waOTapv8cE7Aeydk_Z_-59">
          <mxGeometry width="50" height="50" relative="1" as="geometry">
            <mxPoint x="390" y="2400" as="sourcePoint" />
            <mxPoint x="440" y="2350" as="targetPoint" />
            <Array as="points">
              <mxPoint x="690" y="2648" />
            </Array>
          </mxGeometry>
        </mxCell>
        <mxCell id="8waOTapv8cE7Aeydk_Z_-74" value="" style="endArrow=classic;html=1;rounded=0;exitX=1;exitY=0.75;exitDx=0;exitDy=0;entryX=0.913;entryY=0.98;entryDx=0;entryDy=0;entryPerimeter=0;strokeWidth=2;" edge="1" parent="1" source="8waOTapv8cE7Aeydk_Z_-59" target="8waOTapv8cE7Aeydk_Z_-49">
          <mxGeometry width="50" height="50" relative="1" as="geometry">
            <mxPoint x="390" y="2420" as="sourcePoint" />
            <mxPoint x="440" y="2370" as="targetPoint" />
            <Array as="points">
              <mxPoint x="756" y="2723" />
            </Array>
          </mxGeometry>
        </mxCell>
        <mxCell id="8waOTapv8cE7Aeydk_Z_-75" value="" style="endArrow=classic;html=1;rounded=0;entryX=0.25;entryY=0;entryDx=0;entryDy=0;exitX=0.25;exitY=1;exitDx=0;exitDy=0;strokeWidth=2;" edge="1" parent="1" source="8waOTapv8cE7Aeydk_Z_-23" target="8waOTapv8cE7Aeydk_Z_-49">
          <mxGeometry width="50" height="50" relative="1" as="geometry">
            <mxPoint x="390" y="1660" as="sourcePoint" />
            <mxPoint x="440" y="1610" as="targetPoint" />
          </mxGeometry>
        </mxCell>
        <mxCell id="8waOTapv8cE7Aeydk_Z_-76" value="" style="endArrow=classic;html=1;rounded=0;entryX=0.75;entryY=1;entryDx=0;entryDy=0;exitX=0.75;exitY=0;exitDx=0;exitDy=0;strokeWidth=2;" edge="1" parent="1" source="8waOTapv8cE7Aeydk_Z_-49" target="8waOTapv8cE7Aeydk_Z_-23">
          <mxGeometry width="50" height="50" relative="1" as="geometry">
            <mxPoint x="390" y="1660" as="sourcePoint" />
            <mxPoint x="440" y="1610" as="targetPoint" />
          </mxGeometry>
        </mxCell>
        <mxCell id="8waOTapv8cE7Aeydk_Z_-77" value="" style="shape=curlyBracket;whiteSpace=wrap;html=1;rounded=1;flipH=1;labelPosition=right;verticalLabelPosition=middle;align=left;verticalAlign=middle;fillColor=#fff2cc;strokeColor=#d6b656;" vertex="1" parent="1">
          <mxGeometry x="800" y="1160" width="70" height="1860" as="geometry" />
        </mxCell>
        <mxCell id="8waOTapv8cE7Aeydk_Z_-80" value="&lt;h3&gt;&lt;font style=&quot;font-size: 27px;&quot;&gt;Try{ }&lt;/font&gt;&lt;/h3&gt;" style="text;html=1;strokeColor=none;fillColor=none;align=center;verticalAlign=middle;whiteSpace=wrap;rounded=0;" vertex="1" parent="1">
          <mxGeometry x="840" y="2027.5" width="140" height="125" as="geometry" />
        </mxCell>
        <mxCell id="8waOTapv8cE7Aeydk_Z_-82" value="&lt;font style=&quot;font-size: 44px;&quot;&gt;&lt;u&gt;Request pipline&lt;/u&gt;&lt;/font&gt;" style="text;html=1;strokeColor=none;fillColor=none;align=center;verticalAlign=middle;whiteSpace=wrap;rounded=0;" vertex="1" parent="1">
          <mxGeometry x="234" y="870" width="532.5" height="250" as="geometry" />
        </mxCell>
        <mxCell id="8waOTapv8cE7Aeydk_Z_-83" value="" style="endArrow=classic;html=1;rounded=0;entryX=1;entryY=0.3333333333333333;entryDx=0;entryDy=0;entryPerimeter=0;exitX=0.75;exitY=0;exitDx=0;exitDy=0;strokeWidth=2;" edge="1" parent="1" source="8waOTapv8cE7Aeydk_Z_-23" target="8waOTapv8cE7Aeydk_Z_-24">
          <mxGeometry width="50" height="50" relative="1" as="geometry">
            <mxPoint x="390" y="1240" as="sourcePoint" />
            <mxPoint x="440" y="1190" as="targetPoint" />
            <Array as="points">
              <mxPoint x="700" y="1080" />
            </Array>
          </mxGeometry>
        </mxCell>
      </root>
    </mxGraphModel>
  </diagram>
</mxfile>
